<svg width="115" height="33" viewBox="0 0 115 33" fill="none" xmlns="http://www.w3.org/2000/svg">
<path fill-rule="evenodd" clip-rule="evenodd" d="M15.2344 31.1666C23.3536 31.1666 29.9356 24.6001 29.9356 16.4999C29.9356 8.39978 23.3536 1.83328 15.2344 1.83328C7.11513 1.83328 0.533203 8.39978 0.533203 16.4999C0.533203 24.6001 7.11513 31.1666 15.2344 31.1666ZM19.8206 8.66564C20.0439 7.87452 19.2743 7.40671 18.5716 7.90624L8.7608 14.879C7.99862 15.4207 8.1185 16.4999 8.94089 16.4999H11.5243V16.48H16.5593L12.4567 17.9241L10.6481 24.3343C10.4249 25.1254 11.1944 25.5932 11.8972 25.0937L21.708 18.121C22.4702 17.5793 22.3502 16.4999 21.5279 16.4999H17.6102L19.8206 8.66564Z" fill="white"/>
<path d="M37.541 23.1061V20.7861H39.3853V11.4261H37.541V9.10614H44.758C45.6133 9.10614 46.355 9.25281 46.9832 9.54614C47.6247 9.82614 48.1192 10.2328 48.4667 10.7661C48.8275 11.2861 49.0079 11.9128 49.0079 12.6461V12.8461C49.0079 13.4861 48.8877 14.0128 48.6471 14.4261C48.4065 14.8261 48.1192 15.1395 47.7851 15.3661C47.4643 15.5795 47.1569 15.7328 46.8629 15.8261V16.1861C47.1569 16.2661 47.4777 16.4195 47.8252 16.6461C48.1726 16.8595 48.4667 17.1728 48.7072 17.5861C48.9612 17.9995 49.0881 18.5395 49.0881 19.2061V19.4061C49.0881 20.1795 48.9077 20.8461 48.5469 21.4061C48.186 21.9528 47.6848 22.3728 47.0433 22.6661C46.4152 22.9595 45.6801 23.1061 44.8381 23.1061H37.541ZM42.0316 20.7061H44.5174C45.0921 20.7061 45.5532 20.5661 45.9006 20.2861C46.2615 20.0061 46.4419 19.6061 46.4419 19.0861V18.8861C46.4419 18.3661 46.2682 17.9661 45.9207 17.6861C45.5732 17.4061 45.1054 17.2661 44.5174 17.2661H42.0316V20.7061ZM42.0316 14.8661H44.4773C45.0253 14.8661 45.473 14.7261 45.8205 14.4461C46.1813 14.1661 46.3617 13.7795 46.3617 13.2861V13.0861C46.3617 12.5795 46.188 12.1928 45.8405 11.9261C45.493 11.6461 45.0386 11.5061 44.4773 11.5061H42.0316V14.8661Z" fill="white"/>
<path d="M55.0634 23.3861C54.0744 23.3861 53.1857 23.1861 52.3971 22.7861C51.6086 22.3861 50.9872 21.8061 50.5328 21.0461C50.0784 20.2861 49.8512 19.3728 49.8512 18.3061V17.9861C49.8512 16.9195 50.0784 16.0061 50.5328 15.2461C50.9872 14.4861 51.6086 13.9061 52.3971 13.5061C53.1857 13.1061 54.0744 12.9061 55.0634 12.9061C56.0524 12.9061 56.9411 13.1061 57.7297 13.5061C58.5182 13.9061 59.1396 14.4861 59.594 15.2461C60.0484 16.0061 60.2756 16.9195 60.2756 17.9861V18.3061C60.2756 19.3728 60.0484 20.2861 59.594 21.0461C59.1396 21.8061 58.5182 22.3861 57.7297 22.7861C56.9411 23.1861 56.0524 23.3861 55.0634 23.3861ZM55.0634 21.1461C55.8386 21.1461 56.4801 20.8995 56.9879 20.4061C57.4958 19.8995 57.7497 19.1795 57.7497 18.2461V18.0461C57.7497 17.1128 57.4958 16.3995 56.9879 15.9061C56.4934 15.3995 55.8519 15.1461 55.0634 15.1461C54.2882 15.1461 53.6467 15.3995 53.1389 15.9061C52.631 16.3995 52.3771 17.1128 52.3771 18.0461V18.2461C52.3771 19.1795 52.631 19.8995 53.1389 20.4061C53.6467 20.8995 54.2882 21.1461 55.0634 21.1461Z" fill="white"/>
<path d="M61.6048 23.1061V9.10614H64.1308V23.1061H61.6048Z" fill="white"/>
<path d="M69.7364 23.1061C69.0816 23.1061 68.547 22.9061 68.1327 22.5061C67.7317 22.0928 67.5313 21.5461 67.5313 20.8661V15.2661H65.0454V13.1861H67.5313V10.1061H70.0572V13.1861H72.7836V15.2661H70.0572V20.4261C70.0572 20.8261 70.2443 21.0261 70.6185 21.0261H72.543V23.1061H69.7364Z" fill="white"/>
<path d="M78.1974 23.3861C76.901 23.3861 75.8385 23.1061 75.0099 22.5461C74.1813 21.9861 73.6801 21.1861 73.5064 20.1461L75.8318 19.5461C75.9254 20.0128 76.0791 20.3795 76.2929 20.6461C76.5201 20.9128 76.7941 21.1061 77.1148 21.2261C77.449 21.3328 77.8098 21.3861 78.1974 21.3861C78.7854 21.3861 79.2198 21.2861 79.5005 21.0861C79.7811 20.8728 79.9214 20.6128 79.9214 20.3061C79.9214 19.9995 79.7878 19.7661 79.5205 19.6061C79.2532 19.4328 78.8255 19.2928 78.2375 19.1861L77.6762 19.0861C76.9812 18.9528 76.3464 18.7728 75.7717 18.5461C75.197 18.3061 74.7359 17.9795 74.3885 17.5661C74.041 17.1528 73.8672 16.6195 73.8672 15.9661C73.8672 14.9795 74.2281 14.2261 74.9498 13.7061C75.6715 13.1728 76.6204 12.9061 77.7964 12.9061C78.9057 12.9061 79.8279 13.1528 80.5629 13.6461C81.298 14.1395 81.7791 14.7861 82.0063 15.5861L79.6608 16.3061C79.5539 15.7995 79.3334 15.4395 78.9993 15.2261C78.6785 15.0128 78.2776 14.9061 77.7964 14.9061C77.3153 14.9061 76.9478 14.9928 76.6939 15.1661C76.4399 15.3261 76.313 15.5528 76.313 15.8461C76.313 16.1661 76.4466 16.4061 76.7139 16.5661C76.9812 16.7128 77.342 16.8261 77.7964 16.9061L78.3578 17.0061C79.1062 17.1395 79.7811 17.3195 80.3825 17.5461C80.9973 17.7595 81.4784 18.0728 81.8259 18.4861C82.1868 18.8861 82.3672 19.4328 82.3672 20.1261C82.3672 21.1661 81.9863 21.9728 81.2245 22.5461C80.4761 23.1061 79.467 23.3861 78.1974 23.3861Z" fill="white"/>
<path d="M83.5783 23.1061V9.10614H86.1042V14.4061H86.4651C86.572 14.1928 86.7391 13.9795 86.9663 13.7661C87.1935 13.5528 87.4942 13.3795 87.8684 13.2461C88.256 13.0995 88.7438 13.0261 89.3318 13.0261C90.107 13.0261 90.7819 13.2061 91.3566 13.5661C91.9446 13.9128 92.399 14.3995 92.7198 15.0261C93.0405 15.6395 93.2009 16.3595 93.2009 17.1861V23.1061H90.675V17.3861C90.675 16.6395 90.4879 16.0795 90.1136 15.7061C89.7528 15.3328 89.2316 15.1461 88.55 15.1461C87.7748 15.1461 87.1734 15.4061 86.7457 15.9261C86.3181 16.4328 86.1042 17.1461 86.1042 18.0661V23.1061H83.5783Z" fill="white"/>
<path d="M94.9292 23.1061V13.1861H97.4551V23.1061H94.9292ZM96.1921 12.0261C95.7377 12.0261 95.3502 11.8795 95.0294 11.5861C94.722 11.2928 94.5683 10.9061 94.5683 10.4261C94.5683 9.94614 94.722 9.55948 95.0294 9.26614C95.3502 8.97281 95.7377 8.82614 96.1921 8.82614C96.6599 8.82614 97.0475 8.97281 97.3549 9.26614C97.6623 9.55948 97.8159 9.94614 97.8159 10.4261C97.8159 10.9061 97.6623 11.2928 97.3549 11.5861C97.0475 11.8795 96.6599 12.0261 96.1921 12.0261Z" fill="white"/>
<path d="M100.896 23.1061V15.2661H98.3697V13.1861H100.896V11.3461C100.896 10.6661 101.096 10.1261 101.497 9.72614C101.911 9.31281 102.446 9.10614 103.101 9.10614H105.707V11.1861H103.983C103.609 11.1861 103.422 11.3861 103.422 11.7861V13.1861H106.028V15.2661H103.422V23.1061H100.896Z" fill="white"/>
<path d="M110.594 23.1061C109.939 23.1061 109.405 22.9061 108.99 22.5061C108.589 22.0928 108.389 21.5461 108.389 20.8661V15.2661H105.903V13.1861H108.389V10.1061H110.915V13.1861H113.641V15.2661H110.915V20.4261C110.915 20.8261 111.102 21.0261 111.476 21.0261H113.401V23.1061H110.594Z" fill="white"/>
</svg>
