<svg width="132" height="32" viewBox="0 0 132 32" fill="none" xmlns="http://www.w3.org/2000/svg">
<path d="M21.0652 1.33325H9.83802L0.799805 10.3806V21.6192L9.83802 30.6666H21.0652L30.1034 21.6192V10.3806L21.0652 1.33325ZM11.3914 21.7606L5.60136 15.9646L11.3914 10.1686C13.5804 7.97743 17.1816 7.97743 19.3705 10.1686L25.1606 15.9646L19.3705 21.7606C17.1816 23.9517 13.651 23.9517 11.3914 21.7606Z" fill="white"/>
<path d="M42.9839 22.8265C44.782 22.8265 46.2605 21.9065 46.7201 20.5265V22.6665H49.3774V17.2665C49.3774 16.0465 48.4183 15.0065 47.1197 15.0065H43.3235V17.2665H46.0208C46.3604 17.2665 46.5802 17.4865 46.5802 17.8265C46.5802 19.1265 44.8619 20.3865 43.1237 20.3865C40.8061 20.3865 38.9679 18.5665 38.9679 15.6665C38.9679 12.7665 40.8061 11.0865 43.1837 11.0865C44.9818 11.0865 46.2206 12.0665 46.4403 13.5665H49.4173C49.2375 10.5665 46.7201 8.50654 43.2036 8.50654C39.5074 8.50654 36.1108 10.8865 36.1108 15.6665C36.1108 20.4465 39.4075 22.8265 42.9839 22.8265Z" fill="white"/>
<path d="M50.5181 22.6665H53.2952V8.20654H50.5181V22.6665Z" fill="white"/>
<path d="M59.2859 22.8265C62.3827 22.8265 64.6005 20.6265 64.6005 17.6265C64.6005 14.6265 62.3827 12.4265 59.2859 12.4265C56.189 12.4265 53.9713 14.6265 53.9713 17.6265C53.9713 20.6265 56.189 22.8265 59.2859 22.8265ZM59.2859 20.4265C57.7874 20.4265 56.7684 19.2865 56.7684 17.6265C56.7684 15.9465 57.7874 14.8065 59.2859 14.8065C60.7844 14.8065 61.8033 15.9465 61.8033 17.6265C61.8033 19.2865 60.7844 20.4265 59.2859 20.4265Z" fill="white"/>
<path d="M70.8148 22.8265C73.7918 22.8265 75.57 20.7665 75.57 17.6265C75.57 14.4865 73.7918 12.4265 70.8547 12.4265C69.596 12.4265 68.617 12.9065 68.0576 13.6465V8.20654H65.2804V22.6665H68.0576V21.5665C68.617 22.3465 69.656 22.8265 70.8148 22.8265ZM70.3752 20.4265C68.8768 20.4265 67.8978 19.3065 67.8978 17.6265C67.8978 15.9265 68.8768 14.8065 70.3752 14.8065C71.8338 14.8065 72.8327 15.9265 72.8327 17.6265C72.8327 19.3065 71.8338 20.4265 70.3752 20.4265Z" fill="white"/>
<path d="M80.2188 12.4265C77.4616 12.4265 75.8233 14.0465 75.7034 16.0665H78.1809C78.2209 15.2265 78.8402 14.4665 80.059 14.4665C81.1978 14.4665 81.8572 15.0465 81.8572 15.8865C81.8572 16.3065 81.5974 16.6265 81.0979 16.6265H79.3997C77.2019 16.6265 75.7234 17.8265 75.7234 19.8065C75.7234 21.5265 77.062 22.8265 79.02 22.8265C80.3986 22.8265 81.5175 22.2065 81.8572 21.2665V22.6665H84.6144V16.1865C84.6144 13.9065 82.7562 12.4265 80.2188 12.4265ZM79.7193 20.8065C78.9401 20.8065 78.3807 20.3465 78.3807 19.6865C78.3807 18.9065 78.9801 18.3865 79.8192 18.3865H81.8572V18.5265C81.8572 19.8065 81.078 20.8065 79.7193 20.8065Z" fill="white"/>
<path d="M85.6815 22.6665H88.4587V8.20654H85.6815V22.6665Z" fill="white"/>
<path d="M89.9339 22.6665H95.6481C98.6051 22.6665 100.643 21.1465 100.643 18.4865C100.643 16.6465 99.5642 15.5265 98.2855 15.0265C99.1046 14.5865 99.9238 13.5865 99.9238 12.2665C99.9238 9.92654 98.0257 8.66654 95.4883 8.66654H89.9339V22.6665ZM92.8909 14.0065V11.0465H95.2086C96.5472 11.0465 97.1466 11.5865 97.1466 12.5265C97.1466 13.4665 96.5472 14.0065 95.2685 14.0065H92.8909ZM92.8909 20.0665V16.5465H95.3884C97.0467 16.5465 97.786 17.1865 97.786 18.3265C97.786 19.4665 97.0467 20.0665 95.3884 20.0665H92.8909Z" fill="white"/>
<path d="M105.474 12.4265C102.717 12.4265 101.079 14.0465 100.959 16.0665H103.436C103.476 15.2265 104.096 14.4665 105.315 14.4665C106.453 14.4665 107.113 15.0465 107.113 15.8865C107.113 16.3065 106.853 16.6265 106.354 16.6265H104.655C102.457 16.6265 100.979 17.8265 100.979 19.8065C100.979 21.5265 102.318 22.8265 104.276 22.8265C105.654 22.8265 106.773 22.2065 107.113 21.2665V22.6665H109.87V16.1865C109.87 13.9065 108.012 12.4265 105.474 12.4265ZM104.975 20.8065C104.196 20.8065 103.636 20.3465 103.636 19.6865C103.636 18.9065 104.236 18.3865 105.075 18.3865H107.113V18.5265C107.113 19.8065 106.334 20.8065 104.975 20.8065Z" fill="white"/>
<path d="M110.777 22.6665H113.574V17.1465C113.574 15.8465 114.434 14.9065 115.652 14.9065C116.811 14.9065 117.59 15.7865 117.59 17.0065V22.6665H120.388V16.3865C120.388 14.0665 118.909 12.4265 116.631 12.4265C115.253 12.4265 114.134 13.0065 113.574 13.9865V12.5865H110.777V22.6665Z" fill="white"/>
<path d="M128.36 22.6665H131.716L127.381 16.5465L131.396 12.5865H127.88L124.384 16.0265V8.20654H121.586V22.6665H124.384V19.5065L125.502 18.4065L128.36 22.6665Z" fill="white"/>
</svg>
