<svg width="133" height="32" viewBox="0 0 133 32" fill="none" xmlns="http://www.w3.org/2000/svg">
<path opacity="0.8" d="M24.351 7.44189C24.0611 7.15374 23.7712 6.8656 23.4813 6.57745C22.6116 5.65538 21.684 4.73331 20.5244 4.15702C19.1909 3.46547 17.7414 3.63835 16.2919 3.63835C14.0888 3.63835 8.58079 3.63835 5.33398 3.63835L7.53717 6.57745C11.5377 6.57745 17.7994 6.57745 20.6983 6.57745C21.9159 6.57745 22.9595 6.80797 23.9451 7.44189C24.1191 7.49952 24.293 7.49952 24.351 7.44189Z" fill="white"/>
<path opacity="0.9" d="M26.7862 12.1677C26.4964 11.8796 26.2065 11.5914 25.9166 11.3033C25.0469 10.3812 24.1192 9.45914 22.9597 8.88284C21.6262 8.19129 20.1767 8.36418 18.7272 8.36418C16.8139 8.36418 12.2336 8.36418 8.98682 8.36418L11.19 11.3033C15.1326 11.3033 20.5246 11.3033 23.1916 11.3033C24.4091 11.3033 25.4527 11.5338 26.4384 12.1677C26.5543 12.2253 26.6703 12.2253 26.7862 12.1677Z" fill="white"/>
<path d="M29.5112 16.7778C29.2213 16.4897 28.9314 16.2015 28.6415 15.9134C27.7718 14.9913 26.8442 14.0692 25.6846 13.4929C24.3511 12.8014 22.9016 12.9743 21.4521 12.9743C19.6548 12.9743 15.7123 12.9743 12.5234 12.9743L14.7266 15.9134C18.5532 15.9134 23.4234 15.9134 25.8585 15.9134C27.0761 15.9134 28.1197 16.1439 29.1053 16.7778C29.2793 16.8355 29.3952 16.8931 29.5112 16.7778Z" fill="white"/>
<path opacity="0.8" d="M5.10205 24.5579C5.39194 24.846 5.68184 25.1342 5.97173 25.4223C6.84141 26.3444 7.76906 27.2664 8.92863 27.8427C10.2621 28.5343 11.7116 28.3614 13.1611 28.3614H24.119L21.9158 25.4223C17.9153 25.4223 11.6536 25.4223 8.75471 25.4223C7.53715 25.4223 6.49354 25.1918 5.5079 24.5579C5.33396 24.5002 5.21801 24.5002 5.10205 24.5579Z" fill="white"/>
<path opacity="0.9" d="M2.66699 19.8325C2.95689 20.1207 3.24678 20.4088 3.53667 20.697C4.40635 21.619 5.334 22.5411 6.49358 23.1174C7.82708 23.809 9.27655 23.6361 10.726 23.6361H20.4664L18.2632 20.697C14.3207 20.697 8.92868 20.697 6.26166 20.697C5.04411 20.697 4.00049 20.4665 3.01486 19.8325C2.8989 19.7749 2.78295 19.7749 2.66699 19.8325Z" fill="white"/>
<path d="M0 15.1643C0.289893 15.4525 0.579786 15.7406 0.869679 16.0288C1.73936 16.9508 2.66702 17.8729 3.82659 18.4492C5.1601 19.1407 6.60956 18.9679 8.05902 18.9679H16.9877L14.7845 16.0288C10.958 16.0288 6.08776 16.0288 3.65265 16.0288C2.4351 16.0288 1.39149 15.7982 0.405849 15.1643C0.231913 15.1067 0.115957 15.1067 0 15.1643Z" fill="white"/>
<path d="M36.1729 9.33862V22.6666H39.1213V17.16H44.7364V14.8826H39.1213V11.8026H45.6003V9.33862H36.1729Z" fill="white"/>
<path d="M52.9953 16.8053H48.6572C48.6697 16.6186 48.7072 16.4071 48.7698 16.1706C48.845 15.9342 48.9639 15.7102 49.1267 15.4986C49.3019 15.2871 49.5273 15.1128 49.8027 14.976C50.0907 14.8266 50.4475 14.752 50.8732 14.752C51.5242 14.752 52.0062 14.9262 52.3192 15.2746C52.6447 15.6231 52.8701 16.1333 52.9953 16.8053ZM48.6572 18.4853H55.662C55.7121 17.7386 55.6495 17.0231 55.4742 16.3386C55.299 15.6542 55.011 15.0444 54.6104 14.5093C54.2222 13.9742 53.7214 13.5511 53.108 13.24C52.4945 12.9164 51.7746 12.7546 50.9483 12.7546C50.2096 12.7546 49.5336 12.8853 48.9201 13.1466C48.3191 13.408 47.7996 13.7688 47.3614 14.2293C46.9232 14.6773 46.5851 15.2124 46.3472 15.8346C46.1094 16.4568 45.9904 17.1288 45.9904 17.8506C45.9904 18.5973 46.1031 19.2817 46.3285 19.904C46.5663 20.5262 46.8981 21.0613 47.3238 21.5093C47.7495 21.9573 48.269 22.3057 48.8825 22.5546C49.496 22.7911 50.1846 22.9093 50.9483 22.9093C52.05 22.9093 52.989 22.6604 53.7653 22.1626C54.5415 21.6648 55.1174 20.8373 55.493 19.68H53.1455C53.0579 19.9786 52.82 20.2648 52.4319 20.5386C52.0438 20.8 51.5805 20.9306 51.0422 20.9306C50.291 20.9306 49.7151 20.7377 49.3145 20.352C48.9138 19.9662 48.6947 19.344 48.6572 18.4853Z" fill="white"/>
<path d="M56.5676 15.984C56.6051 15.3617 56.7616 14.8453 57.0371 14.4346C57.3125 14.024 57.6631 13.6942 58.0887 13.4453C58.5144 13.1964 58.9902 13.0222 59.516 12.9226C60.0543 12.8106 60.5927 12.7546 61.1311 12.7546C61.6193 12.7546 62.1139 12.792 62.6147 12.8666C63.1155 12.9288 63.5724 13.0595 63.9856 13.2586C64.3987 13.4577 64.7368 13.7377 64.9997 14.0986C65.2626 14.4471 65.3941 14.9137 65.3941 15.4986V20.52C65.3941 20.9555 65.4191 21.3724 65.4692 21.7706C65.5193 22.1688 65.6069 22.4675 65.7321 22.6666H63.0278C62.9777 22.5173 62.9339 22.368 62.8964 22.2186C62.8713 22.0568 62.8525 21.8951 62.84 21.7333C62.4143 22.1688 61.9135 22.4737 61.3376 22.648C60.7617 22.8222 60.1733 22.9093 59.5723 22.9093C59.1091 22.9093 58.6772 22.8533 58.2765 22.7413C57.8759 22.6293 57.5253 22.4551 57.2249 22.2186C56.9244 21.9822 56.6865 21.6835 56.5112 21.3226C56.3485 20.9617 56.2671 20.5324 56.2671 20.0346C56.2671 19.4871 56.361 19.0391 56.5488 18.6906C56.7491 18.3297 56.9995 18.0435 57.3 17.832C57.613 17.6204 57.9635 17.4648 58.3516 17.3653C58.7523 17.2533 59.1529 17.1662 59.5536 17.104C59.9542 17.0417 60.3486 16.992 60.7367 16.9546C61.1248 16.9173 61.4691 16.8613 61.7696 16.7866C62.07 16.712 62.3079 16.6062 62.4832 16.4693C62.6585 16.32 62.7399 16.1084 62.7273 15.8346C62.7273 15.5484 62.6773 15.3244 62.5771 15.1626C62.4895 14.9884 62.3643 14.8577 62.2015 14.7706C62.0513 14.6711 61.8697 14.6088 61.6569 14.584C61.4566 14.5466 61.2375 14.528 60.9996 14.528C60.4738 14.528 60.0606 14.64 59.7601 14.864C59.4597 15.088 59.2844 15.4613 59.2343 15.984H56.5676ZM62.7273 17.944C62.6147 18.0435 62.4707 18.1244 62.2954 18.1866C62.1326 18.2364 61.9511 18.28 61.7508 18.3173C61.563 18.3546 61.3627 18.3857 61.1498 18.4106C60.937 18.4355 60.7242 18.4666 60.5113 18.504C60.311 18.5413 60.1107 18.5911 59.9104 18.6533C59.7226 18.7155 59.5536 18.8026 59.4033 18.9146C59.2656 19.0142 59.1529 19.1448 59.0653 19.3066C58.9776 19.4684 58.9338 19.6737 58.9338 19.9226C58.9338 20.1591 58.9776 20.3582 59.0653 20.52C59.1529 20.6817 59.2719 20.8124 59.4221 20.912C59.5723 20.9991 59.7476 21.0613 59.9479 21.0986C60.1482 21.136 60.3548 21.1546 60.5677 21.1546C61.0935 21.1546 61.5004 21.0675 61.7883 20.8933C62.0763 20.7191 62.2891 20.5137 62.4269 20.2773C62.5646 20.0284 62.646 19.7795 62.671 19.5306C62.7086 19.2817 62.7273 19.0826 62.7273 18.9333V17.944Z" fill="white"/>
<path d="M70.2809 13.016V10.1226H67.6142V13.016H65.9991V14.7893H67.6142V20.4826C67.6142 20.968 67.6956 21.36 67.8583 21.6586C68.0211 21.9573 68.2402 22.1875 68.5156 22.3493C68.8036 22.5111 69.1291 22.6168 69.4922 22.6666C69.8678 22.7288 70.2621 22.76 70.6753 22.76C70.9382 22.76 71.2074 22.7537 71.4828 22.7413C71.7583 22.7288 72.0087 22.704 72.234 22.6666V20.6133C72.1088 20.6382 71.9774 20.6568 71.8396 20.6693C71.7019 20.6817 71.5579 20.688 71.4077 20.688C70.957 20.688 70.6565 20.6133 70.5063 20.464C70.356 20.3146 70.2809 20.016 70.2809 19.568V14.7893H72.234V13.016H70.2809Z" fill="white"/>
<path d="M72.9394 9.33862V22.6666H75.6062V17.608C75.6062 16.6248 75.7689 15.9217 76.0944 15.4986C76.42 15.0631 76.9458 14.8453 77.672 14.8453C78.3105 14.8453 78.7549 15.0444 79.0053 15.4426C79.2557 15.8284 79.3809 16.4195 79.3809 17.216V22.6666H82.0476V16.7306C82.0476 16.1333 81.9913 15.592 81.8786 15.1066C81.7785 14.6088 81.5969 14.192 81.334 13.856C81.0711 13.5075 80.708 13.24 80.2448 13.0533C79.7941 12.8542 79.2119 12.7546 78.4983 12.7546C77.9975 12.7546 77.4842 12.8853 76.9583 13.1466C76.4325 13.3955 76.0005 13.8 75.6625 14.36H75.6062V9.33862H72.9394Z" fill="white"/>
<path d="M90.0436 16.8053H85.7055C85.718 16.6186 85.7555 16.4071 85.8181 16.1706C85.8932 15.9342 86.0122 15.7102 86.1749 15.4986C86.3502 15.2871 86.5756 15.1128 86.851 14.976C87.139 14.8266 87.4958 14.752 87.9215 14.752C88.5725 14.752 89.0545 14.9262 89.3675 15.2746C89.693 15.6231 89.9184 16.1333 90.0436 16.8053ZM85.7055 18.4853H92.7103C92.7604 17.7386 92.6978 17.0231 92.5225 16.3386C92.3472 15.6542 92.0593 15.0444 91.6586 14.5093C91.2705 13.9742 90.7697 13.5511 90.1563 13.24C89.5428 12.9164 88.8229 12.7546 87.9966 12.7546C87.2579 12.7546 86.5818 12.8853 85.9684 13.1466C85.3674 13.408 84.8478 13.7688 84.4096 14.2293C83.9715 14.6773 83.6334 15.2124 83.3955 15.8346C83.1577 16.4568 83.0387 17.1288 83.0387 17.8506C83.0387 18.5973 83.1514 19.2817 83.3768 19.904C83.6146 20.5262 83.9464 21.0613 84.3721 21.5093C84.7978 21.9573 85.3173 22.3057 85.9308 22.5546C86.5443 22.7911 87.2329 22.9093 87.9966 22.9093C89.0983 22.9093 90.0373 22.6604 90.8136 22.1626C91.5898 21.6648 92.1657 20.8373 92.5413 19.68H90.1938C90.1062 19.9786 89.8683 20.2648 89.4802 20.5386C89.0921 20.8 88.6288 20.9306 88.0905 20.9306C87.3393 20.9306 86.7634 20.7377 86.3627 20.352C85.9621 19.9662 85.743 19.344 85.7055 18.4853Z" fill="white"/>
<path d="M93.7285 13.016V22.6666H96.3953V18.3173C96.3953 17.8817 96.4391 17.4773 96.5267 17.104C96.6144 16.7306 96.7583 16.4071 96.9587 16.1333C97.1715 15.8471 97.4469 15.6231 97.785 15.4613C98.123 15.2995 98.5362 15.2186 99.0244 15.2186C99.1872 15.2186 99.3562 15.2311 99.5315 15.256C99.7068 15.2684 99.857 15.2871 99.9822 15.312V12.848C99.7694 12.7857 99.5753 12.7546 99.4 12.7546C99.062 12.7546 98.7365 12.8044 98.4235 12.904C98.1105 13.0035 97.8163 13.1466 97.5408 13.3333C97.2654 13.5075 97.0213 13.7253 96.8084 13.9866C96.5956 14.2355 96.4266 14.5093 96.3014 14.808H96.2638V13.016H93.7285Z" fill="white"/>
<path d="M103.694 20.2026V11.8026H105.798C106.524 11.8026 107.131 11.9084 107.619 12.12C108.12 12.3191 108.521 12.6115 108.821 12.9973C109.122 13.3831 109.335 13.8497 109.46 14.3973C109.598 14.9324 109.666 15.536 109.666 16.208C109.666 16.9422 109.573 17.5644 109.385 18.0746C109.197 18.5848 108.947 19.0017 108.634 19.3253C108.321 19.6364 107.964 19.8604 107.563 19.9973C107.162 20.1342 106.749 20.2026 106.324 20.2026H103.694ZM100.746 9.33862V22.6666H106.53C107.557 22.6666 108.446 22.4986 109.197 22.1626C109.961 21.8142 110.593 21.3413 111.094 20.744C111.607 20.1466 111.989 19.4373 112.239 18.616C112.49 17.7946 112.615 16.8986 112.615 15.928C112.615 14.8204 112.458 13.856 112.145 13.0346C111.845 12.2133 111.419 11.5288 110.868 10.9813C110.33 10.4337 109.685 10.0231 108.934 9.74929C108.195 9.47551 107.394 9.33862 106.53 9.33862H100.746Z" fill="white"/>
<path d="M120.356 16.8053H116.018C116.03 16.6186 116.068 16.4071 116.131 16.1706C116.206 15.9342 116.325 15.7102 116.487 15.4986C116.663 15.2871 116.888 15.1128 117.164 14.976C117.451 14.8266 117.808 14.752 118.234 14.752C118.885 14.752 119.367 14.9262 119.68 15.2746C120.006 15.6231 120.231 16.1333 120.356 16.8053ZM116.018 18.4853H123.023C123.073 17.7386 123.01 17.0231 122.835 16.3386C122.66 15.6542 122.372 15.0444 121.971 14.5093C121.583 13.9742 121.082 13.5511 120.469 13.24C119.855 12.9164 119.135 12.7546 118.309 12.7546C117.57 12.7546 116.894 12.8853 116.281 13.1466C115.68 13.408 115.16 13.7688 114.722 14.2293C114.284 14.6773 113.946 15.2124 113.708 15.8346C113.47 16.4568 113.351 17.1288 113.351 17.8506C113.351 18.5973 113.464 19.2817 113.689 19.904C113.927 20.5262 114.259 21.0613 114.685 21.5093C115.11 21.9573 115.63 22.3057 116.243 22.5546C116.857 22.7911 117.545 22.9093 118.309 22.9093C119.411 22.9093 120.35 22.6604 121.126 22.1626C121.902 21.6648 122.478 20.8373 122.854 19.68H120.506C120.419 19.9786 120.181 20.2648 119.793 20.5386C119.405 20.8 118.941 20.9306 118.403 20.9306C117.652 20.9306 117.076 20.7377 116.675 20.352C116.275 19.9662 116.056 19.344 116.018 18.4853Z" fill="white"/>
<path d="M129.412 22.6666L132.699 13.016H130.051L128.004 19.6053H127.966L125.919 13.016H123.121L126.445 22.6666H129.412Z" fill="white"/>
</svg>
