<svg width="48" height="48" viewBox="0 0 48 48" fill="none" xmlns="http://www.w3.org/2000/svg">
<g filter="url(#filter0_d_276_17661)">
<rect x="2" y="1" width="44" height="44" rx="22" fill="#98EF7E" fill-opacity="0.04"/>
<rect x="2.5" y="1.5" width="43" height="43" rx="21.5" stroke="#98EF7E" stroke-opacity="0.24"/>
<g clip-path="url(#clip0_276_17661)">
<path d="M33.75 23C33.75 27.7652 30.3311 31.7323 25.8125 32.5818V26.1406H27.8926H28.1072L28.1397 25.9285L28.583 23.0379L28.6272 22.75H28.3359H25.8125V21.125C25.8125 20.7655 25.9009 20.4414 26.1006 20.2104C26.2945 19.9861 26.6254 19.8125 27.1922 19.8125H28.4531H28.7031V19.5625V17.1016V16.8906L28.4952 16.8551L28.4531 17.1016L28.4951 16.8551L28.495 16.8551L28.4948 16.8551L28.494 16.8549L28.4912 16.8545L28.4808 16.8527L28.4412 16.8463C28.4069 16.8408 28.3569 16.833 28.2936 16.8237C28.167 16.8051 27.9872 16.7803 27.7727 16.7556C27.3449 16.7062 26.7748 16.6563 26.2146 16.6563C25.022 16.6563 24.0084 17.0186 23.2926 17.735C22.5766 18.4517 22.1875 19.4939 22.1875 20.7969V22.75H19.8984H19.6484V23V25.8906V26.1406H19.8984H22.1875V32.5818C17.6689 31.7323 14.25 27.7652 14.25 23C14.25 17.6152 18.6152 13.25 24 13.25C29.3848 13.25 33.75 17.6152 33.75 23Z" fill="#98EF7E" stroke="#029844" stroke-width="0.5"/>
</g>
</g>
<defs>
<filter id="filter0_d_276_17661" x="0" y="0" width="48" height="48" filterUnits="userSpaceOnUse" color-interpolation-filters="sRGB">
<feFlood flood-opacity="0" result="BackgroundImageFix"/>
<feColorMatrix in="SourceAlpha" type="matrix" values="0 0 0 0 0 0 0 0 0 0 0 0 0 0 0 0 0 0 127 0" result="hardAlpha"/>
<feOffset dy="1"/>
<feGaussianBlur stdDeviation="1"/>
<feColorMatrix type="matrix" values="0 0 0 0 0.0627451 0 0 0 0 0.0941176 0 0 0 0 0.156863 0 0 0 0.05 0"/>
<feBlend mode="normal" in2="BackgroundImageFix" result="effect1_dropShadow_276_17661"/>
<feBlend mode="normal" in="SourceGraphic" in2="effect1_dropShadow_276_17661" result="shape"/>
</filter>
<clipPath id="clip0_276_17661">
<rect width="20" height="20" fill="white" transform="translate(14 13)"/>
</clipPath>
</defs>
</svg>
