<svg width="134" height="33" viewBox="0 0 134 33" fill="none" xmlns="http://www.w3.org/2000/svg">
<path opacity="0.8" d="M24.6176 7.9421C24.3277 7.65396 24.0378 7.36581 23.7479 7.07766C22.8782 6.15559 21.9506 5.23353 20.791 4.65723C19.4575 3.96568 18.008 4.13856 16.5585 4.13856C14.3554 4.13856 8.84739 4.13856 5.60059 4.13856L7.80378 7.07766C11.8043 7.07766 18.066 7.07766 20.9649 7.07766C22.1825 7.07766 23.2261 7.30818 24.2117 7.9421C24.3857 7.99973 24.5596 7.99973 24.6176 7.9421Z" fill="white"/>
<path opacity="0.9" d="M27.0524 12.6677C26.7625 12.3796 26.4726 12.0914 26.1827 11.8033C25.313 10.8812 24.3854 9.95914 23.2258 9.38284C21.8923 8.69129 20.4428 8.86418 18.9933 8.86418C17.08 8.86418 12.4997 8.86418 9.25293 8.86418L11.4561 11.8033C15.3987 11.8033 20.7907 11.8033 23.4577 11.8033C24.6752 11.8033 25.7189 12.0338 26.7045 12.6677C26.8205 12.7253 26.9364 12.7253 27.0524 12.6677Z" fill="white"/>
<path d="M29.7778 17.2779C29.4879 16.9898 29.198 16.7016 28.9081 16.4135C28.0384 15.4914 27.1108 14.5693 25.9512 13.993C24.6177 13.3015 23.1682 13.4744 21.7187 13.4744C19.9214 13.4744 15.9789 13.4744 12.79 13.4744L14.9932 16.4135C18.8198 16.4135 23.69 16.4135 26.1251 16.4135C27.3427 16.4135 28.3863 16.644 29.3719 17.2779C29.5459 17.3355 29.6618 17.3932 29.7778 17.2779Z" fill="white"/>
<path opacity="0.8" d="M5.36816 25.0579C5.65806 25.346 5.94795 25.6342 6.23784 25.9223C7.10752 26.8444 8.03518 27.7665 9.19475 28.3428C10.5283 29.0343 11.9777 28.8614 13.4272 28.8614H24.3852L22.182 25.9223C18.1814 25.9223 11.9197 25.9223 9.02082 25.9223C7.80327 25.9223 6.75965 25.6918 5.77401 25.0579C5.60008 25.0003 5.48412 25.0003 5.36816 25.0579Z" fill="white"/>
<path opacity="0.9" d="M2.93359 20.3324C3.22349 20.6206 3.51338 20.9087 3.80327 21.1968C4.67295 22.1189 5.6006 23.041 6.76018 23.6173C8.09368 24.3088 9.54315 24.1359 10.9926 24.1359H20.733L18.5298 21.1968C14.5873 21.1968 9.19528 21.1968 6.52827 21.1968C5.31072 21.1968 4.2671 20.9663 3.28146 20.3324C3.1655 20.2748 3.04955 20.2748 2.93359 20.3324Z" fill="white"/>
<path d="M0.266602 15.6643C0.556495 15.9525 0.846388 16.2406 1.13628 16.5288C2.00596 17.4508 2.93362 18.3729 4.09319 18.9492C5.4267 19.6407 6.87616 19.4679 8.32563 19.4679H17.2543L15.0511 16.5288C11.2246 16.5288 6.35436 16.5288 3.91926 16.5288C2.70171 16.5288 1.65809 16.2982 0.67245 15.6643C0.498514 15.6067 0.382559 15.6067 0.266602 15.6643Z" fill="white"/>
<path d="M36.4395 9.83865V23.1667H39.3879V17.66H45.003V15.3827H39.3879V12.3027H45.8669V9.83865H36.4395Z" fill="white"/>
<path d="M53.2619 17.3053H48.9238C48.9363 17.1187 48.9738 16.9071 49.0364 16.6707C49.1116 16.4342 49.2305 16.2102 49.3933 15.9987C49.5685 15.7871 49.7939 15.6129 50.0693 15.476C50.3573 15.3267 50.7141 15.252 51.1398 15.252C51.7908 15.252 52.2728 15.4262 52.5858 15.7747C52.9113 16.1231 53.1367 16.6333 53.2619 17.3053ZM48.9238 18.9853H55.9286C55.9787 18.2387 55.9161 17.5231 55.7408 16.8387C55.5656 16.1542 55.2776 15.5444 54.877 15.0093C54.4888 14.4742 53.988 14.0511 53.3746 13.74C52.7611 13.4164 52.0412 13.2547 51.2149 13.2547C50.4762 13.2547 49.8002 13.3853 49.1867 13.6467C48.5857 13.908 48.0662 14.2689 47.628 14.7293C47.1898 15.1773 46.8517 15.7124 46.6138 16.3347C46.376 16.9569 46.257 17.6289 46.257 18.3507C46.257 19.0973 46.3697 19.7818 46.5951 20.404C46.8329 21.0262 47.1647 21.5613 47.5904 22.0093C48.0161 22.4573 48.5356 22.8058 49.1491 23.0547C49.7626 23.2911 50.4512 23.4093 51.2149 23.4093C52.3166 23.4093 53.2556 23.1604 54.0319 22.6627C54.8081 22.1649 55.384 21.3373 55.7596 20.18H53.4121C53.3245 20.4787 53.0866 20.7649 52.6985 21.0387C52.3104 21.3 51.8472 21.4307 51.3088 21.4307C50.5576 21.4307 49.9817 21.2378 49.5811 20.852C49.1804 20.4662 48.9613 19.844 48.9238 18.9853Z" fill="white"/>
<path d="M56.8342 16.484C56.8717 15.8618 57.0282 15.3453 57.3037 14.9347C57.5791 14.524 57.9297 14.1942 58.3553 13.9453C58.781 13.6964 59.2568 13.5222 59.7826 13.4227C60.3209 13.3107 60.8593 13.2547 61.3977 13.2547C61.8859 13.2547 62.3805 13.292 62.8813 13.3667C63.3821 13.4289 63.839 13.5595 64.2522 13.7587C64.6653 13.9578 65.0034 14.2378 65.2663 14.5987C65.5292 14.9471 65.6607 15.4138 65.6607 15.9987V21.02C65.6607 21.4555 65.6857 21.8724 65.7358 22.2707C65.7859 22.6689 65.8735 22.9675 65.9987 23.1667H63.2944C63.2443 23.0173 63.2005 22.868 63.163 22.7187C63.1379 22.5569 63.1191 22.3951 63.1066 22.2333C62.6809 22.6689 62.1801 22.9738 61.6042 23.148C61.0283 23.3222 60.4399 23.4093 59.8389 23.4093C59.3757 23.4093 58.9438 23.3533 58.5431 23.2413C58.1425 23.1293 57.7919 22.9551 57.4915 22.7187C57.191 22.4822 56.9531 22.1835 56.7778 21.8227C56.6151 21.4618 56.5337 21.0324 56.5337 20.5347C56.5337 19.9871 56.6276 19.5391 56.8154 19.1907C57.0157 18.8298 57.2661 18.5435 57.5666 18.332C57.8796 18.1204 58.2301 17.9649 58.6182 17.8653C59.0189 17.7533 59.4195 17.6662 59.8202 17.604C60.2208 17.5418 60.6152 17.492 61.0033 17.4547C61.3914 17.4173 61.7357 17.3613 62.0362 17.2867C62.3366 17.212 62.5745 17.1062 62.7498 16.9693C62.9251 16.82 63.0065 16.6084 62.9939 16.3347C62.9939 16.0484 62.9439 15.8244 62.8437 15.6627C62.7561 15.4884 62.6309 15.3578 62.4681 15.2707C62.3179 15.1711 62.1363 15.1089 61.9235 15.084C61.7232 15.0467 61.5041 15.028 61.2662 15.028C60.7404 15.028 60.3272 15.14 60.0267 15.364C59.7263 15.588 59.551 15.9613 59.5009 16.484H56.8342ZM62.9939 18.444C62.8813 18.5435 62.7373 18.6244 62.562 18.6867C62.3992 18.7364 62.2177 18.78 62.0174 18.8173C61.8296 18.8547 61.6293 18.8858 61.4164 18.9107C61.2036 18.9355 60.9908 18.9667 60.7779 19.004C60.5776 19.0413 60.3773 19.0911 60.177 19.1533C59.9892 19.2155 59.8202 19.3027 59.6699 19.4147C59.5322 19.5142 59.4195 19.6449 59.3319 19.8067C59.2442 19.9684 59.2004 20.1738 59.2004 20.4227C59.2004 20.6591 59.2442 20.8582 59.3319 21.02C59.4195 21.1818 59.5385 21.3124 59.6887 21.412C59.8389 21.4991 60.0142 21.5613 60.2145 21.5987C60.4148 21.636 60.6214 21.6547 60.8343 21.6547C61.3601 21.6547 61.767 21.5675 62.0549 21.3933C62.3429 21.2191 62.5557 21.0138 62.6935 20.7773C62.8312 20.5284 62.9126 20.2795 62.9376 20.0307C62.9752 19.7818 62.9939 19.5827 62.9939 19.4333V18.444Z" fill="white"/>
<path d="M70.5475 13.516V10.6227H67.8808V13.516H66.2657V15.2893H67.8808V20.9827C67.8808 21.468 67.9622 21.86 68.1249 22.1587C68.2877 22.4573 68.5068 22.6875 68.7822 22.8493C69.0702 23.0111 69.3957 23.1169 69.7588 23.1667C70.1344 23.2289 70.5287 23.26 70.9419 23.26C71.2048 23.26 71.474 23.2538 71.7494 23.2413C72.0249 23.2289 72.2753 23.204 72.5006 23.1667V21.1133C72.3754 21.1382 72.244 21.1569 72.1063 21.1693C71.9685 21.1818 71.8246 21.188 71.6743 21.188C71.2236 21.188 70.9231 21.1133 70.7729 20.964C70.6226 20.8147 70.5475 20.516 70.5475 20.068V15.2893H72.5006V13.516H70.5475Z" fill="white"/>
<path d="M73.206 9.83865V23.1667H75.8728V18.108C75.8728 17.1249 76.0355 16.4218 76.361 15.9987C76.6866 15.5631 77.2124 15.3453 77.9386 15.3453C78.5771 15.3453 79.0215 15.5444 79.2719 15.9427C79.5223 16.3284 79.6475 16.9195 79.6475 17.716V23.1667H82.3142V17.2307C82.3142 16.6333 82.2579 16.092 82.1452 15.6067C82.0451 15.1089 81.8635 14.692 81.6006 14.356C81.3377 14.0075 80.9746 13.74 80.5114 13.5533C80.0607 13.3542 79.4785 13.2547 78.7649 13.2547C78.2641 13.2547 77.7508 13.3853 77.2249 13.6467C76.6991 13.8955 76.2671 14.3 75.9291 14.86H75.8728V9.83865H73.206Z" fill="white"/>
<path d="M90.3102 17.3053H85.9721C85.9846 17.1187 86.0221 16.9071 86.0847 16.6707C86.1599 16.4342 86.2788 16.2102 86.4415 15.9987C86.6168 15.7871 86.8422 15.6129 87.1176 15.476C87.4056 15.3267 87.7624 15.252 88.1881 15.252C88.8391 15.252 89.3211 15.4262 89.6341 15.7747C89.9596 16.1231 90.185 16.6333 90.3102 17.3053ZM85.9721 18.9853H92.9769C93.027 18.2387 92.9644 17.5231 92.7891 16.8387C92.6138 16.1542 92.3259 15.5444 91.9252 15.0093C91.5371 14.4742 91.0363 14.0511 90.4229 13.74C89.8094 13.4164 89.0895 13.2547 88.2632 13.2547C87.5245 13.2547 86.8484 13.3853 86.235 13.6467C85.634 13.908 85.1144 14.2689 84.6762 14.7293C84.2381 15.1773 83.9 15.7124 83.6621 16.3347C83.4243 16.9569 83.3053 17.6289 83.3053 18.3507C83.3053 19.0973 83.418 19.7818 83.6434 20.404C83.8812 21.0262 84.213 21.5613 84.6387 22.0093C85.0644 22.4573 85.5839 22.8058 86.1974 23.0547C86.8109 23.2911 87.4995 23.4093 88.2632 23.4093C89.3649 23.4093 90.3039 23.1604 91.0802 22.6627C91.8564 22.1649 92.4323 21.3373 92.8079 20.18H90.4604C90.3728 20.4787 90.1349 20.7649 89.7468 21.0387C89.3587 21.3 88.8954 21.4307 88.3571 21.4307C87.6059 21.4307 87.03 21.2378 86.6293 20.852C86.2287 20.4662 86.0096 19.844 85.9721 18.9853Z" fill="white"/>
<path d="M93.9951 13.516V23.1667H96.6619V18.8173C96.6619 18.3818 96.7057 17.9773 96.7933 17.604C96.881 17.2307 97.0249 16.9071 97.2253 16.6333C97.4381 16.3471 97.7135 16.1231 98.0516 15.9613C98.3896 15.7995 98.8028 15.7187 99.291 15.7187C99.4538 15.7187 99.6228 15.7311 99.7981 15.756C99.9734 15.7684 100.124 15.7871 100.249 15.812V13.348C100.036 13.2858 99.8419 13.2547 99.6666 13.2547C99.3286 13.2547 99.0031 13.3044 98.6901 13.404C98.3771 13.5035 98.0829 13.6467 97.8074 13.8333C97.532 14.0075 97.2879 14.2253 97.075 14.4867C96.8622 14.7355 96.6932 15.0093 96.568 15.308H96.5304V13.516H93.9951Z" fill="white"/>
<path d="M103.961 20.7027V12.3027H106.064C106.791 12.3027 107.398 12.4084 107.886 12.62C108.387 12.8191 108.787 13.1115 109.088 13.4973C109.388 13.8831 109.601 14.3498 109.726 14.8973C109.864 15.4324 109.933 16.036 109.933 16.708C109.933 17.4422 109.839 18.0644 109.651 18.5747C109.464 19.0849 109.213 19.5018 108.9 19.8253C108.587 20.1364 108.23 20.3604 107.83 20.4973C107.429 20.6342 107.016 20.7027 106.59 20.7027H103.961ZM101.013 9.83865V23.1667H106.797C107.823 23.1667 108.712 22.9987 109.464 22.6627C110.227 22.3142 110.859 21.8413 111.36 21.244C111.874 20.6467 112.255 19.9373 112.506 19.116C112.756 18.2947 112.881 17.3987 112.881 16.428C112.881 15.3204 112.725 14.356 112.412 13.5347C112.111 12.7133 111.686 12.0289 111.135 11.4813C110.597 10.9338 109.952 10.5231 109.201 10.2493C108.462 9.97554 107.661 9.83865 106.797 9.83865H101.013Z" fill="white"/>
<path d="M120.623 17.3053H116.285C116.297 17.1187 116.335 16.9071 116.397 16.6707C116.472 16.4342 116.591 16.2102 116.754 15.9987C116.929 15.7871 117.155 15.6129 117.43 15.476C117.718 15.3267 118.075 15.252 118.501 15.252C119.152 15.252 119.634 15.4262 119.947 15.7747C120.272 16.1231 120.497 16.6333 120.623 17.3053ZM116.285 18.9853H123.289C123.339 18.2387 123.277 17.5231 123.102 16.8387C122.926 16.1542 122.638 15.5444 122.238 15.0093C121.85 14.4742 121.349 14.0511 120.735 13.74C120.122 13.4164 119.402 13.2547 118.576 13.2547C117.837 13.2547 117.161 13.3853 116.547 13.6467C115.947 13.908 115.427 14.2689 114.989 14.7293C114.551 15.1773 114.213 15.7124 113.975 16.3347C113.737 16.9569 113.618 17.6289 113.618 18.3507C113.618 19.0973 113.73 19.7818 113.956 20.404C114.194 21.0262 114.526 21.5613 114.951 22.0093C115.377 22.4573 115.896 22.8058 116.51 23.0547C117.123 23.2911 117.812 23.4093 118.576 23.4093C119.677 23.4093 120.616 23.1604 121.393 22.6627C122.169 22.1649 122.745 21.3373 123.12 20.18H120.773C120.685 20.4787 120.447 20.7649 120.059 21.0387C119.671 21.3 119.208 21.4307 118.67 21.4307C117.918 21.4307 117.342 21.2378 116.942 20.852C116.541 20.4662 116.322 19.844 116.285 18.9853Z" fill="white"/>
<path d="M129.679 23.1667L132.965 13.516H130.317L128.27 20.1053H128.233L126.186 13.516H123.387L126.711 23.1667H129.679Z" fill="white"/>
</svg>
