<svg width="132" height="33" viewBox="0 0 132 33" fill="none" xmlns="http://www.w3.org/2000/svg">
<path d="M20.6657 1.83328H9.43861L0.400391 10.8807V22.1192L9.43861 31.1666H20.6657L29.7039 22.1192V10.8807L20.6657 1.83328ZM10.992 22.2606L5.20195 16.4646L10.992 10.6686C13.181 8.47746 16.7821 8.47746 18.9711 10.6686L24.7612 16.4646L18.9711 22.2606C16.7821 24.4518 13.2516 24.4518 10.992 22.2606Z" fill="white"/>
<path d="M42.584 23.3267C44.3821 23.3267 45.8606 22.4067 46.3202 21.0267V23.1667H48.9775V17.7667C48.9775 16.5467 48.0184 15.5067 46.7197 15.5067H42.9236V17.7667H45.6209C45.9605 17.7667 46.1803 17.9867 46.1803 18.3267C46.1803 19.6267 44.462 20.8867 42.7238 20.8867C40.4062 20.8867 38.568 19.0667 38.568 16.1667C38.568 13.2667 40.4062 11.5867 42.7837 11.5867C44.5819 11.5867 45.8207 12.5667 46.0404 14.0667H49.0174C48.8376 11.0667 46.3202 9.00667 42.8037 9.00667C39.1075 9.00667 35.7109 11.3867 35.7109 16.1667C35.7109 20.9467 39.0076 23.3267 42.584 23.3267Z" fill="white"/>
<path d="M50.1182 23.1667H52.8953V8.70667H50.1182V23.1667Z" fill="white"/>
<path d="M58.886 23.3267C61.9828 23.3267 64.2006 21.1267 64.2006 18.1267C64.2006 15.1267 61.9828 12.9267 58.886 12.9267C55.7891 12.9267 53.5714 15.1267 53.5714 18.1267C53.5714 21.1267 55.7891 23.3267 58.886 23.3267ZM58.886 20.9267C57.3875 20.9267 56.3685 19.7867 56.3685 18.1267C56.3685 16.4467 57.3875 15.3067 58.886 15.3067C60.3845 15.3067 61.4034 16.4467 61.4034 18.1267C61.4034 19.7867 60.3845 20.9267 58.886 20.9267Z" fill="white"/>
<path d="M70.4149 23.3267C73.3919 23.3267 75.1701 21.2667 75.1701 18.1267C75.1701 14.9867 73.3919 12.9267 70.4548 12.9267C69.1961 12.9267 68.2171 13.4067 67.6577 14.1467V8.70667H64.8805V23.1667H67.6577V22.0667C68.2171 22.8467 69.2561 23.3267 70.4149 23.3267ZM69.9753 20.9267C68.4769 20.9267 67.4978 19.8067 67.4978 18.1267C67.4978 16.4267 68.4769 15.3067 69.9753 15.3067C71.4338 15.3067 72.4328 16.4267 72.4328 18.1267C72.4328 19.8067 71.4338 20.9267 69.9753 20.9267Z" fill="white"/>
<path d="M79.8189 12.9267C77.0617 12.9267 75.4234 14.5467 75.3035 16.5667H77.781C77.8209 15.7267 78.4403 14.9667 79.6591 14.9667C80.7979 14.9667 81.4573 15.5467 81.4573 16.3867C81.4573 16.8067 81.1975 17.1267 80.698 17.1267H78.9998C76.802 17.1267 75.3235 18.3267 75.3235 20.3067C75.3235 22.0267 76.6621 23.3267 78.6201 23.3267C79.9987 23.3267 81.1176 22.7067 81.4573 21.7667V23.1667H84.2145V16.6867C84.2145 14.4067 82.3563 12.9267 79.8189 12.9267ZM79.3194 21.3067C78.5402 21.3067 77.9808 20.8467 77.9808 20.1867C77.9808 19.4067 78.5802 18.8867 79.4193 18.8867H81.4573V19.0267C81.4573 20.3067 80.6781 21.3067 79.3194 21.3067Z" fill="white"/>
<path d="M85.2816 23.1667H88.0588V8.70667H85.2816V23.1667Z" fill="white"/>
<path d="M89.534 23.1667H95.2482C98.2052 23.1667 100.243 21.6467 100.243 18.9867C100.243 17.1467 99.1643 16.0267 97.8856 15.5267C98.7047 15.0867 99.5239 14.0867 99.5239 12.7667C99.5239 10.4267 97.6258 9.16667 95.0884 9.16667H89.534V23.1667ZM92.491 14.5067V11.5467H94.8087C96.1473 11.5467 96.7467 12.0867 96.7467 13.0267C96.7467 13.9667 96.1473 14.5067 94.8686 14.5067H92.491ZM92.491 20.5667V17.0467H94.9885C96.6468 17.0467 97.3861 17.6867 97.3861 18.8267C97.3861 19.9667 96.6468 20.5667 94.9885 20.5667H92.491Z" fill="white"/>
<path d="M105.075 12.9267C102.317 12.9267 100.679 14.5467 100.559 16.5667H103.037C103.077 15.7267 103.696 14.9667 104.915 14.9667C106.054 14.9667 106.713 15.5467 106.713 16.3867C106.713 16.8067 106.453 17.1267 105.954 17.1267H104.255C102.058 17.1267 100.579 18.3267 100.579 20.3067C100.579 22.0267 101.918 23.3267 103.876 23.3267C105.254 23.3267 106.373 22.7067 106.713 21.7667V23.1667H109.47V16.6867C109.47 14.4067 107.612 12.9267 105.075 12.9267ZM104.575 21.3067C103.796 21.3067 103.236 20.8467 103.236 20.1867C103.236 19.4067 103.836 18.8867 104.675 18.8867H106.713V19.0267C106.713 20.3067 105.934 21.3067 104.575 21.3067Z" fill="white"/>
<path d="M110.377 23.1667H113.175V17.6467C113.175 16.3467 114.034 15.4067 115.252 15.4067C116.411 15.4067 117.19 16.2867 117.19 17.5067V23.1667H119.988V16.8867C119.988 14.5667 118.509 12.9267 116.231 12.9267C114.853 12.9267 113.734 13.5067 113.175 14.4867V13.0867H110.377V23.1667Z" fill="white"/>
<path d="M127.96 23.1667H131.316L126.981 17.0467L130.997 13.0867H127.48L123.984 16.5267V8.70667H121.187V23.1667H123.984V20.0067L125.103 18.9067L127.96 23.1667Z" fill="white"/>
</svg>
