<svg width="248" height="248" viewBox="0 0 248 248" fill="none" xmlns="http://www.w3.org/2000/svg">
<circle opacity="0.1" cx="124" cy="124" r="81.7273" fill="url(#paint0_linear_98_4051)"/>
<circle opacity="0.4" cx="124" cy="124" r="102.018" stroke="#4B4B4B" stroke-width="23" stroke-dasharray="2 5"/>
<g filter="url(#filter0_bdi_98_4051)">
<ellipse cx="124" cy="124" rx="54" ry="53" fill="#F8F8F8" fill-opacity="0.05" shape-rendering="crispEdges"/>
</g>
<path fill-rule="evenodd" clip-rule="evenodd" d="M124.421 103C122.562 103 120.76 103.237 119.04 103.681C119.055 103.877 119.031 104.076 118.967 104.267C117.995 107.18 117.239 110.146 116.7 113.141C121.829 112.543 127.011 112.543 132.141 113.141C131.601 110.146 130.846 107.18 129.873 104.267C129.808 104.073 129.785 103.874 129.8 103.681C128.081 103.236 126.278 103 124.421 103ZM132.618 116.222C127.176 115.516 121.664 115.516 116.222 116.222C115.516 121.665 115.516 127.177 116.222 132.619C121.664 133.325 127.176 133.325 132.618 132.619C133.325 127.177 133.325 121.664 132.618 116.222ZM113.58 113.58C114.04 110.789 114.679 108.021 115.496 105.292H115.252C115.12 105.292 114.991 105.275 114.868 105.243C110.461 107.442 106.918 111.117 104.886 115.619C107.746 114.742 110.65 114.063 113.58 113.58ZM103.681 119.041C103.874 119.055 104.072 119.032 104.267 118.967C107.18 117.995 110.146 117.239 113.141 116.7C112.543 121.829 112.543 127.012 113.141 132.142C110.146 131.602 107.18 130.846 104.267 129.874C104.076 129.81 103.877 129.786 103.681 129.801C103.237 128.082 103 126.279 103 124.421C103 122.563 103.237 120.76 103.681 119.041ZM135.699 116.699C138.695 117.239 141.661 117.995 144.574 118.967C144.769 119.032 144.967 119.055 145.16 119.041C145.605 120.76 145.841 122.563 145.841 124.421C145.841 126.279 145.604 128.082 145.16 129.801C144.964 129.786 144.765 129.81 144.574 129.874C141.661 130.846 138.695 131.602 135.699 132.142C136.298 127.012 136.298 121.829 135.699 116.699ZM143.955 115.619C141.095 114.742 138.19 114.062 135.261 113.58C134.778 110.65 134.098 107.745 133.221 104.885C137.977 107.031 141.809 110.863 143.955 115.619ZM105.292 133.589C105.292 133.721 105.275 133.85 105.242 133.973C107.319 138.133 110.708 141.523 114.869 143.599C114.991 143.566 115.12 143.549 115.252 143.549H115.496C114.679 140.821 114.04 138.052 113.58 135.261C110.789 134.801 108.021 134.163 105.292 133.345V133.589ZM132.141 135.7C127.011 136.298 121.829 136.298 116.7 135.7C117.239 138.696 117.995 141.662 118.967 144.574C119.031 144.765 119.055 144.964 119.04 145.16C120.76 145.604 122.562 145.841 124.421 145.841C126.278 145.841 128.081 145.605 129.8 145.16C129.785 144.967 129.808 144.769 129.873 144.574C130.846 141.662 131.602 138.696 132.141 135.7ZM133.221 143.956C134.098 141.096 134.778 138.191 135.261 135.262C138.052 134.802 140.82 134.163 143.549 133.345V133.589C143.549 133.721 143.566 133.85 143.599 133.973C141.399 138.381 137.724 141.924 133.221 143.956ZM100 124.421C100 110.933 110.933 100 124.421 100C137.908 100 148.841 110.933 148.841 124.421C148.841 137.908 137.908 148.841 124.421 148.841C110.933 148.841 100 137.908 100 124.421Z" fill="url(#paint1_linear_98_4051)"/>
<ellipse opacity="0.5" cx="0.316073" cy="0.316493" rx="0.316073" ry="0.316493" transform="matrix(0.596747 -0.80243 0.805018 0.59325 37.3369 125.899)" fill="url(#paint2_linear_98_4051)"/>
<ellipse opacity="0.5" cx="0.316072" cy="0.316493" rx="0.316072" ry="0.316493" transform="matrix(0.596752 -0.802425 0.805023 0.593244 55.0889 134.103)" fill="url(#paint3_linear_98_4051)"/>
<ellipse opacity="0.5" cx="0.316073" cy="0.316494" rx="0.316073" ry="0.316494" transform="matrix(0.596748 -0.802429 0.805019 0.593249 5.63672 117.063)" fill="url(#paint4_linear_98_4051)"/>
<ellipse opacity="0.5" cx="0.316073" cy="0.316494" rx="0.316073" ry="0.316494" transform="matrix(0.596748 -0.802429 0.805019 0.593249 29.7285 137.89)" fill="url(#paint5_linear_98_4051)"/>
<ellipse opacity="0.5" cx="0.316073" cy="0.316493" rx="0.316073" ry="0.316493" transform="matrix(0.596747 -0.80243 0.805018 0.59325 60.1611 124.636)" fill="url(#paint6_linear_98_4051)"/>
<ellipse opacity="0.5" cx="10.5104" cy="117.439" rx="1.89337" ry="1.90202" transform="rotate(-90 10.5104 117.439)" fill="url(#paint7_linear_98_4051)"/>
<ellipse opacity="0.5" cx="49.0665" cy="126.59" rx="1.57781" ry="1.58501" transform="rotate(-90 49.0665 126.59)" fill="url(#paint8_linear_98_4051)"/>
<ellipse cx="10.0744" cy="142.053" rx="0.631124" ry="0.634005" transform="rotate(-90 10.0744 142.053)" fill="url(#paint9_linear_98_4051)"/>
<ellipse opacity="0.5" cx="0.632789" cy="0.632342" rx="0.632789" ry="0.632342" transform="matrix(-0.761479 -0.64819 0.651611 -0.758554 17.3789 128.168)" fill="url(#paint10_linear_98_4051)"/>
<ellipse opacity="0.5" cx="0.632147" cy="0.632987" rx="0.632147" ry="0.632987" transform="matrix(0.596748 -0.802429 0.805019 0.593249 42.4092 133.097)" fill="url(#paint11_linear_98_4051)"/>
<ellipse opacity="0.5" cx="19.5852" cy="140.79" rx="0.631124" ry="0.634005" transform="rotate(-90 19.5852 140.79)" fill="url(#paint12_linear_98_4051)"/>
<ellipse opacity="0.5" cx="27.1926" cy="119.963" rx="0.631124" ry="0.634005" transform="rotate(-90 27.1926 119.963)" fill="url(#paint13_linear_98_4051)"/>
<ellipse cx="33.5327" cy="131.955" rx="1.26224" ry="1.26801" transform="rotate(-90 33.5327 131.955)" fill="url(#paint14_linear_98_4051)"/>
<ellipse opacity="0.5" cx="0.316074" cy="0.316495" rx="0.316074" ry="0.316495" transform="matrix(-0.59675 -0.802427 -0.805021 0.593246 210.26 125.899)" fill="url(#paint15_linear_98_4051)"/>
<ellipse opacity="0.5" cx="0.31607" cy="0.31649" rx="0.31607" ry="0.31649" transform="matrix(-0.596747 -0.80243 -0.805018 0.59325 192.508 134.103)" fill="url(#paint16_linear_98_4051)"/>
<ellipse opacity="0.5" cx="0.316074" cy="0.316495" rx="0.316074" ry="0.316495" transform="matrix(-0.59675 -0.802427 -0.805021 0.593246 241.96 117.063)" fill="url(#paint17_linear_98_4051)"/>
<ellipse opacity="0.5" cx="0.316074" cy="0.316495" rx="0.316074" ry="0.316495" transform="matrix(-0.59675 -0.802427 -0.805021 0.593246 217.868 137.89)" fill="url(#paint18_linear_98_4051)"/>
<ellipse opacity="0.5" cx="0.316074" cy="0.316495" rx="0.316074" ry="0.316495" transform="matrix(-0.59675 -0.802427 -0.805021 0.593246 187.436 124.636)" fill="url(#paint19_linear_98_4051)"/>
<ellipse opacity="0.5" cx="1.89337" cy="1.90201" rx="1.89337" ry="1.90201" transform="matrix(-1.19793e-08 -1 -1 1.18707e-08 238.988 119.332)" fill="url(#paint20_linear_98_4051)"/>
<ellipse opacity="0.5" cx="1.57781" cy="1.58501" rx="1.57781" ry="1.58501" transform="matrix(-1.19793e-08 -1 -1 1.18707e-08 200.115 128.168)" fill="url(#paint21_linear_98_4051)"/>
<ellipse cx="0.631124" cy="0.634005" rx="0.631124" ry="0.634005" transform="matrix(-1.19793e-08 -1 -1 1.18707e-08 238.155 142.684)" fill="url(#paint22_linear_98_4051)"/>
<ellipse opacity="0.5" cx="0.632791" cy="0.632343" rx="0.632791" ry="0.632343" transform="matrix(0.76148 -0.648188 -0.651612 -0.758552 230.218 128.168)" fill="url(#paint23_linear_98_4051)"/>
<ellipse opacity="0.5" cx="0.632146" cy="0.632986" rx="0.632146" ry="0.632986" transform="matrix(-0.596747 -0.80243 -0.805018 0.59325 205.188 133.097)" fill="url(#paint24_linear_98_4051)"/>
<ellipse opacity="0.5" cx="0.631124" cy="0.634005" rx="0.631124" ry="0.634005" transform="matrix(-1.19793e-08 -1 -1 1.18707e-08 228.646 141.421)" fill="url(#paint25_linear_98_4051)"/>
<ellipse opacity="0.5" cx="0.631124" cy="0.634005" rx="0.631124" ry="0.634005" transform="matrix(-1.19793e-08 -1 -1 1.18707e-08 221.038 120.594)" fill="url(#paint26_linear_98_4051)"/>
<ellipse cx="1.26224" cy="1.26801" rx="1.26224" ry="1.26801" transform="matrix(-1.19794e-08 -1 -1 1.18706e-08 215.332 133.217)" fill="url(#paint27_linear_98_4051)"/>
<defs>
<filter id="filter0_bdi_98_4051" x="57.0087" y="58.0087" width="133.983" height="162.296" filterUnits="userSpaceOnUse" color-interpolation-filters="sRGB">
<feFlood flood-opacity="0" result="BackgroundImageFix"/>
<feGaussianBlur in="BackgroundImageFix" stdDeviation="6.49565"/>
<feComposite in2="SourceAlpha" operator="in" result="effect1_backgroundBlur_98_4051"/>
<feColorMatrix in="SourceAlpha" type="matrix" values="0 0 0 0 0 0 0 0 0 0 0 0 0 0 0 0 0 0 127 0" result="hardAlpha"/>
<feMorphology radius="17.3217" operator="erode" in="SourceAlpha" result="effect2_dropShadow_98_4051"/>
<feOffset dy="34.6434"/>
<feGaussianBlur stdDeviation="12.9913"/>
<feComposite in2="hardAlpha" operator="out"/>
<feColorMatrix type="matrix" values="0 0 0 0 0 0 0 0 0 0 0 0 0 0 0 0 0 0 0.4 0"/>
<feBlend mode="multiply" in2="effect1_backgroundBlur_98_4051" result="effect2_dropShadow_98_4051"/>
<feBlend mode="normal" in="SourceGraphic" in2="effect2_dropShadow_98_4051" result="shape"/>
<feColorMatrix in="SourceAlpha" type="matrix" values="0 0 0 0 0 0 0 0 0 0 0 0 0 0 0 0 0 0 127 0" result="hardAlpha"/>
<feOffset/>
<feGaussianBlur stdDeviation="4.33043"/>
<feComposite in2="hardAlpha" operator="arithmetic" k2="-1" k3="1"/>
<feColorMatrix type="matrix" values="0 0 0 0 0.972549 0 0 0 0 0.972549 0 0 0 0 0.972549 0 0 0 0.25 0"/>
<feBlend mode="normal" in2="shape" result="effect3_innerShadow_98_4051"/>
</filter>
<linearGradient id="paint0_linear_98_4051" x1="124" y1="42.2727" x2="124" y2="205.727" gradientUnits="userSpaceOnUse">
<stop stop-color="#A2A2A2"/>
<stop offset="1" stop-color="#3C3C3C"/>
</linearGradient>
<linearGradient id="paint1_linear_98_4051" x1="124.743" y1="99.3457" x2="124.743" y2="149.495" gradientUnits="userSpaceOnUse">
<stop stop-color="#9F9F9F"/>
<stop offset="1" stop-color="#4C4C4C"/>
</linearGradient>
<linearGradient id="paint2_linear_98_4051" x1="0.526788" y1="-0.210995" x2="0.157231" y2="0.579861" gradientUnits="userSpaceOnUse">
<stop offset="0.173306" stop-color="white" stop-opacity="0"/>
<stop offset="1" stop-color="white" stop-opacity="0.3"/>
</linearGradient>
<linearGradient id="paint3_linear_98_4051" x1="0.526786" y1="-0.210995" x2="0.157228" y2="0.57986" gradientUnits="userSpaceOnUse">
<stop offset="0.173306" stop-color="white" stop-opacity="0"/>
<stop offset="1" stop-color="white" stop-opacity="0.3"/>
</linearGradient>
<linearGradient id="paint4_linear_98_4051" x1="0.526789" y1="-0.210996" x2="0.157231" y2="0.579862" gradientUnits="userSpaceOnUse">
<stop offset="0.173306" stop-color="white" stop-opacity="0"/>
<stop offset="1" stop-color="white" stop-opacity="0.3"/>
</linearGradient>
<linearGradient id="paint5_linear_98_4051" x1="0.526789" y1="-0.210996" x2="0.157231" y2="0.579862" gradientUnits="userSpaceOnUse">
<stop offset="0.173306" stop-color="white" stop-opacity="0"/>
<stop offset="1" stop-color="white" stop-opacity="0.3"/>
</linearGradient>
<linearGradient id="paint6_linear_98_4051" x1="0.526788" y1="-0.210995" x2="0.157231" y2="0.579861" gradientUnits="userSpaceOnUse">
<stop offset="0.173306" stop-color="white" stop-opacity="0"/>
<stop offset="1" stop-color="white" stop-opacity="0.3"/>
</linearGradient>
<linearGradient id="paint7_linear_98_4051" x1="11.7727" y1="115.537" x2="8.59797" y2="119.961" gradientUnits="userSpaceOnUse">
<stop stop-color="white" stop-opacity="0.3"/>
<stop offset="0.826694" stop-color="white" stop-opacity="0"/>
</linearGradient>
<linearGradient id="paint8_linear_98_4051" x1="50.1183" y1="123.948" x2="48.2637" y2="127.904" gradientUnits="userSpaceOnUse">
<stop stop-color="white" stop-opacity="0.3"/>
<stop offset="0.826694" stop-color="white" stop-opacity="0"/>
</linearGradient>
<linearGradient id="paint9_linear_98_4051" x1="10.4952" y1="140.996" x2="9.75335" y2="142.578" gradientUnits="userSpaceOnUse">
<stop offset="0.173306" stop-color="white" stop-opacity="0"/>
<stop offset="1" stop-color="white" stop-opacity="0.3"/>
</linearGradient>
<linearGradient id="paint10_linear_98_4051" x1="1.05465" y1="-0.421561" x2="0.317252" y2="1.15969" gradientUnits="userSpaceOnUse">
<stop offset="0.173306" stop-color="white" stop-opacity="0"/>
<stop offset="1" stop-color="white" stop-opacity="0.3"/>
</linearGradient>
<linearGradient id="paint11_linear_98_4051" x1="1.05358" y1="-0.421991" x2="0.314462" y2="1.15972" gradientUnits="userSpaceOnUse">
<stop offset="0.173306" stop-color="white" stop-opacity="0"/>
<stop offset="1" stop-color="white" stop-opacity="0.3"/>
</linearGradient>
<linearGradient id="paint12_linear_98_4051" x1="20.0059" y1="139.734" x2="19.2641" y2="141.316" gradientUnits="userSpaceOnUse">
<stop offset="0.173306" stop-color="white" stop-opacity="0"/>
<stop offset="1" stop-color="white" stop-opacity="0.3"/>
</linearGradient>
<linearGradient id="paint13_linear_98_4051" x1="27.6133" y1="118.907" x2="26.8715" y2="120.489" gradientUnits="userSpaceOnUse">
<stop offset="0.173306" stop-color="white" stop-opacity="0"/>
<stop offset="1" stop-color="white" stop-opacity="0.3"/>
</linearGradient>
<linearGradient id="paint14_linear_98_4051" x1="34.3742" y1="129.841" x2="32.8905" y2="133.006" gradientUnits="userSpaceOnUse">
<stop stop-color="white" stop-opacity="0.3"/>
<stop offset="0.826694" stop-color="white" stop-opacity="0"/>
</linearGradient>
<linearGradient id="paint15_linear_98_4051" x1="0.52679" y1="-0.210997" x2="0.15723" y2="0.579864" gradientUnits="userSpaceOnUse">
<stop offset="0.173306" stop-color="white" stop-opacity="0"/>
<stop offset="1" stop-color="white" stop-opacity="0.3"/>
</linearGradient>
<linearGradient id="paint16_linear_98_4051" x1="0.526783" y1="-0.210993" x2="0.15723" y2="0.579856" gradientUnits="userSpaceOnUse">
<stop offset="0.173306" stop-color="white" stop-opacity="0"/>
<stop offset="1" stop-color="white" stop-opacity="0.3"/>
</linearGradient>
<linearGradient id="paint17_linear_98_4051" x1="0.52679" y1="-0.210997" x2="0.15723" y2="0.579864" gradientUnits="userSpaceOnUse">
<stop offset="0.173306" stop-color="white" stop-opacity="0"/>
<stop offset="1" stop-color="white" stop-opacity="0.3"/>
</linearGradient>
<linearGradient id="paint18_linear_98_4051" x1="0.52679" y1="-0.210997" x2="0.15723" y2="0.579864" gradientUnits="userSpaceOnUse">
<stop offset="0.173306" stop-color="white" stop-opacity="0"/>
<stop offset="1" stop-color="white" stop-opacity="0.3"/>
</linearGradient>
<linearGradient id="paint19_linear_98_4051" x1="0.52679" y1="-0.210997" x2="0.15723" y2="0.579864" gradientUnits="userSpaceOnUse">
<stop offset="0.173306" stop-color="white" stop-opacity="0"/>
<stop offset="1" stop-color="white" stop-opacity="0.3"/>
</linearGradient>
<linearGradient id="paint20_linear_98_4051" x1="3.15561" y1="9.1325e-08" x2="-0.0190719" y2="4.42435" gradientUnits="userSpaceOnUse">
<stop stop-color="white" stop-opacity="0.3"/>
<stop offset="0.826694" stop-color="white" stop-opacity="0"/>
</linearGradient>
<linearGradient id="paint21_linear_98_4051" x1="2.62968" y1="-1.05667" x2="0.775095" y2="2.89938" gradientUnits="userSpaceOnUse">
<stop stop-color="white" stop-opacity="0.3"/>
<stop offset="0.826694" stop-color="white" stop-opacity="0"/>
</linearGradient>
<linearGradient id="paint22_linear_98_4051" x1="1.05187" y1="-0.42267" x2="0.310038" y2="1.15975" gradientUnits="userSpaceOnUse">
<stop offset="0.173306" stop-color="white" stop-opacity="0"/>
<stop offset="1" stop-color="white" stop-opacity="0.3"/>
</linearGradient>
<linearGradient id="paint23_linear_98_4051" x1="1.05465" y1="-0.421562" x2="0.317254" y2="1.1597" gradientUnits="userSpaceOnUse">
<stop offset="0.173306" stop-color="white" stop-opacity="0"/>
<stop offset="1" stop-color="white" stop-opacity="0.3"/>
</linearGradient>
<linearGradient id="paint24_linear_98_4051" x1="1.05358" y1="-0.421991" x2="0.314463" y2="1.15972" gradientUnits="userSpaceOnUse">
<stop offset="0.173306" stop-color="white" stop-opacity="0"/>
<stop offset="1" stop-color="white" stop-opacity="0.3"/>
</linearGradient>
<linearGradient id="paint25_linear_98_4051" x1="1.05187" y1="-0.42267" x2="0.310038" y2="1.15975" gradientUnits="userSpaceOnUse">
<stop offset="0.173306" stop-color="white" stop-opacity="0"/>
<stop offset="1" stop-color="white" stop-opacity="0.3"/>
</linearGradient>
<linearGradient id="paint26_linear_98_4051" x1="1.05187" y1="-0.42267" x2="0.310038" y2="1.15975" gradientUnits="userSpaceOnUse">
<stop offset="0.173306" stop-color="white" stop-opacity="0"/>
<stop offset="1" stop-color="white" stop-opacity="0.3"/>
</linearGradient>
<linearGradient id="paint27_linear_98_4051" x1="2.10374" y1="-0.84534" x2="0.620065" y2="2.3195" gradientUnits="userSpaceOnUse">
<stop stop-color="white" stop-opacity="0.3"/>
<stop offset="0.826694" stop-color="white" stop-opacity="0"/>
</linearGradient>
</defs>
</svg>
