<svg width="485" height="401" viewBox="0 0 485 401" fill="none" xmlns="http://www.w3.org/2000/svg">
<g clip-path="url(#clip0_357_10068)">
<path d="M393.771 26.7604C393.986 26.9322 394.211 27.2261 394.424 27.7036C393.466 28.75 392.436 29.7271 391.381 30.6993C391.126 30.9349 390.869 31.1706 390.61 31.4069C389.73 32.2127 388.842 33.0264 387.987 33.873L387.463 34.3916L388.139 34.6865C388.559 34.87 388.981 35.0764 389.417 35.2901L389.509 35.3347C389.974 35.5623 390.455 35.7959 390.947 36.0035C391.929 36.4185 392.987 36.7454 394.129 36.7249L394.261 36.7225L394.374 36.6554C397.788 34.6371 401.156 32.2354 404.536 29.8246L404.639 29.7507C408.061 27.3103 411.498 24.8632 415.045 22.7645C422.132 18.5719 429.597 15.8075 438.109 17.2916C438.7 17.4415 439.32 17.7747 439.775 18.2286C440.114 18.5666 440.344 18.9521 440.424 19.3657C440.395 19.3713 440.366 19.3778 440.338 19.3853C440.249 19.4092 440.131 19.453 440.026 19.5422C439.908 19.6432 439.816 19.7977 439.813 19.9894C439.81 20.159 439.878 20.2916 439.932 20.3722C439.989 20.4563 440.059 20.5259 440.124 20.5814C440.149 20.6021 440.174 20.6225 440.201 20.6426C438.96 23.2529 436.817 25.7584 434.104 28.1717C431.257 30.7035 427.809 33.1097 424.181 35.4095C421.345 37.2069 418.412 38.932 415.577 40.5991C414.783 41.0656 413.998 41.5275 413.224 41.9852C409.694 44.0738 406.412 46.0763 403.831 48.0032L403.775 48.0447L403.733 48.0997C403.495 48.4103 403.403 48.7934 403.385 49.176C403.368 49.5603 403.424 49.9847 403.521 50.4221C403.717 51.2963 404.098 52.3078 404.519 53.3105C404.774 53.9165 405.053 54.5405 405.319 55.1369C405.491 55.5216 405.657 55.8947 405.809 56.2441C406.208 57.1631 406.505 57.9189 406.607 58.4262L406.722 59.004L407.274 58.7957C409.549 57.9358 411.822 57.0248 414.023 55.9328C415.313 56.1202 416.424 57.0882 417.008 58.3395C417.61 59.6274 417.604 61.1007 416.766 62.1806C415.167 63.9387 413.102 65.2492 410.904 66.2206L410.504 66.3973L410.626 66.8173C412.057 71.749 414.099 76.5183 416.129 81.2557C416.385 81.8538 416.641 82.4513 416.895 83.0486C419.142 88.3233 421.278 93.5867 422.491 99.0868C422.069 99.6578 421.43 100.113 420.776 100.288C420.083 100.472 419.402 100.343 418.881 99.7287C413.535 93.3347 408.648 86.5797 403.749 79.8076L403.42 79.353C398.414 72.4331 393.384 65.504 387.845 58.9657L387.58 58.653L387.221 58.8515C384.089 60.5845 381.032 62.4924 377.985 64.3936C376.817 65.1223 375.651 65.85 374.483 66.5665C370.257 69.1586 365.988 71.6146 361.451 73.4984L361.174 73.6134L361.145 73.912C361.085 74.5329 361.196 75.2412 361.393 75.9804C361.592 76.7253 361.888 77.5378 362.226 78.3778C362.514 79.0945 362.827 79.8195 363.141 80.5484C363.58 81.5662 364.023 82.5917 364.407 83.6132C365.061 85.3571 365.469 86.9119 365.337 88.088C365.272 88.6592 365.083 89.1152 364.751 89.4655C364.449 89.7845 363.996 90.0512 363.321 90.2175C360.885 88.3263 358.789 86.0423 356.678 83.7138C356.603 83.6314 356.529 83.549 356.454 83.4666C354.373 81.1705 352.264 78.8431 349.821 76.8954L349.533 76.666L349.229 76.8724C339.937 83.1683 330.699 89.5279 321.464 95.8861C311.572 102.696 301.683 109.504 291.732 116.231C291.22 116.414 290.694 116.18 290.389 115.726C290.087 115.277 290.076 114.725 290.515 114.314C302.944 105.219 315.72 96.578 328.501 87.9336C334.817 83.6619 341.135 79.3894 347.412 75.0605L347.974 74.6732L347.435 74.2543C344.49 71.9628 341.258 70.0162 338.052 68.0858C337.412 67.7003 336.773 67.3155 336.138 66.9287C332.347 64.6213 328.669 62.2362 325.534 59.1916C325.305 58.2141 325.315 57.5382 325.455 57.0851C325.592 56.6422 325.862 56.3787 326.263 56.227C326.692 56.0651 327.285 56.0275 328.032 56.1182C328.772 56.2079 329.618 56.4178 330.524 56.708C332.337 57.2886 334.331 58.1707 336.1 58.9773C336.341 59.0876 336.58 59.1969 336.814 59.3042C338.261 59.9675 339.531 60.5497 340.297 60.7682L341.044 60.981L340.929 60.2134C340.751 59.0218 340.002 57.8849 339.138 56.8318C338.701 56.2982 338.218 55.7686 337.74 55.2499C337.669 55.173 337.599 55.0964 337.528 55.0201C337.12 54.5777 336.719 54.1435 336.344 53.7105C335.454 52.6828 334.78 51.7355 334.545 50.8445C334.43 50.4117 334.423 50.0021 334.539 49.6026C334.642 49.252 334.848 48.883 335.205 48.4976C338.842 48.9781 342.279 50.4353 345.759 52.0432C346.218 52.2551 346.677 52.4697 347.138 52.685C350.229 54.1288 353.377 55.5991 356.677 56.4463L356.821 56.4833L356.962 56.4356C362.308 54.6245 366.879 50.2342 370.613 46.2461L370.953 45.8832L370.592 45.5414C366.372 41.5449 361.678 38.0805 356.9 34.7485C355.532 33.7944 354.159 32.852 352.788 31.9112C349.37 29.566 345.967 27.2304 342.697 24.7474C342.16 24.2131 341.256 23.5209 340.125 22.7219C338.968 21.9043 337.544 20.9546 335.971 19.9182C335.428 19.5598 334.866 19.1909 334.29 18.8132C331.533 17.0029 328.468 14.9904 325.599 12.9632C322.126 10.5084 318.977 8.05676 317.027 5.94161C316.047 4.87861 315.411 3.94487 315.162 3.17411C315.04 2.79577 315.019 2.47979 315.075 2.21579C315.126 1.97782 315.246 1.75149 315.467 1.537C316.525 1.08975 317.492 0.77969 318.372 1.195L318.38 1.19864L318.388 1.20202C335.748 8.67858 352.831 16.8635 369.645 25.5431L369.958 25.7049L370.216 25.4637C370.923 24.8015 371.612 24.0874 372.291 23.384C372.701 22.9586 373.108 22.5371 373.513 22.1333C374.603 21.046 375.72 20.0408 377.001 19.2525C378.313 18.534 379.883 18.9105 381.068 19.9162C382.246 20.9167 382.902 22.4216 382.523 23.7925C381.398 25.9588 379.596 27.8431 377.328 28.6591L376.444 28.9771L377.201 29.5328C379.272 31.0513 381.724 31.9452 384.051 32.7936C384.323 32.8928 384.593 32.9914 384.861 33.0903L385.062 33.1644L385.254 33.0703C385.648 32.8773 386.061 32.5567 386.471 32.1867C386.887 31.8122 387.327 31.362 387.776 30.8878C387.989 30.6637 388.203 30.4344 388.418 30.2038C389.126 29.446 389.848 28.6734 390.563 28.0213C391.026 27.5984 391.471 27.2405 391.891 26.9799C392.313 26.717 392.68 26.5718 392.99 26.5377C393.281 26.5058 393.533 26.5695 393.771 26.7604ZM373.266 44.5415L373.62 44.8582L373.954 44.5221C375.594 42.876 377.208 41.1822 378.818 39.4927C379.993 38.2599 381.165 37.0294 382.344 35.8214L382.824 35.3299L382.209 35.0244C377.551 32.7104 372.945 30.2949 368.334 27.8749L368.158 27.7822C363.611 25.3958 359.058 23.0063 354.452 20.7117C349.86 18.111 344.995 15.9842 340.161 13.8712C339.43 13.552 338.701 13.233 337.973 12.9128C332.412 10.4663 326.945 7.94215 321.965 4.61931L321.268 5.30789C321.326 5.39704 321.38 5.49724 321.442 5.61536C321.453 5.63698 321.465 5.65951 321.477 5.68271C321.527 5.77949 321.583 5.88804 321.642 5.99176C321.789 6.24765 321.99 6.5399 322.317 6.75271C328.787 11.7271 335.521 16.3988 342.244 21.0632C344.232 22.4425 346.219 23.8211 348.198 25.2067C356.883 31.2873 365.424 37.509 373.266 44.5415ZM426.551 20.0401L426.544 20.0425C421.407 21.7104 416.791 24.4509 412.355 27.4523C410.67 28.5928 409.018 29.7651 407.374 30.9321C404.666 32.8541 401.978 34.7616 399.194 36.4881L399.15 36.5154L399.113 36.551C397.07 38.4967 394.912 39.0569 392.681 38.8884C390.418 38.7175 388.072 37.7959 385.686 36.7345L385.397 36.6061L385.157 36.8117C379.881 41.3347 375.196 46.4402 370.684 51.6822C369.032 53.6017 367.406 55.5361 365.782 57.4672C362.962 60.8214 360.15 64.1657 357.225 67.4053L357.84 68.1771C374.739 58.7542 391.366 48.7492 407.373 37.8687C410.427 36.0168 413.413 34.0906 416.393 32.1686C421.19 29.0742 425.97 25.9909 430.99 23.2471L431.04 23.2199L431.082 23.1822C431.654 22.674 432.436 22.6803 433.359 22.8295C433.653 23.2306 433.951 23.6317 434.253 24.0327L434.61 24.5079L435.017 24.0738C435.115 23.9692 435.218 23.8614 435.324 23.7506C435.75 23.3057 436.223 22.812 436.598 22.2764C437.077 21.5916 437.44 20.7851 437.399 19.8136L437.381 19.3866L436.956 19.3379C433.516 18.9435 429.933 18.9985 426.551 20.0401ZM373.01 26.4571L372.541 27.0752L373.297 27.2468C374.582 27.538 375.684 27.179 376.627 26.59C377.46 26.07 378.203 25.3474 378.859 24.71C378.92 24.6504 378.98 24.5915 379.04 24.5337C379.617 24.134 379.82 23.4014 379.715 22.8174C379.659 22.5059 379.508 22.1859 379.224 21.9638C378.93 21.7337 378.551 21.6543 378.139 21.7292L378.032 21.7486L377.943 21.8106C376.088 23.1001 374.387 24.6407 373.01 26.4571ZM360.442 70.1982L360.933 71.0676C369.64 66.8298 377.838 61.6286 386.002 56.4486C389.452 54.2597 392.896 52.0747 396.37 49.9677L396.381 49.9614L396.391 49.9547C400.82 46.9655 405.381 44.1424 409.952 41.3128C411.407 40.4126 412.862 39.5117 414.315 38.6046C420.327 34.8503 426.282 30.9946 431.863 26.663L431.335 25.8197C426.593 28.161 422.217 31.1479 417.889 34.1024C417.109 34.6343 416.331 35.1651 415.553 35.691C406.495 41.5923 397.237 47.2962 387.983 52.987L386.982 53.6026C378.062 59.0872 369.151 64.5659 360.442 70.1982ZM390.852 56.3451L390.663 56.4684L390.63 56.6912L390.566 57.1258L390.502 57.5615L390.472 57.7681L390.598 57.9348C392.963 61.0733 395.337 64.2043 397.711 67.3348C404.04 75.682 410.366 84.0249 416.514 92.4916L417.391 92.0323C412.494 78.0775 406.548 64.3044 400.707 50.7992L400.482 50.2785L399.993 50.5673C396.886 52.4051 393.856 54.3812 390.852 56.3451ZM340.989 52.4728L339.53 51.9266L340.398 53.2197C341.957 55.5407 343.848 57.5951 345.709 59.6166C345.807 59.7231 345.905 59.8294 346.002 59.9358C347.967 62.0714 349.879 64.1874 351.391 66.6066L351.401 66.6228L351.413 66.6381C351.877 67.2687 351.876 67.938 351.718 68.7531C351.679 68.9572 351.63 69.1646 351.579 69.3812C351.573 69.408 351.566 69.435 351.56 69.4621C351.515 69.6513 351.468 69.8479 351.427 70.0447C351.332 70.4943 351.256 70.9785 351.278 71.474L351.364 73.3252L352.221 71.6822C353.518 69.1961 355.242 66.975 357.031 64.7437C357.197 64.5371 357.363 64.3303 357.53 64.1232C359.152 62.1056 360.798 60.0578 362.146 57.8168L361.435 57.1465C358.313 59.2824 354.886 58.7938 351.342 57.3888C349.587 56.6931 347.836 55.7857 346.108 54.8902L346.061 54.8661C344.33 53.9686 342.615 53.0818 340.989 52.4728ZM409.08 61.4822L408.775 61.6831L408.873 62.0345C408.985 62.4334 409.21 63.2379 409.329 63.642L409.486 64.1782L410.001 63.9626C411.84 63.1937 413.438 61.9842 414.793 60.563L415.065 60.2775L414.851 59.9463C414.675 59.6739 414.33 59.1374 414.161 58.8684L413.903 58.4569L413.484 58.7031C411.983 59.5854 410.522 60.5309 409.08 61.4822ZM331.995 59.3269L331.384 60.1151C335.222 63.5546 339.862 66.1187 344.387 68.6196C345.829 69.4167 347.259 70.2074 348.649 71.0179L349.271 70.2496C346.937 67.6841 343.967 65.8685 340.924 64.2408C340.068 63.783 339.209 63.3413 338.355 62.9024C336.149 61.7679 333.979 60.6522 331.995 59.3269ZM353.281 74.4472L352.843 74.7043L353.107 75.1386C354.131 76.819 355.398 78.309 356.681 79.7468C356.924 80.0188 357.167 80.2886 357.409 80.5575C358.455 81.7193 359.485 82.8633 360.411 84.0902L361.286 83.6348C360.868 82.3459 359.951 79.5314 358.665 77.3061C358.026 76.1992 357.263 75.1814 356.38 74.5849C355.932 74.2823 355.437 74.0776 354.901 74.039C354.361 74.0001 353.817 74.1328 353.281 74.4472Z" fill="white" stroke="black"/>
<path d="M274.312 126.044C274.24 126.137 274.195 126.242 274.169 126.352C256.642 126.145 239.082 126.199 221.526 126.253C206.135 126.3 190.748 126.347 175.39 126.219L175.026 126.216L174.911 126.561C174.777 126.965 174.718 127.505 174.695 128.099C174.671 128.703 174.683 129.407 174.71 130.161C174.73 130.716 174.758 131.296 174.786 131.887C174.835 132.921 174.887 133.99 174.901 135.029C174.923 136.665 174.85 138.13 174.557 139.13C174.411 139.63 174.226 139.955 174.025 140.135C173.849 140.293 173.628 140.373 173.286 140.311L173.274 140.309L173.261 140.307C172.843 140.254 172.541 140.009 172.341 139.643C172.135 139.264 172.055 138.775 172.108 138.326L172.112 138.295L172.112 138.264C172.087 133.894 172.09 129.518 172.094 125.14C172.098 119.007 172.103 112.87 172.031 106.74L172.031 106.731L172.031 106.722C172.007 106.225 172.248 105.703 172.647 105.351C173.005 105.035 173.449 104.891 173.889 104.991C174.156 105.314 174.417 105.65 174.664 105.993C174.796 108.833 174.799 111.681 174.802 114.543L174.802 114.662C174.806 117.61 174.811 120.572 174.961 123.53L174.984 123.982L175.435 124.004C179.83 124.224 184.226 124.203 188.613 124.117L189.192 124.106L189.096 123.534C187.03 111.285 183.911 102.571 181.286 96.3044C180.63 94.7391 180.005 93.3273 179.436 92.054C179.333 91.8226 179.232 91.5961 179.133 91.3741C178.684 90.372 178.278 89.4635 177.924 88.6337C177.051 86.5864 176.537 85.1036 176.496 83.9821C176.475 83.4372 176.569 83.0024 176.77 82.6369C176.973 82.2705 177.306 81.9343 177.831 81.6232C178.902 80.9875 180.679 80.5086 183.434 80.0845C186.779 79.5696 191.438 79.151 197.78 78.5811C201.858 78.2147 206.632 77.7858 212.199 77.2286L212.635 77.1849L212.649 76.7467C212.837 70.7341 212.818 64.6974 212.8 58.6727C212.788 54.7896 212.776 50.9115 212.82 47.0482C212.88 46.6513 213.059 46.4251 213.263 46.2975C213.484 46.1586 213.786 46.1051 214.114 46.1589C214.789 46.2698 215.35 46.7797 215.354 47.4712C215.366 51.1291 215.332 54.7985 215.299 58.4726C215.244 64.5479 215.188 70.6359 215.338 76.706L215.35 77.1843L215.828 77.1936C217.763 77.2311 219.701 77.2205 221.641 77.1345L222.118 77.1134L222.119 76.6363C222.172 55.8935 222.146 35.1457 222.098 14.4039L222.098 14.3714L222.093 14.3392C222.039 13.9309 222.161 13.5674 222.398 13.1818C222.519 12.9865 222.664 12.7937 222.824 12.5905C222.87 12.5331 222.918 12.4736 222.966 12.4129C223.035 12.3273 223.106 12.2391 223.175 12.1507C223.814 12.1159 224.46 12.1319 225.112 12.1821C225.927 12.9756 226.489 13.8518 226.37 14.8699L226.366 14.8995L226.366 14.9293C226.38 21.0286 226.365 27.1316 226.35 33.2362C226.315 47.7138 226.28 62.2005 226.617 76.668L226.629 77.1606L227.122 77.1563C228.441 77.1448 229.764 77.1423 231.09 77.1398C233.442 77.1353 235.801 77.1308 238.152 77.0761L238.631 77.065L238.64 76.5857C238.719 72.4358 238.703 68.2829 238.686 64.1366L238.685 63.8811C238.668 59.6479 238.654 55.4216 238.742 51.2003H238.742V51.1899C238.742 50.8019 238.86 50.5517 239.007 50.3936C239.158 50.2316 239.374 50.1283 239.633 50.1008C240.131 50.0477 240.708 50.2845 241.031 50.7912C241.041 53.8897 241.021 56.9963 241.001 60.1061C240.964 65.6706 240.928 71.2454 241.068 76.8024L241.079 77.2366L241.51 77.2865C245.664 77.7667 249.286 78.1535 252.436 78.4897C258.469 79.1337 262.766 79.5925 265.739 80.1683C268.009 80.608 269.404 81.1 270.198 81.7268C270.582 82.0296 270.818 82.3587 270.95 82.7302C271.084 83.1078 271.123 83.563 271.057 84.1322C270.922 85.2911 270.37 86.7992 269.517 88.8445C269.255 89.4721 268.966 90.1478 268.655 90.8741C267.965 92.4861 267.168 94.3474 266.326 96.4849C263.878 102.704 261.026 111.315 259.122 123.374L259.035 123.921L259.588 123.951C262.183 124.093 264.781 124.09 267.365 124.076C267.6 124.074 267.834 124.073 268.069 124.072C270.42 124.057 272.759 124.043 275.094 124.127L275.107 124.128L275.119 124.128C275.5 124.122 275.807 124.29 276.054 124.581C276.256 124.817 276.409 125.127 276.505 125.455C276.38 125.566 276.238 125.692 276.094 125.818C275.978 125.921 275.862 126.024 275.754 126.119C275.726 126.1 275.697 126.081 275.669 126.063C275.523 125.969 275.329 125.856 275.13 125.802C274.934 125.749 274.562 125.716 274.312 126.044ZM179.235 83.2898L178.759 83.3932L178.85 83.872C179.063 84.9917 179.652 85.9309 180.226 86.768L180.375 86.9854L180.639 86.9852C185.982 86.9819 191.265 86.2695 196.513 85.5618L196.549 85.5571C201.82 84.8463 207.057 84.1418 212.352 84.1396L212.846 84.1394L212.852 83.6461C212.868 82.406 212.879 81.1659 212.884 79.9259L212.886 79.3836L212.346 79.4252C206.72 79.858 201.09 80.3927 195.5 81.147C193.89 81.3471 192.265 81.5153 190.633 81.6841C186.829 82.0777 182.99 82.4749 179.235 83.2898ZM215.925 79.1995L215.468 79.2025L215.43 79.6585C215.317 81.0328 215.263 82.4048 215.215 83.7715L215.198 84.2753L215.701 84.2889C219.187 84.3833 222.681 84.3418 226.165 84.3005C227.521 84.2845 228.875 84.2684 230.226 84.2604C235.057 84.2317 239.866 84.3054 244.651 84.8412L244.658 84.842L244.666 84.8427C246.708 85.0097 248.737 85.2904 250.781 85.5734C251.4 85.659 252.019 85.7448 252.641 85.8276C255.3 86.1819 257.987 86.4812 260.708 86.4675C261.027 86.5069 261.36 86.5557 261.706 86.6066L261.744 86.6121C262.112 86.6663 262.495 86.7222 262.88 86.7683C263.646 86.8603 264.444 86.9171 265.198 86.8403C265.955 86.7634 266.696 86.5493 267.322 86.0768C267.955 85.5998 268.428 84.8921 268.702 83.9071L268.846 83.3922L268.322 83.2835C251.107 79.7088 233.424 79.0864 215.925 79.1995ZM209.939 86.5085L209.29 86.5158L209.463 87.1416C210.381 90.4651 210.984 93.87 211.591 97.3029L211.649 97.6325C212.276 101.169 212.918 104.731 213.927 108.21L214.033 108.575L214.414 108.57C216.735 108.539 219.069 108.553 221.41 108.568C225.402 108.592 229.411 108.617 233.394 108.415L233.801 108.394L233.862 107.991C234.2 105.783 234.499 103.575 234.799 101.371C235.446 96.6036 236.09 91.8572 237.102 87.1837L237.231 86.5903L236.624 86.578C227.736 86.397 218.826 86.408 209.939 86.5085ZM193.398 88.1806L192.736 88.1361L192.876 88.7845C194.323 95.5284 196.02 102.278 197.983 108.906L198.107 109.326L198.539 109.258C200.512 108.951 202.51 108.869 204.539 108.805C204.719 108.799 204.9 108.794 205.08 108.788C206.925 108.731 208.795 108.674 210.654 108.455L211.183 108.392L211.088 107.869C210.742 105.97 210.437 104.038 210.13 102.093C209.334 97.0519 208.525 91.9284 206.956 87.1046L206.823 86.6977L206.401 86.7657C205.409 86.9254 204.406 87.0202 203.388 87.111C203.3 87.1189 203.211 87.1267 203.123 87.1345C202.202 87.2162 201.267 87.2991 200.336 87.4286C199.337 87.4823 198.348 87.6517 197.395 87.8152C197.195 87.8494 196.997 87.8834 196.8 87.916C195.643 88.108 194.527 88.2566 193.398 88.1806ZM236.404 108.241L236.448 108.689L236.898 108.693C240.263 108.723 243.627 108.904 247.005 109.085C247.792 109.128 248.579 109.17 249.368 109.21L249.802 109.233L249.884 108.805C251.016 102.887 252.646 97.0789 254.279 91.2589C254.464 90.599 254.649 89.9389 254.834 89.2785L254.972 88.785L254.475 88.6593C252.068 88.05 249.621 87.7174 247.187 87.4524C246.41 87.3678 245.637 87.2903 244.867 87.2131C243.211 87.0472 241.569 86.8826 239.934 86.6522L239.499 86.5908L239.383 87.0147C238.643 89.7061 238.305 92.5143 237.975 95.2679C237.855 96.2703 237.735 97.2656 237.597 98.2453C237.464 99.157 237.291 100.062 237.114 100.987C236.977 101.703 236.838 102.431 236.712 103.185C236.433 104.868 236.244 106.586 236.404 108.241ZM182.022 89.4572L181.348 89.5138L181.599 90.1415C183.814 95.6664 185.66 101.329 187.51 107.006C187.781 107.838 188.053 108.67 188.325 109.502L188.444 109.865L188.826 109.846C190.649 109.752 192.466 109.553 194.266 109.356C194.423 109.338 194.58 109.321 194.737 109.304L195.277 109.245L195.174 108.712C193.902 102.161 192.227 95.5553 189.992 89.2544L189.855 88.8689L189.45 88.9266C188.238 89.0994 187.013 89.18 185.771 89.2433C185.483 89.2579 185.193 89.2717 184.902 89.2855C183.947 89.3309 182.982 89.3767 182.022 89.4572ZM257.632 88.8577L257.241 88.8475L257.137 89.2252C256.908 90.0599 256.674 90.8955 256.439 91.7327C255.688 94.4093 254.933 97.1019 254.327 99.8308C254.308 99.8325 254.29 99.8342 254.271 99.836L254.266 99.8364C254.105 99.8513 253.952 99.8654 253.85 99.873L253.851 100.87C253.922 100.875 254.014 100.882 254.113 100.888C253.598 102.727 253.146 104.582 252.696 106.429C252.516 107.167 252.337 107.904 252.154 108.638L252.013 109.203L252.593 109.257C253.308 109.323 254.041 109.417 254.783 109.512C256.229 109.696 257.712 109.885 259.182 109.889L259.542 109.89L259.657 109.549C260.603 106.739 261.489 103.929 262.374 101.124C263.561 97.3622 264.746 93.6085 266.066 89.8766L266.301 89.2113L265.595 89.2099C264.279 89.2073 262.962 89.1373 261.634 89.0586C261.457 89.0481 261.28 89.0375 261.102 89.0268C259.952 88.9577 258.793 88.888 257.632 88.8577ZM189.289 112.008L188.629 112.046L188.846 112.67C189.37 114.186 189.782 115.739 190.199 117.314C190.277 117.608 190.355 117.903 190.435 118.198C190.935 120.066 191.472 121.951 192.236 123.768L192.366 124.077L192.702 124.074C201.077 123.998 209.476 124.061 217.88 124.123C230.499 124.218 243.13 124.312 255.707 123.935L256.062 123.925L256.169 123.587C256.731 121.809 257.14 120 257.541 118.213L257.567 118.094C257.96 116.341 258.348 114.609 258.871 112.91L259.052 112.322L258.439 112.265C235.543 110.14 212.21 110.69 189.289 112.008Z" fill="white" stroke="black"/>
<path d="M183.835 130.251L183.836 130.251C210.301 129.354 236.853 129.532 263.326 130.192C265.083 130.447 265.926 131.169 266.323 132.097C266.746 133.087 266.712 134.42 266.446 135.979C266.278 136.968 266.031 137.984 265.781 139.012C265.635 139.61 265.489 140.212 265.356 140.815C265.006 142.409 264.756 144.004 265.013 145.314L265.068 145.599L265.342 145.692C266.535 146.097 268.162 146.105 269.859 146.014C270.619 145.973 271.384 145.914 272.15 145.854C273.157 145.775 274.166 145.697 275.167 145.661C276.909 145.598 278.454 145.678 279.584 146.097C280.14 146.303 280.574 146.583 280.884 146.95C281.19 147.313 281.399 147.789 281.463 148.433L281.463 148.433L281.464 148.443C281.745 150.772 281.548 152.349 281.054 153.421C280.572 154.468 279.78 155.085 278.727 155.454C277.651 155.83 276.315 155.942 274.785 155.955C274.049 155.962 273.281 155.946 272.485 155.93L272.404 155.928C271.582 155.911 270.732 155.895 269.875 155.903L269.482 155.907L269.393 156.29C269.187 157.18 268.775 158.36 268.3 159.712L268.278 159.776C267.814 161.098 267.299 162.563 266.896 164.007C266.487 165.471 266.183 166.944 266.168 168.253C266.154 169.556 266.425 170.777 267.257 171.64L267.343 171.729L267.46 171.768C268.518 172.119 269.77 172.13 271.016 172.057C271.563 172.025 272.124 171.975 272.676 171.925C272.757 171.918 272.838 171.911 272.919 171.904C273.553 171.847 274.175 171.796 274.776 171.772C275.989 171.726 277.052 171.801 277.884 172.153C278.673 172.486 279.285 173.082 279.608 174.175C279.667 174.613 279.605 175.458 279.412 176.462C279.218 177.473 278.905 178.577 278.51 179.474C278.312 179.923 278.1 180.305 277.882 180.595C277.659 180.891 277.458 181.053 277.295 181.119C277.159 181.174 277.023 181.176 276.845 181.073C276.66 180.966 276.424 180.74 276.154 180.316C276.239 179.505 276.383 178.699 276.531 177.873L276.542 177.815C276.702 176.919 276.865 175.999 276.945 175.062L276.991 174.52L276.447 174.52C265.84 174.516 255.233 174.533 244.627 174.55C220.05 174.59 195.476 174.63 170.917 174.402L170.39 174.398L170.412 174.923C170.44 175.587 170.666 176.395 170.886 177.159C170.902 177.214 170.918 177.268 170.934 177.323C171.146 178.059 171.352 178.77 171.439 179.401C171.535 180.1 171.461 180.54 171.256 180.787C171.086 180.991 170.708 181.194 169.824 181.134C168.17 178.1 167.504 176.069 167.495 174.721C167.491 174.047 167.651 173.57 167.912 173.217C168.175 172.861 168.576 172.585 169.133 172.378C170.271 171.954 171.915 171.87 173.909 171.87C174.42 171.87 174.952 171.876 175.499 171.882C177.049 171.898 178.721 171.916 180.386 171.814L180.695 171.795L180.816 171.51C181.048 170.959 181.292 170.407 181.538 169.858L181.602 169.715L181.572 169.56C180.697 164.997 179.462 160.466 177.756 156.135L177.625 155.8L177.266 155.818C174.65 155.951 172.031 155.898 169.395 155.818L168.829 155.801C167.487 155.095 166.781 153.846 166.47 152.35C166.093 150.543 166.31 148.425 166.707 146.644C168.75 145.469 171.131 145.404 173.7 145.535C174.145 145.557 174.597 145.586 175.052 145.615C177.254 145.755 179.556 145.901 181.688 145.395L181.983 145.325L182.057 145.03C182.375 143.766 182.142 142.158 181.798 140.547C181.656 139.882 181.496 139.22 181.337 138.562C181.097 137.567 180.859 136.584 180.692 135.625C180.415 134.036 180.375 132.711 180.794 131.785C180.995 131.34 181.306 130.981 181.773 130.721C182.249 130.456 182.913 130.279 183.835 130.251ZM206.284 132.161L205.672 132.16L205.792 132.759C206.111 134.354 206.367 135.958 206.624 137.574C206.675 137.894 206.726 138.215 206.778 138.536C207.09 140.473 207.422 142.421 207.883 144.352L207.976 144.74L208.374 144.736C212.25 144.7 216.154 144.757 220.065 144.813C226.51 144.907 232.978 145 239.382 144.682L239.772 144.663L239.848 144.28C240.592 140.521 241.153 136.612 241.176 132.744L241.179 132.255L240.69 132.241C233.117 132.029 225.518 132.076 217.932 132.124C214.044 132.148 210.16 132.172 206.284 132.161ZM243.956 132.231L243.477 132.244L243.469 132.723C243.429 135.368 243.112 137.975 242.791 140.612C242.643 141.824 242.495 143.041 242.372 144.272L242.318 144.813L242.863 144.821C243.737 144.834 244.612 144.848 245.487 144.862C250.951 144.949 256.444 145.037 261.913 144.778L262.32 144.759L262.383 144.356C262.586 143.055 262.834 141.766 263.083 140.468C263.179 139.966 263.275 139.463 263.37 138.957C263.707 137.149 264.014 135.32 264.165 133.46L264.206 132.957L263.703 132.921C257.133 132.449 250.577 132.054 243.956 132.231ZM183.266 133.113L182.756 133.2L182.86 133.706C183.172 135.234 183.458 136.792 183.745 138.356C184.111 140.352 184.48 142.357 184.906 144.321L184.989 144.704L185.381 144.714C191.786 144.88 198.195 144.96 204.603 144.997L205.11 145L205.106 144.493C205.089 142.464 204.797 140.466 204.452 138.501C204.357 137.96 204.258 137.422 204.16 136.887C203.899 135.467 203.641 134.063 203.463 132.647L203.406 132.19L202.946 132.21C200.824 132.302 198.696 132.313 196.556 132.325C195.415 132.331 194.27 132.337 193.12 132.355C189.828 132.408 186.524 132.561 183.266 133.113ZM169.309 147.932L168.853 147.944L168.822 148.398C168.725 149.83 168.724 151.275 168.877 152.719L168.923 153.15L169.357 153.166C205.515 154.439 242.081 154.085 278.242 153.203L278.611 153.194L278.711 152.838C279.079 151.521 279.193 150.171 279.236 148.854L279.252 148.356L278.754 148.338C242.453 147.037 205.777 147.009 169.309 147.932ZM180.992 155.919L180.295 155.917L180.516 156.578C181.839 160.527 182.914 164.548 183.971 168.595L184.073 168.986L184.476 168.969C189.378 168.758 194.276 168.75 199.185 168.742C201.365 168.738 203.547 168.734 205.732 168.713L206.285 168.707L206.224 168.158C205.919 165.391 205.397 162.645 204.88 159.924C204.652 158.724 204.425 157.529 204.218 156.339L204.146 155.924L203.724 155.925C196.145 155.941 188.566 155.941 180.992 155.919ZM206.861 155.903L206.157 155.9L206.386 156.566C207.024 158.417 207.34 160.346 207.663 162.324L207.676 162.4C208.002 164.39 208.34 166.428 209.041 168.392L209.158 168.719L209.505 168.723C219.038 168.846 228.575 168.846 238.105 168.809L238.49 168.807L238.587 168.435C239.349 165.507 239.676 162.486 239.997 159.509C240.108 158.486 240.217 157.468 240.344 156.46L240.416 155.89L239.842 155.898C230.331 156.027 220.821 155.977 211.305 155.926C209.824 155.918 208.342 155.91 206.861 155.903ZM243.232 155.973L242.779 155.973L242.735 156.424C242.59 157.908 242.367 159.381 242.142 160.868C242.071 161.34 241.999 161.812 241.93 162.287C241.643 164.252 241.396 166.243 241.377 168.261L241.372 168.764L241.875 168.766C243.764 168.773 245.649 168.759 247.531 168.746C252.755 168.707 257.954 168.669 263.147 169.08L263.617 169.117L263.682 168.65C264.081 165.766 264.876 162.988 265.682 160.173C266.019 158.995 266.358 157.811 266.67 156.609L266.833 155.985L266.188 155.983C258.538 155.967 250.882 155.962 243.232 155.973ZM185.876 171.708L185.926 172.706C196.9 172.409 207.889 172.483 218.888 172.556C220.318 172.566 221.748 172.575 223.178 172.584C235.606 172.66 248.043 172.675 260.461 172.092L260.434 171.092C252.438 171.143 244.413 171.037 236.378 170.931C219.531 170.709 202.641 170.485 185.876 171.708Z" fill="white" stroke="black"/>
<mask id="path-4-inside-1_357_10068" fill="white">
<path d="M178.668 181.469C178.177 180.268 179.01 178.928 180.163 178.522C187.247 178.714 194.346 178.544 201.435 178.581C205.426 177.994 205.962 191.051 207.27 194.261C207.67 194.261 208.482 194.267 208.887 194.267C208.193 189.568 207.505 184.795 207.814 180.044C208.594 179.36 209.314 178.298 210.51 178.501C220.113 178.576 229.727 178.714 239.331 178.458C244.24 179.007 240.901 190.549 241.38 194.186L242.144 193.994C244.283 189.292 243.245 181.676 247.461 178.522C271.233 180.071 271.483 172.144 264.446 194.405C268.031 195.419 273.664 192.899 275.555 197.176C276.918 206.785 271.834 206.187 264.281 206.087C263.668 252.445 266.37 298.715 270.372 344.892C270.671 345.949 271.989 345.875 272.843 346.179C278.678 347.455 284.47 349.03 290 351.315C333.416 321.455 394.122 346.767 414.57 392.483C435.693 392.376 456.816 392.574 477.939 392.392C480.021 392.403 482.556 391.901 484.056 393.764C486.288 396.108 484.254 400.267 481.168 400.427C351.798 400.402 222.426 400.577 93.0557 400.449C63.6961 400.47 34.3364 400.369 4.97684 400.481C2.17965 400.758 -0.69758 397.988 0.151191 395.131C0.567562 393.241 2.68145 392.398 4.43769 392.467C22.7421 392.435 41.0465 392.398 59.3509 392.467C72.0517 363.588 107.648 350.974 136.214 363.637C148.856 354.943 162.833 348.595 177.606 344.492C181.299 298.507 183.559 252.296 183.008 206.119C175.178 206.015 170.328 207.127 171.724 197.064C173.705 193.067 179.506 195.331 183.083 194.331C181.925 189.942 180.072 185.778 178.668 181.469ZM182.736 181.731C183.868 185.981 185.458 190.102 186.665 194.347C192.355 194.416 198.056 194.491 203.741 194.261C202.743 190.086 201.676 185.922 200.523 181.784C194.592 181.704 188.661 181.875 182.736 181.731ZM211.423 181.848C211.546 186.029 211.615 190.204 211.983 194.373C220.701 194.352 229.418 194.475 238.13 194.283C238.071 190.124 238.151 185.965 238.183 181.811C229.263 181.763 220.338 181.795 211.423 181.848ZM245.566 194.341C250.727 194.32 255.895 194.512 261.057 194.331C261.852 190.06 263.512 186.029 264.671 181.854C259.402 181.806 254.139 181.784 248.875 181.891C246.985 185.735 246.638 190.198 245.566 194.341ZM174.755 198.361C174.771 199.808 174.782 201.309 175.391 202.665C178.396 202.851 181.407 202.611 184.417 202.691C185.341 203.594 186.254 204.661 186.195 206.049C186.238 219.215 186.222 232.386 186.243 245.552C185.171 278.362 183.783 311.147 180.622 343.803C182.49 344.001 184.204 343.216 185.998 342.896C186.088 343.12 186.275 343.568 186.366 343.793C186.307 343.542 186.19 343.045 186.131 342.799C187.316 342.778 188.49 342.575 189.617 342.196C189.906 296.645 189.969 251.048 189.361 205.51C189.27 204.245 190.369 203.476 191.234 202.771C195.43 203.492 203.786 200.353 203.48 207.144C203.943 251.641 202.401 296.846 204.083 341.016C205.936 296.635 204.298 251.268 204.805 206.567C204.633 204.613 206.266 202.51 208.359 202.819C212.128 202.894 215.907 202.782 219.676 202.867C224.598 265.72 219.704 332.912 221.314 397.176C222.281 397.187 223.252 397.197 224.229 397.192C224.03 334.188 224.316 271.173 224.122 208.164C223.951 206.3 223.941 203.738 225.964 202.894C229.866 202.702 233.79 202.873 237.697 202.798C239.768 202.606 241.242 204.757 241.124 206.663C241.965 250.992 240.729 295.386 241.642 339.698C243.005 295.419 241.568 250.913 242.214 206.567C242.192 204.982 242.95 203.22 244.647 202.873C247.926 203.372 257.843 200.849 257.768 205.611C257.876 251.311 257.801 297.029 257.566 342.719C260.518 343.689 263.799 343.798 266.849 344.599C266.891 344.54 266.982 344.428 267.03 344.369C266.986 337.805 265.892 331.285 265.535 324.738C265.77 324.695 266.235 324.61 266.47 324.567C266.229 324.541 265.76 324.492 265.525 324.466C262.338 285.231 260.605 246.002 260.977 206.637C260.731 200.479 267.909 203.724 271.53 202.504C272.539 201.389 272.101 199.531 272.069 198.105C239.655 198.012 207.15 197.334 174.755 198.361ZM192.633 206.268C193.081 251.451 192.74 296.64 192.852 341.817C195.515 341.764 198.142 341.331 200.779 340.979C199.943 296.028 201.174 251.021 200.261 206.081C197.715 205.831 195.174 206.236 192.633 206.268ZM207.9 206.135C207.687 250.883 207.823 295.647 207.713 340.402C211.241 340.13 214.797 340.365 218.309 339.933C218.314 295.337 218.24 250.736 218.336 206.14C214.861 205.916 211.375 206.167 207.9 206.135ZM227.389 244.489C227.323 276.336 227.571 308.204 227.25 340.05C231.057 340.365 234.884 340.434 238.701 340.584C238.041 295.768 239.216 250.902 238.151 206.103C234.596 206.049 231.041 206.183 227.485 206.119C227.234 218.905 227.464 231.697 227.389 244.489ZM245.421 206.135C245.491 251.115 245.48 296.1 245.352 341.08C248.485 341.481 251.603 341.983 254.747 342.314C254.678 296.907 254.774 251.505 254.704 206.097C251.608 206.049 248.512 206.039 245.421 206.135ZM319.333 342.906C310.763 344.898 301.704 347.557 294.543 352.751C315.289 361.234 334.484 374.291 347.587 392.718C368.448 391.908 389.384 392.799 410.268 392.408C394.721 359.19 356.207 335.837 319.333 342.906ZM204.676 344.241C204.451 361.886 204.681 379.536 204.403 397.181C209.031 397.213 213.665 397.213 218.298 397.16C218.202 379.221 218.432 361.277 218.181 343.344C213.703 343.426 209.034 343.111 204.676 344.241ZM227.379 343.403C227.437 361.315 227.234 379.227 227.459 397.139C231.585 397.256 235.717 397.197 239.848 397.144C240.084 379.464 239.978 361.759 239.784 344.076C235.674 343.515 231.516 343.446 227.379 343.403ZM196.887 344.524C195.649 345.186 194.181 344.898 192.836 345.02C192.635 362.397 192.675 379.811 192.83 397.192C195.483 397.176 198.142 397.283 200.8 397.171C200.715 379.584 200.784 361.998 200.683 344.412C199.412 344.417 198.152 344.465 196.887 344.524ZM244.989 344.673C245.074 362.164 245.058 379.659 245.192 397.155C248.395 397.24 251.603 397.197 254.811 397.171C254.731 380.06 254.848 362.948 254.763 345.837C251.566 345.063 248.261 344.844 244.989 344.673ZM180.649 347.209C178.51 363.761 177.619 380.524 176.213 397.16C180.67 397.245 185.122 397.224 189.579 397.165C189.494 380.086 189.585 363.007 189.654 345.923C186.601 345.976 183.691 347.055 180.649 347.209ZM257.795 346.457C257.822 363.354 257.726 380.252 257.87 397.144C287.169 397.214 316.474 397.326 345.773 397.085C345.65 395.932 344.358 396.066 343.509 395.895C320.75 395.355 297.925 395.725 275.149 395.809C268.852 395.403 271.446 381.065 269.933 376.333C269.219 366.953 268.621 357.567 267.537 348.213C264.302 347.562 261.089 346.766 257.795 346.457ZM174.206 348.998C162.2 352.564 150.75 358.09 140.415 365.148C152.397 372.564 163.596 383.2 167.485 397.133C169.3 397.213 171.115 397.219 172.935 397.144C174.356 380.901 175.531 364.66 177.163 348.437C176.17 348.582 175.161 348.683 174.206 348.998ZM270.836 349.169C271.37 355.81 272.411 362.425 272.422 369.099C276.302 363.261 281.288 358.378 286.295 353.52C281.326 351.551 276.02 350.459 270.836 349.169ZM273.078 374.892C273.765 380.669 273.33 386.762 275.229 392.302C297.724 392.601 320.252 392.468 342.757 392.355C329.681 374.912 310.607 362.71 290.459 354.929C283.536 360.471 277.226 366.974 273.078 374.892ZM95.4792 364.449C81.671 368.806 69.77 379.228 63.616 392.339C130.62 391.152 91.678 401.292 132.707 365.794C120.906 361.482 107.567 361.01 95.4792 364.449ZM113.778 391.223C112.737 392.985 111.237 394.41 109.647 395.676C94.3825 395.801 79.0769 395.649 63.8188 395.724C63.8242 396.06 63.8455 396.733 63.8562 397.069C97.2075 397.454 130.596 397.051 163.962 397.187C159.752 383.988 148.727 374.087 136.924 367.497C128.015 374.091 119.704 381.768 113.778 391.223ZM241.274 396.994C241.423 397.016 241.722 397.053 241.872 397.069C241.904 388.917 241.135 380.791 241.21 372.644C240.868 380.759 241.775 388.879 241.274 396.994ZM3.99461 395.67C3.97861 396.039 3.94124 396.776 3.92524 397.144C22.8046 397.214 41.6837 397.318 60.5573 397.091C60.3598 395.339 58.043 395.873 56.7992 395.692C39.1995 395.702 21.5891 395.66 3.99461 395.67ZM349.392 395.702C349.376 396.06 349.344 396.776 349.328 397.133C393.272 397.241 437.227 397.294 481.168 397.101C481.115 396.797 480.998 396.183 480.944 395.879C437.118 395.3 393.232 395.906 349.392 395.702Z"/>
</mask>
<path d="M178.668 181.469C178.177 180.268 179.01 178.928 180.163 178.522C187.247 178.714 194.346 178.544 201.435 178.581C205.426 177.994 205.962 191.051 207.27 194.261C207.67 194.261 208.482 194.267 208.887 194.267C208.193 189.568 207.505 184.795 207.814 180.044C208.594 179.36 209.314 178.298 210.51 178.501C220.113 178.576 229.727 178.714 239.331 178.458C244.24 179.007 240.901 190.549 241.38 194.186L242.144 193.994C244.283 189.292 243.245 181.676 247.461 178.522C271.233 180.071 271.483 172.144 264.446 194.405C268.031 195.419 273.664 192.899 275.555 197.176C276.918 206.785 271.834 206.187 264.281 206.087C263.668 252.445 266.37 298.715 270.372 344.892C270.671 345.949 271.989 345.875 272.843 346.179C278.678 347.455 284.47 349.03 290 351.315C333.416 321.455 394.122 346.767 414.57 392.483C435.693 392.376 456.816 392.574 477.939 392.392C480.021 392.403 482.556 391.901 484.056 393.764C486.288 396.108 484.254 400.267 481.168 400.427C351.798 400.402 222.426 400.577 93.0557 400.449C63.6961 400.47 34.3364 400.369 4.97684 400.481C2.17965 400.758 -0.69758 397.988 0.151191 395.131C0.567562 393.241 2.68145 392.398 4.43769 392.467C22.7421 392.435 41.0465 392.398 59.3509 392.467C72.0517 363.588 107.648 350.974 136.214 363.637C148.856 354.943 162.833 348.595 177.606 344.492C181.299 298.507 183.559 252.296 183.008 206.119C175.178 206.015 170.328 207.127 171.724 197.064C173.705 193.067 179.506 195.331 183.083 194.331C181.925 189.942 180.072 185.778 178.668 181.469ZM182.736 181.731C183.868 185.981 185.458 190.102 186.665 194.347C192.355 194.416 198.056 194.491 203.741 194.261C202.743 190.086 201.676 185.922 200.523 181.784C194.592 181.704 188.661 181.875 182.736 181.731ZM211.423 181.848C211.546 186.029 211.615 190.204 211.983 194.373C220.701 194.352 229.418 194.475 238.13 194.283C238.071 190.124 238.151 185.965 238.183 181.811C229.263 181.763 220.338 181.795 211.423 181.848ZM245.566 194.341C250.727 194.32 255.895 194.512 261.057 194.331C261.852 190.06 263.512 186.029 264.671 181.854C259.402 181.806 254.139 181.784 248.875 181.891C246.985 185.735 246.638 190.198 245.566 194.341ZM174.755 198.361C174.771 199.808 174.782 201.309 175.391 202.665C178.396 202.851 181.407 202.611 184.417 202.691C185.341 203.594 186.254 204.661 186.195 206.049C186.238 219.215 186.222 232.386 186.243 245.552C185.171 278.362 183.783 311.147 180.622 343.803C182.49 344.001 184.204 343.216 185.998 342.896C186.088 343.12 186.275 343.568 186.366 343.793C186.307 343.542 186.19 343.045 186.131 342.799C187.316 342.778 188.49 342.575 189.617 342.196C189.906 296.645 189.969 251.048 189.361 205.51C189.27 204.245 190.369 203.476 191.234 202.771C195.43 203.492 203.786 200.353 203.48 207.144C203.943 251.641 202.401 296.846 204.083 341.016C205.936 296.635 204.298 251.268 204.805 206.567C204.633 204.613 206.266 202.51 208.359 202.819C212.128 202.894 215.907 202.782 219.676 202.867C224.598 265.72 219.704 332.912 221.314 397.176C222.281 397.187 223.252 397.197 224.229 397.192C224.03 334.188 224.316 271.173 224.122 208.164C223.951 206.3 223.941 203.738 225.964 202.894C229.866 202.702 233.79 202.873 237.697 202.798C239.768 202.606 241.242 204.757 241.124 206.663C241.965 250.992 240.729 295.386 241.642 339.698C243.005 295.419 241.568 250.913 242.214 206.567C242.192 204.982 242.95 203.22 244.647 202.873C247.926 203.372 257.843 200.849 257.768 205.611C257.876 251.311 257.801 297.029 257.566 342.719C260.518 343.689 263.799 343.798 266.849 344.599C266.891 344.54 266.982 344.428 267.03 344.369C266.986 337.805 265.892 331.285 265.535 324.738C265.77 324.695 266.235 324.61 266.47 324.567C266.229 324.541 265.76 324.492 265.525 324.466C262.338 285.231 260.605 246.002 260.977 206.637C260.731 200.479 267.909 203.724 271.53 202.504C272.539 201.389 272.101 199.531 272.069 198.105C239.655 198.012 207.15 197.334 174.755 198.361ZM192.633 206.268C193.081 251.451 192.74 296.64 192.852 341.817C195.515 341.764 198.142 341.331 200.779 340.979C199.943 296.028 201.174 251.021 200.261 206.081C197.715 205.831 195.174 206.236 192.633 206.268ZM207.9 206.135C207.687 250.883 207.823 295.647 207.713 340.402C211.241 340.13 214.797 340.365 218.309 339.933C218.314 295.337 218.24 250.736 218.336 206.14C214.861 205.916 211.375 206.167 207.9 206.135ZM227.389 244.489C227.323 276.336 227.571 308.204 227.25 340.05C231.057 340.365 234.884 340.434 238.701 340.584C238.041 295.768 239.216 250.902 238.151 206.103C234.596 206.049 231.041 206.183 227.485 206.119C227.234 218.905 227.464 231.697 227.389 244.489ZM245.421 206.135C245.491 251.115 245.48 296.1 245.352 341.08C248.485 341.481 251.603 341.983 254.747 342.314C254.678 296.907 254.774 251.505 254.704 206.097C251.608 206.049 248.512 206.039 245.421 206.135ZM319.333 342.906C310.763 344.898 301.704 347.557 294.543 352.751C315.289 361.234 334.484 374.291 347.587 392.718C368.448 391.908 389.384 392.799 410.268 392.408C394.721 359.19 356.207 335.837 319.333 342.906ZM204.676 344.241C204.451 361.886 204.681 379.536 204.403 397.181C209.031 397.213 213.665 397.213 218.298 397.16C218.202 379.221 218.432 361.277 218.181 343.344C213.703 343.426 209.034 343.111 204.676 344.241ZM227.379 343.403C227.437 361.315 227.234 379.227 227.459 397.139C231.585 397.256 235.717 397.197 239.848 397.144C240.084 379.464 239.978 361.759 239.784 344.076C235.674 343.515 231.516 343.446 227.379 343.403ZM196.887 344.524C195.649 345.186 194.181 344.898 192.836 345.02C192.635 362.397 192.675 379.811 192.83 397.192C195.483 397.176 198.142 397.283 200.8 397.171C200.715 379.584 200.784 361.998 200.683 344.412C199.412 344.417 198.152 344.465 196.887 344.524ZM244.989 344.673C245.074 362.164 245.058 379.659 245.192 397.155C248.395 397.24 251.603 397.197 254.811 397.171C254.731 380.06 254.848 362.948 254.763 345.837C251.566 345.063 248.261 344.844 244.989 344.673ZM180.649 347.209C178.51 363.761 177.619 380.524 176.213 397.16C180.67 397.245 185.122 397.224 189.579 397.165C189.494 380.086 189.585 363.007 189.654 345.923C186.601 345.976 183.691 347.055 180.649 347.209ZM257.795 346.457C257.822 363.354 257.726 380.252 257.87 397.144C287.169 397.214 316.474 397.326 345.773 397.085C345.65 395.932 344.358 396.066 343.509 395.895C320.75 395.355 297.925 395.725 275.149 395.809C268.852 395.403 271.446 381.065 269.933 376.333C269.219 366.953 268.621 357.567 267.537 348.213C264.302 347.562 261.089 346.766 257.795 346.457ZM174.206 348.998C162.2 352.564 150.75 358.09 140.415 365.148C152.397 372.564 163.596 383.2 167.485 397.133C169.3 397.213 171.115 397.219 172.935 397.144C174.356 380.901 175.531 364.66 177.163 348.437C176.17 348.582 175.161 348.683 174.206 348.998ZM270.836 349.169C271.37 355.81 272.411 362.425 272.422 369.099C276.302 363.261 281.288 358.378 286.295 353.52C281.326 351.551 276.02 350.459 270.836 349.169ZM273.078 374.892C273.765 380.669 273.33 386.762 275.229 392.302C297.724 392.601 320.252 392.468 342.757 392.355C329.681 374.912 310.607 362.71 290.459 354.929C283.536 360.471 277.226 366.974 273.078 374.892ZM95.4792 364.449C81.671 368.806 69.77 379.228 63.616 392.339C130.62 391.152 91.678 401.292 132.707 365.794C120.906 361.482 107.567 361.01 95.4792 364.449ZM113.778 391.223C112.737 392.985 111.237 394.41 109.647 395.676C94.3825 395.801 79.0769 395.649 63.8188 395.724C63.8242 396.06 63.8455 396.733 63.8562 397.069C97.2075 397.454 130.596 397.051 163.962 397.187C159.752 383.988 148.727 374.087 136.924 367.497C128.015 374.091 119.704 381.768 113.778 391.223ZM241.274 396.994C241.423 397.016 241.722 397.053 241.872 397.069C241.904 388.917 241.135 380.791 241.21 372.644C240.868 380.759 241.775 388.879 241.274 396.994ZM3.99461 395.67C3.97861 396.039 3.94124 396.776 3.92524 397.144C22.8046 397.214 41.6837 397.318 60.5573 397.091C60.3598 395.339 58.043 395.873 56.7992 395.692C39.1995 395.702 21.5891 395.66 3.99461 395.67ZM349.392 395.702C349.376 396.06 349.344 396.776 349.328 397.133C393.272 397.241 437.227 397.294 481.168 397.101C481.115 396.797 480.998 396.183 480.944 395.879C437.118 395.3 393.232 395.906 349.392 395.702Z" fill="white" stroke="black" stroke-width="2" mask="url(#path-4-inside-1_357_10068)"/>
<path d="M68.3029 265.4C75.538 255.356 91.4219 253.49 100.873 261.42C101.668 262.303 102.859 262.229 103.725 261.794C107.44 260.295 111.411 260.053 115.495 260.122C116.745 260.143 118.01 260.193 119.282 260.244C122.14 260.358 125.028 260.473 127.829 260.256L127.845 260.255L127.861 260.253C128.37 260.181 128.782 260.386 129.101 260.766C129.37 261.086 129.557 261.516 129.639 261.954C129.553 262.006 129.468 262.059 129.388 262.11L129.358 262.129C129.172 262.246 129.003 262.352 128.833 262.441C128.496 262.617 128.202 262.704 127.892 262.663L127.849 262.658L127.806 262.66C125.247 262.775 122.672 262.701 120.072 262.626C118.758 262.588 117.439 262.55 116.112 262.536C112.183 262.495 108.238 262.669 104.405 263.724L103.779 263.896L104.106 264.457C108.055 271.246 108.96 275.617 108.424 278.083C108.162 279.289 107.561 280.02 106.814 280.402C106.051 280.791 105.065 280.852 103.986 280.571C101.822 280.008 99.4404 278.104 98.219 275.243C97.008 272.406 96.9299 268.603 99.421 264.223L99.6145 263.883L99.3308 263.614C94.7073 259.22 88.5524 258.043 82.803 259.24C77.1258 260.422 71.8056 263.925 68.6771 268.991C68.1091 269.112 67.6517 269.024 67.2458 268.816C66.776 268.575 66.3472 268.16 65.905 267.627C65.6858 267.363 65.4712 267.08 65.2493 266.786L65.2039 266.726C64.9984 266.454 64.7859 266.172 64.5666 265.901C64.1073 265.335 63.5874 264.778 62.9572 264.396C59.5526 261.531 55.3362 259.794 51.0071 259.047L50.9871 259.043L50.9669 259.042C44.267 258.438 37.4761 258.448 30.8034 259.3L30.789 259.302L30.7748 259.304C30.6701 259.324 30.5651 259.344 30.46 259.364C29.6344 259.521 28.7997 259.68 28.015 259.654C27.2546 259.628 26.5987 259.43 26.0898 258.906C26.1158 258.847 26.1413 258.789 26.1661 258.731C26.1859 258.686 26.2053 258.641 26.2242 258.598C26.3109 258.4 26.3939 258.219 26.4868 258.054C26.6561 257.754 26.8413 257.536 27.0909 257.4C27.5985 257.346 28.1113 257.291 28.6286 257.235C35.0559 256.538 42.1839 255.766 48.8819 256.421C56.138 257.131 62.8143 259.509 67.5056 265.419L67.9166 265.937L68.3029 265.4ZM101.814 266.606L101.416 266.135L101.037 266.621C99.4595 268.647 99.3743 271.215 100.217 273.422C101.057 275.624 102.845 277.539 105.126 278.279L105.693 278.464L105.775 277.873C106.348 273.754 104.338 269.601 101.814 266.606Z" fill="white" stroke="black"/>
<path d="M401.387 302.559C403.965 302.648 406.343 302.7 408.235 302.592C408.307 302.698 408.382 302.8 408.453 302.895C408.475 302.925 408.497 302.954 408.519 302.983C408.628 303.128 408.726 303.259 408.815 303.395C408.988 303.66 409.082 303.88 409.087 304.101C408.589 304.624 408.05 304.993 407.492 304.976L407.476 304.975L407.46 304.976C404.423 305.072 401.342 304.966 398.234 304.859C396.885 304.812 395.531 304.766 394.173 304.736C389.707 304.636 385.23 304.715 380.906 305.583L380.46 305.673L380.507 306.125C380.598 307.004 380.781 307.881 380.957 308.727C381.014 308.999 381.07 309.268 381.122 309.533C381.328 310.58 381.481 311.593 381.429 312.615C380.83 313.206 380.386 313.38 380.083 313.387C379.778 313.394 379.476 313.234 379.159 312.849C378.841 312.461 378.562 311.905 378.316 311.275C378.073 310.65 377.875 309.988 377.705 309.403L377.699 309.383L377.691 309.363C374.966 302.307 367.702 298.913 360.639 299.073C353.61 299.233 346.602 302.918 344.296 310.221C344.008 310.489 343.644 310.526 343.281 310.39C342.868 310.236 342.516 309.872 342.4 309.457L342.391 309.425L342.378 309.395C340.758 305.61 338.523 303.03 335.871 301.28C333.225 299.533 330.193 298.631 327.006 298.152C323.822 297.673 320.455 297.613 317.134 297.571C316.987 297.57 316.839 297.568 316.691 297.566C313.604 297.528 310.567 297.49 307.709 297.142C307.477 296.601 307.612 296.098 307.945 295.719C308.337 295.273 309.001 295.01 309.67 295.134L309.705 295.141L309.739 295.142C311.629 295.227 313.529 295.228 315.421 295.218C315.717 295.217 316.013 295.215 316.309 295.213C317.906 295.203 319.496 295.194 321.081 295.227C324.832 295.305 328.52 295.623 332.095 296.732C336.419 298.461 340.864 300.962 342.798 305.202L343.173 306.025L343.67 305.27C347.443 299.547 353.864 296.802 360.483 296.729C367.107 296.656 373.863 299.261 378.251 304.154L378.535 304.471L378.893 304.241C380.204 303.402 382.205 302.884 384.655 302.594C387.091 302.305 389.909 302.249 392.806 302.288C394.949 302.318 397.124 302.4 399.214 302.479C399.951 302.507 400.677 302.534 401.387 302.559Z" fill="white" stroke="black"/>
</g>
<defs>
<clipPath id="clip0_357_10068">
<rect width="485" height="400" fill="white" transform="translate(0 0.5)"/>
</clipPath>
</defs>
</svg>
