<svg width="158" height="32" viewBox="0 0 158 32" fill="none" xmlns="http://www.w3.org/2000/svg">
<path fill-rule="evenodd" clip-rule="evenodd" d="M14.3119 31.5877C14.0596 31.9876 13.5107 32.1193 13.0858 31.8819L1.37344 25.3365C0.948563 25.099 0.808638 24.5823 1.06091 24.1824C1.31318 23.7825 1.86212 23.6508 2.28699 23.8883L13.9994 30.4337C14.4242 30.6711 14.5642 31.1878 14.3119 31.5877ZM16.491 15.1387V27.0711C15.9328 27.3661 15.5557 27.9286 15.5557 28.574C15.5557 29.2195 15.9328 29.782 16.491 30.077V31.1577C16.491 31.6228 16.8916 31.9998 17.3857 31.9998C17.8798 31.9998 18.2804 31.6228 18.2804 31.1577V30.077C18.8386 29.782 19.2158 29.2195 19.2158 28.574C19.2158 27.9286 18.8386 27.3661 18.2804 27.0711V15.1387C18.2804 14.6737 17.8798 14.2966 17.3857 14.2966C16.8916 14.2966 16.491 14.6737 16.491 15.1387ZM21.7778 17.0526C22.272 17.0526 22.6725 17.4296 22.6725 17.8947L22.6725 24.8318C23.2307 25.1268 23.6079 25.6894 23.6079 26.3348C23.6079 26.9802 23.2307 27.5427 22.6725 27.8377V28.9185C22.6725 29.3836 22.272 29.7606 21.7778 29.7606C21.2837 29.7606 20.8831 29.3836 20.8831 28.9185V27.8377C20.3249 27.5427 19.9478 26.9802 19.9478 26.3348C19.9478 25.6894 20.3249 25.1268 20.8831 24.8318L20.8831 17.8947C20.8831 17.4296 21.2837 17.0526 21.7778 17.0526ZM14.9144 4.25206C14.4895 4.01462 13.9406 4.14632 13.6883 4.54622C13.436 4.94612 13.5759 5.46278 14.0008 5.70022L25.7132 12.2456C26.1381 12.4831 26.687 12.3514 26.9393 11.9515C27.1916 11.5516 27.0516 11.0349 26.6268 10.7975L14.9144 4.25206ZM14.9144 0.118147C14.4895 -0.119293 13.9406 0.0124054 13.6883 0.412306C13.436 0.812204 13.5759 1.32887 14.0008 1.56631L25.7132 8.11171C26.1381 8.34915 26.687 8.21745 26.9393 7.81755C27.1916 7.41765 27.0516 6.90099 26.6268 6.66355L14.9144 0.118147ZM13.6936 8.67184C13.9507 8.27469 14.5012 8.14893 14.9232 8.39094L24.919 14.1241C26.2516 14.8884 27.0647 16.2509 27.0647 17.7196V23.1094C27.6228 23.4044 28 23.9669 28 24.6124C28 25.2578 27.6228 25.8203 27.0647 26.1153V26.8515C27.0647 27.3166 26.6641 27.6936 26.17 27.6936C25.6758 27.6936 25.2753 27.3166 25.2753 26.8515V26.1153C24.7171 25.8203 24.3399 25.2578 24.3399 24.6124C24.3399 23.9669 24.7171 23.4044 25.2753 23.1094V17.7196C25.2753 16.8384 24.7874 16.0209 23.9879 15.5623L13.992 9.82915C13.5701 9.58713 13.4364 9.06899 13.6936 8.67184ZM13.0857 27.7479C13.5106 27.9854 14.0595 27.8537 14.3118 27.4538C14.564 27.0539 14.4241 26.5372 13.9992 26.2998L2.28686 19.7544C1.86199 19.5169 1.31305 19.6486 1.06078 20.0485C0.808508 20.4484 0.948433 20.9651 1.37331 21.2025L13.0857 27.7479ZM6.22236 14.9474C5.72824 14.9474 5.32767 14.5704 5.32767 14.1053V7.34035C4.7694 7.04537 4.39218 6.48282 4.39218 5.83734C4.39218 5.19186 4.7694 4.62931 5.32767 4.33433V3.08146C5.32767 2.61638 5.72824 2.23936 6.22236 2.23936C6.71649 2.23936 7.11706 2.61638 7.11706 3.08146V4.33446C7.67519 4.62948 8.05229 5.19196 8.05229 5.83734C8.05229 6.48272 7.67519 7.0452 7.11706 7.34022V14.1053C7.11706 14.5704 6.71649 14.9474 6.22236 14.9474ZM11.5092 16.8613L11.5092 5.10115C12.0674 4.80615 12.4445 4.24363 12.4445 3.59821C12.4445 2.95278 12.0674 2.39026 11.5092 2.09526V0.842264C11.5092 0.377186 11.1086 0.000165939 10.6145 0.000165939C10.1203 0.000165939 9.71978 0.377184 9.71978 0.842264V2.09526C9.16158 2.39027 8.78442 2.95278 8.78442 3.59821C8.78442 4.24363 9.16158 4.80614 9.71978 5.10115V16.8613C9.71978 17.3263 10.1203 17.7034 10.6145 17.7034C11.1086 17.7034 11.5092 17.3263 11.5092 16.8613ZM14.3065 23.3282C14.0494 23.7253 13.4989 23.8511 13.0769 23.6091L3.08101 17.8759C1.7485 17.1116 0.9354 15.7491 0.9354 14.2804V9.06281C0.377214 8.7678 6.29425e-05 8.20529 6.29425e-05 7.55988C6.29425e-05 6.91446 0.377214 6.35195 0.9354 6.05694V5.14848C0.9354 4.6834 1.33597 4.30638 1.8301 4.30638C2.32422 4.30638 2.72479 4.6834 2.72479 5.14848V6.05692C3.283 6.35192 3.66018 6.91444 3.66018 7.55988C3.66018 8.20531 3.283 8.76784 2.72479 9.06284V14.2804C2.72479 15.1616 3.21265 15.9791 4.01216 16.4377L14.008 22.1709C14.43 22.4129 14.5636 22.931 14.3065 23.3282Z" fill="#98EF7E"/>
<path fill-rule="evenodd" clip-rule="evenodd" d="M131.999 4C131.263 4 130.666 4.59694 130.666 5.33331C130.666 6.06968 131.263 6.66662 131.999 6.66662H151.998L151.998 16.2375H131.999C131.262 16.2375 130.666 16.8345 130.666 17.5708C130.666 17.6564 130.674 17.7402 130.689 17.8213C130.567 18.4561 130.922 19.1027 131.549 19.3274L155.549 27.9216C156.242 28.1698 157.005 27.8091 157.254 27.1158C157.502 26.4226 157.141 25.6593 156.448 25.4111L138.277 18.9041H153.322L153.332 18.9042C153.87 18.9042 154.334 18.5852 154.544 18.1261C154.604 17.9963 154.643 17.8553 154.658 17.7071C154.663 17.6623 154.665 17.6169 154.665 17.5709V17.5708L154.665 6.32556C154.665 6.15032 154.631 5.98297 154.57 5.82969C154.631 5.67627 154.665 5.50875 154.665 5.33331C154.665 4.59694 154.068 4 153.332 4H131.999Z" fill="#98EF7E"/>
<path fill-rule="evenodd" clip-rule="evenodd" d="M44 5.33331C44 4.59694 44.5969 4 45.3333 4H66.6663C67.4027 4 67.9996 4.59694 67.9996 5.33331C67.9996 6.06968 67.4027 6.66662 66.6663 6.66662H46.6666L46.6666 25.333H66.6663C67.4027 25.333 67.9996 25.9299 67.9996 26.6663C67.9996 27.4027 67.4027 27.9996 66.6663 27.9996H45.3333C44.5969 27.9996 44 27.4027 44 26.6663V5.33331Z" fill="#98EF7E"/>
<path fill-rule="evenodd" clip-rule="evenodd" d="M87.9993 4C87.263 4 86.666 4.59694 86.666 5.33331L86.6661 5.34587L86.6661 26.6663C86.6661 26.8504 86.7034 27.0258 86.7709 27.1853C86.9733 27.6638 87.4471 27.9996 87.9994 27.9996H114.971C115.707 27.9996 116.304 27.4027 116.304 26.6663C116.304 25.9299 115.707 25.333 114.971 25.333H89.3327L89.3327 6.66662H108.929L108.929 17.9119C108.929 18.6483 109.526 19.2452 110.263 19.2452C110.999 19.2452 111.596 18.6483 111.596 17.9119L111.596 5.33331C111.596 4.59694 110.999 4 110.263 4C110.099 4 109.942 4.02947 109.797 4.08338C109.653 4.02947 109.496 4 109.332 4H87.9994H87.9993Z" fill="#98EF7E"/>
</svg>
