<svg width="93" height="92" viewBox="0 0 93 92" fill="none" xmlns="http://www.w3.org/2000/svg">
<rect x="0.332031" width="92" height="92" rx="46" fill="#98EF7E" fill-opacity="0.04"/>
<rect x="0.332031" width="92" height="92" rx="46" fill="black" fill-opacity="0.2"/>
<rect x="0.832031" y="0.5" width="91" height="91" rx="45.5" stroke="#98EF7E" stroke-opacity="0.24"/>
<path d="M70.7803 42.7993L37.0376 22.178C36.4692 21.8304 35.8185 21.6406 35.1525 21.628C34.4864 21.6154 33.829 21.7805 33.2479 22.1063C32.6668 22.4321 32.183 22.9068 31.8462 23.4816C31.5095 24.0565 31.332 24.7106 31.332 25.3768V66.6232C31.3326 67.2892 31.5104 67.943 31.8473 68.5175C32.1841 69.092 32.6679 69.5665 33.2488 69.8922C33.8297 70.2179 34.4868 70.383 35.1527 70.3707C35.8186 70.3584 36.4691 70.169 37.0376 69.822L70.7803 49.2007C71.3284 48.8655 71.7813 48.3951 72.0955 47.8347C72.4097 47.2743 72.5747 46.6425 72.5747 46C72.5747 45.3575 72.4097 44.7258 72.0955 44.1653C71.7813 43.6049 71.3284 43.1345 70.7803 42.7993Z" fill="#98EF7E"/>
</svg>
