<svg width="49" height="48" viewBox="0 0 49 48" fill="none" xmlns="http://www.w3.org/2000/svg">
<circle cx="24.25" cy="24" r="23.5" stroke="#98EF7E" stroke-opacity="0.24"/>
<g clip-path="url(#clip0_369_14819)">
<path d="M30.2024 14.4529C28.5927 12.8549 26.4579 11.985 24.1876 12.0002C19.5769 12.0334 15.8146 15.8118 15.8008 20.4232C15.7964 21.9175 16.1872 23.3872 16.9312 24.6733C17.6527 25.9205 18.6883 26.9702 19.9259 27.7089C20.5536 28.0835 20.9436 28.7689 20.9436 29.4977V30.4999C20.6513 30.6696 20.4538 30.9853 20.4538 31.3469C20.4538 31.5785 20.535 31.7913 20.6699 31.9592C20.535 32.127 20.4538 32.3398 20.4538 32.5714C20.4538 32.803 20.535 33.0158 20.6699 33.1836C20.535 33.3515 20.4538 33.5642 20.4538 33.7959C20.4538 34.336 20.8933 34.7754 21.4334 34.7754H21.797L22.2868 36H26.2128L26.7026 34.7755H27.0661C27.6063 34.7755 28.0457 34.336 28.0457 33.7959C28.0457 33.5643 27.9646 33.3515 27.8296 33.1837C27.9646 33.0158 28.0457 32.803 28.0457 32.5714C28.0457 32.3398 27.9646 32.1271 27.8296 31.9592C27.9646 31.7913 28.0457 31.5786 28.0457 31.347C28.0457 30.9853 27.8483 30.6696 27.5559 30.4999V29.4977C27.5559 28.7701 27.9494 28.0825 28.5828 27.7035C29.8144 26.9664 30.8456 25.9206 31.5651 24.6792C32.3068 23.3993 32.6988 21.9365 32.6988 20.449C32.6988 18.1806 31.8122 16.0512 30.2024 14.4529ZM25.7154 35.2652H22.7842L22.5883 34.7754H25.9112L25.7154 35.2652ZM27.0661 34.0408H21.4335C21.2984 34.0408 21.1886 33.9309 21.1886 33.7959C21.1886 33.6609 21.2985 33.551 21.4335 33.551H27.0661C27.2011 33.551 27.311 33.6609 27.311 33.7959C27.311 33.9309 27.2011 34.0408 27.0661 34.0408ZM27.0661 32.8163H21.4335C21.2984 32.8163 21.1886 32.7064 21.1886 32.5714C21.1886 32.4364 21.2985 32.3265 21.4335 32.3265H27.0661C27.2011 32.3265 27.311 32.4364 27.311 32.5714C27.311 32.7064 27.2011 32.8163 27.0661 32.8163ZM27.0661 31.5918H21.4335C21.2984 31.5918 21.1886 31.4819 21.1886 31.3469C21.1886 31.2119 21.2985 31.102 21.4335 31.102H27.0661C27.2011 31.102 27.311 31.2119 27.311 31.3469C27.311 31.4819 27.2011 31.5918 27.0661 31.5918ZM22.8539 30.3673V24.1959C22.8539 24.0878 22.9418 23.9999 23.0498 23.9999C23.1578 23.9999 23.2457 24.0878 23.2457 24.1959V30.3673H22.8539ZM25.2539 30.3673V24.1959C25.2539 24.0878 25.3418 23.9999 25.4498 23.9999C25.5579 23.9999 25.6457 24.0878 25.6457 24.1959V30.3673H25.2539ZM30.9293 24.3107C30.2722 25.4446 29.3303 26.3997 28.2054 27.0729C27.3516 27.5839 26.8212 28.513 26.8212 29.4977V30.3673H26.3804V24.1959C26.3804 23.6827 25.9629 23.2652 25.4498 23.2652C24.9366 23.2652 24.5191 23.6827 24.5191 24.1959V30.3673H23.9804V24.1959C23.9804 23.6827 23.5629 23.2652 23.0498 23.2652C22.5366 23.2652 22.1191 23.6827 22.1191 24.1959V30.3673H21.6783V29.4976C21.6783 28.5116 21.1511 27.5844 20.3024 27.0779C19.172 26.4033 18.2261 25.4446 17.5672 24.3054C16.8883 23.1316 16.5315 21.7899 16.5355 20.4253C16.5481 16.2151 19.9832 12.7651 24.1929 12.7348C24.2122 12.7347 24.2311 12.7346 24.2503 12.7346C26.3006 12.7346 28.2288 13.5287 29.6849 14.9743C31.1547 16.4336 31.9641 18.3778 31.9641 20.4489C31.9641 21.8072 31.6063 23.1426 30.9293 24.3107Z" fill="#98EF7E"/>
</g>
<defs>
<clipPath id="clip0_369_14819">
<rect width="24" height="24" fill="white" transform="translate(12.25 12)"/>
</clipPath>
</defs>
</svg>
