<svg width="378" height="60" viewBox="0 0 378 60" fill="none" xmlns="http://www.w3.org/2000/svg">
<g opacity="0.5">
<mask id="path-1-inside-1_384_17168" fill="white">
<path fill-rule="evenodd" clip-rule="evenodd" d="M350.721 4.4284L377.5 30L350.721 55.5716C347.744 58.414 343.787 60 339.671 60H38.329C34.2132 60 30.2558 58.414 27.2791 55.5716L0.5 30L27.2791 4.4284C30.2558 1.58602 34.2132 0 38.329 0H339.671C343.787 0 347.744 1.58602 350.721 4.4284Z"/>
</mask>
<path d="M377.5 30L378.191 30.7232L378.948 30L378.191 29.2768L377.5 30ZM350.721 4.4284L351.411 3.70518V3.70518L350.721 4.4284ZM350.721 55.5716L351.411 56.2948V56.2948L350.721 55.5716ZM27.2791 55.5716L27.9698 54.8484L27.2791 55.5716ZM0.5 30L-0.190613 29.2768L-0.94799 30L-0.190613 30.7232L0.5 30ZM27.2791 4.4284L27.9698 5.15163V5.15163L27.2791 4.4284ZM378.191 29.2768L351.411 3.70518L350.03 5.15163L376.809 30.7232L378.191 29.2768ZM376.809 29.2768L350.03 54.8484L351.411 56.2948L378.191 30.7232L376.809 29.2768ZM350.03 54.8484C347.24 57.5131 343.53 59 339.671 59V61C344.044 61 348.249 59.3149 351.411 56.2948L350.03 54.8484ZM339.671 59H38.329V61H339.671V59ZM38.329 59C34.4704 59 30.7603 57.5131 27.9698 54.8484L26.5885 56.2948C29.7512 59.3149 33.956 61 38.329 61V59ZM27.9698 54.8484L1.19061 29.2768L-0.190613 30.7232L26.5885 56.2948L27.9698 54.8484ZM26.5885 3.70518L-0.190613 29.2768L1.19061 30.7232L27.9698 5.15163L26.5885 3.70518ZM38.329 -1C33.956 -1 29.7512 0.685144 26.5885 3.70518L27.9698 5.15163C30.7603 2.48689 34.4704 1 38.329 1V-1ZM339.671 -1H38.329V1H339.671V-1ZM351.411 3.70518C348.249 0.685146 344.044 -1 339.671 -1V1C343.53 1 347.24 2.48689 350.03 5.15163L351.411 3.70518Z" fill="url(#paint0_linear_384_17168)" mask="url(#path-1-inside-1_384_17168)"/>
</g>
<defs>
<linearGradient id="paint0_linear_384_17168" x1="27.9343" y1="60" x2="361.458" y2="-29.669" gradientUnits="userSpaceOnUse">
<stop stop-color="#424242"/>
<stop offset="1" stop-color="#353535"/>
</linearGradient>
</defs>
</svg>
