<svg width="111" height="32" viewBox="0 0 111 32" fill="none" xmlns="http://www.w3.org/2000/svg">
<path fill-rule="evenodd" clip-rule="evenodd" d="M13.4664 2.29852C13.1326 2.22927 12.7882 2.22927 12.4543 2.29852C12.0684 2.37856 11.7235 2.5734 11.4492 2.7283L11.3745 2.77041L2.08005 7.97763C2.05436 7.99203 2.02788 8.00673 2.00075 8.0218C1.71045 8.18305 1.34543 8.3858 1.06512 8.69255C0.822777 8.95775 0.639375 9.27208 0.527183 9.61452C0.397417 10.0106 0.398935 10.4308 0.400142 10.7651C0.400255 10.7963 0.400365 10.8268 0.400365 10.8564V21.1377C0.400365 21.1673 0.400255 21.1978 0.400142 21.2291C0.398935 21.5633 0.397417 21.9835 0.527183 22.3796C0.639376 22.722 0.822779 23.0364 1.06512 23.3016C1.34543 23.6083 1.71045 23.8111 2.00075 23.9723C2.02788 23.9874 2.05436 24.0021 2.08005 24.0165L11.3745 29.2237L11.4492 29.2658C11.7235 29.4207 12.0684 29.6156 12.4543 29.6956C12.7882 29.7648 13.1326 29.7648 13.4664 29.6956C13.8524 29.6156 14.1973 29.4207 14.4716 29.2658L14.5463 29.2237L23.8407 24.0165C23.8521 24.0101 23.8636 24.0037 23.8752 23.9972C23.8899 23.989 23.9049 23.9807 23.92 23.9723C24.2103 23.8111 24.5753 23.6083 24.8556 23.3016C25.098 23.0364 25.2814 22.722 25.3936 22.3796C25.5233 21.9835 25.5218 21.5633 25.5206 21.2291C25.5205 21.1978 25.5204 21.1673 25.5204 21.1377V10.8564C25.5204 10.8268 25.5205 10.7963 25.5206 10.7651C25.5218 10.4308 25.5233 10.0106 25.3936 9.61451C25.2814 9.27208 25.098 8.95775 24.8556 8.69254C24.5753 8.3858 24.2103 8.18305 23.92 8.0218L23.919 8.02123C23.8922 8.00636 23.8661 7.99184 23.8407 7.97763L14.5463 2.77041L14.4715 2.7283C14.1973 2.5734 13.8524 2.37856 13.4664 2.29852ZM12.5944 4.98486C12.7847 4.87823 12.8819 4.82435 12.9544 4.78909L12.9604 4.78619L12.9664 4.78909C13.0389 4.82435 13.136 4.87823 13.3264 4.98486L21.6781 9.66393L12.9603 14.5481L4.24265 9.66395L12.5944 4.98486ZM2.91237 11.8166L11.7043 16.7423L11.7044 26.5106L3.29999 21.802C3.09909 21.6895 2.99652 21.6314 2.92455 21.5852L2.91848 21.5812L2.91802 21.574C2.91289 21.4881 2.91237 21.3695 2.91237 21.1377V11.8166Z" fill="white"/>
<path d="M36.9516 20.2302H40.9498V22.6062H33.8994V9.97023H36.9516V20.2302Z" fill="white"/>
<path d="M43.7622 11.5182C43.2267 11.5182 42.7864 11.3622 42.4413 11.0502C42.1081 10.7262 41.9416 10.3302 41.9416 9.86223C41.9416 9.38223 42.1081 8.98623 42.4413 8.67423C42.7864 8.35023 43.2267 8.18823 43.7622 8.18823C44.2857 8.18823 44.7141 8.35023 45.0473 8.67423C45.3924 8.98623 45.5649 9.38223 45.5649 9.86223C45.5649 10.3302 45.3924 10.7262 45.0473 11.0502C44.7141 11.3622 44.2857 11.5182 43.7622 11.5182ZM45.2793 12.5622V22.6062H42.2271V12.5622H45.2793Z" fill="white"/>
<path d="M51.0967 12.4182C51.7988 12.4182 52.4116 12.5622 52.9352 12.8502C53.4707 13.1382 53.8812 13.5162 54.1668 13.9842V12.5622H57.219V22.5882C57.219 23.5122 57.0345 24.3462 56.6657 25.0902C56.3087 25.8462 55.7554 26.4462 55.0057 26.8902C54.2679 27.3342 53.3457 27.5562 52.2391 27.5562C50.7636 27.5562 49.5677 27.2022 48.6514 26.4942C47.7352 25.7982 47.2116 24.8502 47.0807 23.6502H50.0972C50.1924 24.0342 50.4185 24.3342 50.7755 24.5502C51.1324 24.7782 51.5727 24.8922 52.0963 24.8922C52.727 24.8922 53.2267 24.7062 53.5956 24.3342C53.9764 23.9742 54.1668 23.3922 54.1668 22.5882V21.1662C53.8693 21.6342 53.4588 22.0182 52.9352 22.3182C52.4116 22.6062 51.7988 22.7502 51.0967 22.7502C50.2757 22.7502 49.532 22.5402 48.8656 22.1202C48.1992 21.6882 47.6697 21.0822 47.277 20.3022C46.8963 19.5102 46.7059 18.5982 46.7059 17.5662C46.7059 16.5342 46.8963 15.6282 47.277 14.8482C47.6697 14.0682 48.1992 13.4682 48.8656 13.0482C49.532 12.6282 50.2757 12.4182 51.0967 12.4182ZM54.1668 17.5842C54.1668 16.8162 53.9526 16.2102 53.5242 15.7662C53.1077 15.3222 52.5961 15.1002 51.9892 15.1002C51.3823 15.1002 50.8647 15.3222 50.4363 15.7662C50.0198 16.1982 49.8116 16.7982 49.8116 17.5662C49.8116 18.3342 50.0198 18.9462 50.4363 19.4022C50.8647 19.8462 51.3823 20.0682 51.9892 20.0682C52.5961 20.0682 53.1077 19.8462 53.5242 19.4022C53.9526 18.9582 54.1668 18.3522 54.1668 17.5842Z" fill="white"/>
<path d="M65.3709 12.4542C66.5132 12.4542 67.4295 12.8382 68.1196 13.6062C68.8098 14.3622 69.1549 15.4062 69.1549 16.7382V22.6062H66.1205V17.1522C66.1205 16.4802 65.948 15.9582 65.6029 15.5862C65.2578 15.2142 64.7937 15.0282 64.2107 15.0282C63.6276 15.0282 63.1635 15.2142 62.8184 15.5862C62.4734 15.9582 62.3008 16.4802 62.3008 17.1522V22.6062H59.2486V9.28623H62.3008V13.9122C62.6102 13.4682 63.0326 13.1142 63.5681 12.8502C64.1036 12.5862 64.7045 12.4542 65.3709 12.4542Z" fill="white"/>
<path d="M76.6484 19.9962V22.6062H75.0956C73.9889 22.6062 73.1262 22.3362 72.5074 21.7962C71.8887 21.2442 71.5793 20.3502 71.5793 19.1142V15.1182H70.3656V12.5622H71.5793V10.1142H74.6315V12.5622H76.6306V15.1182H74.6315V19.1502C74.6315 19.4502 74.7029 19.6662 74.8457 19.7982C74.9885 19.9302 75.2265 19.9962 75.5596 19.9962H76.6484Z" fill="white"/>
<path d="M81.2223 13.9842C81.5079 13.5162 81.9184 13.1382 82.4539 12.8502C82.9893 12.5622 83.6021 12.4182 84.2923 12.4182C85.1134 12.4182 85.8571 12.6282 86.5234 13.0482C87.1898 13.4682 87.7134 14.0682 88.0942 14.8482C88.4869 15.6282 88.6832 16.5342 88.6832 17.5662C88.6832 18.5982 88.4869 19.5102 88.0942 20.3022C87.7134 21.0822 87.1898 21.6882 86.5234 22.1202C85.8571 22.5402 85.1134 22.7502 84.2923 22.7502C83.5902 22.7502 82.9774 22.6122 82.4539 22.3362C81.9303 22.0482 81.5198 21.6702 81.2223 21.2022V22.6062H78.1701V9.28623H81.2223V13.9842ZM85.5774 17.5662C85.5774 16.7982 85.3633 16.1982 84.9349 15.7662C84.5184 15.3222 84.0008 15.1002 83.382 15.1002C82.7751 15.1002 82.2575 15.3222 81.8291 15.7662C81.4127 16.2102 81.2044 16.8162 81.2044 17.5842C81.2044 18.3522 81.4127 18.9582 81.8291 19.4022C82.2575 19.8462 82.7751 20.0682 83.382 20.0682C83.9889 20.0682 84.5065 19.8462 84.9349 19.4022C85.3633 18.9462 85.5774 18.3342 85.5774 17.5662Z" fill="white"/>
<path d="M94.6396 22.7502C93.6639 22.7502 92.7833 22.5402 91.998 22.1202C91.2245 21.7002 90.6117 21.1002 90.1595 20.3202C89.7192 19.5402 89.4991 18.6282 89.4991 17.5842C89.4991 16.5522 89.7252 15.6462 90.1774 14.8662C90.6295 14.0742 91.2483 13.4682 92.0337 13.0482C92.819 12.6282 93.6996 12.4182 94.6753 12.4182C95.6511 12.4182 96.5316 12.6282 97.317 13.0482C98.1024 13.4682 98.7211 14.0742 99.1733 14.8662C99.6255 15.6462 99.8516 16.5522 99.8516 17.5842C99.8516 18.6162 99.6195 19.5282 99.1555 20.3202C98.7033 21.1002 98.0786 21.7002 97.2813 22.1202C96.4959 22.5402 95.6154 22.7502 94.6396 22.7502ZM94.6396 20.0862C95.2227 20.0862 95.7165 19.8702 96.1211 19.4382C96.5376 19.0062 96.7458 18.3882 96.7458 17.5842C96.7458 16.7802 96.5435 16.1622 96.139 15.7302C95.7463 15.2982 95.2584 15.0822 94.6753 15.0822C94.0804 15.0822 93.5865 15.2982 93.1939 15.7302C92.8012 16.1502 92.6048 16.7682 92.6048 17.5842C92.6048 18.3882 92.7952 19.0062 93.176 19.4382C93.5687 19.8702 94.0566 20.0862 94.6396 20.0862Z" fill="white"/>
<path d="M107.183 22.6062L105.273 19.8162L103.666 22.6062H100.364L103.648 17.4762L100.275 12.5622H103.702L105.612 15.3342L107.218 12.5622H110.52L107.183 17.6202L110.61 22.6062H107.183Z" fill="white"/>
</svg>
