<svg width="115" height="32" viewBox="0 0 115 32" fill="none" xmlns="http://www.w3.org/2000/svg">
<path fill-rule="evenodd" clip-rule="evenodd" d="M15.501 30.6666C23.6202 30.6666 30.2022 24.1001 30.2022 15.9999C30.2022 7.89975 23.6202 1.33325 15.501 1.33325C7.38173 1.33325 0.799805 7.89975 0.799805 15.9999C0.799805 24.1001 7.38173 30.6666 15.501 30.6666ZM20.0872 8.16561C20.3105 7.37449 19.5409 6.90668 18.8382 7.40621L9.0274 14.3789C8.26522 14.9207 8.38511 15.9999 9.20749 15.9999H11.7909V15.98H16.8259L12.7233 17.4241L10.9147 23.8343C10.6915 24.6254 11.461 25.0932 12.1638 24.5936L21.9746 17.6209C22.7368 17.0792 22.6168 15.9999 21.7945 15.9999H17.8768L20.0872 8.16561Z" fill="white"/>
<path d="M37.8066 22.6059V20.2859H39.651V10.9259H37.8066V8.60593H45.0236C45.8789 8.60593 46.6207 8.75259 47.2488 9.04593C47.8903 9.32593 48.3848 9.7326 48.7323 10.2659C49.0931 10.7859 49.2736 11.4126 49.2736 12.1459V12.3459C49.2736 12.9859 49.1533 13.5126 48.9127 13.9259C48.6721 14.3259 48.3848 14.6393 48.0507 14.8659C47.7299 15.0793 47.4225 15.2326 47.1285 15.3259V15.6859C47.4225 15.7659 47.7433 15.9193 48.0908 16.1459C48.4383 16.3593 48.7323 16.6726 48.9729 17.0859C49.2268 17.4993 49.3537 18.0393 49.3537 18.7059V18.9059C49.3537 19.6793 49.1733 20.3459 48.8125 20.9059C48.4516 21.4526 47.9505 21.8726 47.3089 22.1659C46.6808 22.4593 45.9457 22.6059 45.1038 22.6059H37.8066ZM42.2972 20.2059H44.783C45.3577 20.2059 45.8188 20.0659 46.1663 19.7859C46.5271 19.5059 46.7075 19.1059 46.7075 18.5859V18.3859C46.7075 17.8659 46.5338 17.4659 46.1863 17.1859C45.8388 16.9059 45.3711 16.7659 44.783 16.7659H42.2972V20.2059ZM42.2972 14.3659H44.7429C45.2909 14.3659 45.7386 14.2259 46.0861 13.9459C46.4469 13.6659 46.6273 13.2793 46.6273 12.7859V12.5859C46.6273 12.0793 46.4536 11.6926 46.1061 11.4259C45.7586 11.1459 45.3042 11.0059 44.7429 11.0059H42.2972V14.3659Z" fill="white"/>
<path d="M55.329 22.8859C54.34 22.8859 53.4513 22.6859 52.6628 22.2859C51.8742 21.8859 51.2528 21.3059 50.7984 20.5459C50.344 19.7859 50.1168 18.8726 50.1168 17.8059V17.4859C50.1168 16.4193 50.344 15.5059 50.7984 14.7459C51.2528 13.9859 51.8742 13.4059 52.6628 13.0059C53.4513 12.6059 54.34 12.4059 55.329 12.4059C56.318 12.4059 57.2068 12.6059 57.9953 13.0059C58.7838 13.4059 59.4053 13.9859 59.8597 14.7459C60.3141 15.5059 60.5413 16.4193 60.5413 17.4859V17.8059C60.5413 18.8726 60.3141 19.7859 59.8597 20.5459C59.4053 21.3059 58.7838 21.8859 57.9953 22.2859C57.2068 22.6859 56.318 22.8859 55.329 22.8859ZM55.329 20.6459C56.1042 20.6459 56.7457 20.3993 57.2535 19.9059C57.7614 19.3993 58.0153 18.6793 58.0153 17.7459V17.5459C58.0153 16.6126 57.7614 15.8993 57.2535 15.4059C56.759 14.8993 56.1175 14.6459 55.329 14.6459C54.5539 14.6459 53.9124 14.8993 53.4045 15.4059C52.8966 15.8993 52.6427 16.6126 52.6427 17.5459V17.7459C52.6427 18.6793 52.8966 19.3993 53.4045 19.9059C53.9124 20.3993 54.5539 20.6459 55.329 20.6459Z" fill="white"/>
<path d="M61.8705 22.6059V8.60593H64.3964V22.6059H61.8705Z" fill="white"/>
<path d="M70.0021 22.6059C69.3472 22.6059 68.8126 22.4059 68.3983 22.0059C67.9974 21.5926 67.7969 21.0459 67.7969 20.3659V14.7659H65.311V12.6859H67.7969V9.60593H70.3228V12.6859H73.0492V14.7659H70.3228V19.9259C70.3228 20.3259 70.5099 20.5259 70.8841 20.5259H72.8086V22.6059H70.0021Z" fill="white"/>
<path d="M78.463 22.8859C77.1666 22.8859 76.1041 22.6059 75.2755 22.0459C74.4469 21.4859 73.9457 20.6859 73.772 19.6459L76.0975 19.0459C76.191 19.5126 76.3447 19.8793 76.5585 20.1459C76.7857 20.4126 77.0597 20.6059 77.3805 20.7259C77.7146 20.8326 78.0754 20.8859 78.463 20.8859C79.0511 20.8859 79.4854 20.7859 79.7661 20.5859C80.0467 20.3726 80.1871 20.1126 80.1871 19.8059C80.1871 19.4993 80.0534 19.2659 79.7861 19.1059C79.5188 18.9326 79.0912 18.7926 78.5031 18.6859L77.9418 18.5859C77.2468 18.4526 76.612 18.2726 76.0373 18.0459C75.4626 17.8059 75.0016 17.4793 74.6541 17.0659C74.3066 16.6526 74.1329 16.1193 74.1329 15.4659C74.1329 14.4793 74.4937 13.7259 75.2154 13.2059C75.9371 12.6726 76.886 12.4059 78.0621 12.4059C79.1713 12.4059 80.0935 12.6526 80.8286 13.1459C81.5636 13.6393 82.0448 14.2859 82.272 15.0859L79.9265 15.8059C79.8195 15.2993 79.599 14.9393 79.2649 14.7259C78.9441 14.5126 78.5432 14.4059 78.0621 14.4059C77.5809 14.4059 77.2134 14.4926 76.9595 14.6659C76.7056 14.8259 76.5786 15.0526 76.5786 15.3459C76.5786 15.6659 76.7122 15.9059 76.9795 16.0659C77.2468 16.2126 77.6077 16.3259 78.0621 16.4059L78.6234 16.5059C79.3718 16.6393 80.0467 16.8193 80.6481 17.0459C81.2629 17.2593 81.7441 17.5726 82.0915 17.9859C82.4524 18.3859 82.6328 18.9326 82.6328 19.6259C82.6328 20.6659 82.2519 21.4726 81.4901 22.0459C80.7417 22.6059 79.7327 22.8859 78.463 22.8859Z" fill="white"/>
<path d="M83.8439 22.6059V8.60593H86.3699V13.9059H86.7307C86.8376 13.6926 87.0047 13.4793 87.2319 13.2659C87.4591 13.0526 87.7598 12.8793 88.134 12.7459C88.5216 12.5993 89.0094 12.5259 89.5974 12.5259C90.3726 12.5259 91.0475 12.7059 91.6222 13.0659C92.2102 13.4126 92.6646 13.8993 92.9854 14.5259C93.3061 15.1393 93.4665 15.8593 93.4665 16.6859V22.6059H90.9406V16.8859C90.9406 16.1393 90.7535 15.5793 90.3793 15.2059C90.0184 14.8326 89.4972 14.6459 88.8156 14.6459C88.0404 14.6459 87.439 14.9059 87.0114 15.4259C86.5837 15.9326 86.3699 16.6459 86.3699 17.5659V22.6059H83.8439Z" fill="white"/>
<path d="M95.1948 22.6059V12.6859H97.7207V22.6059H95.1948ZM96.4578 11.5259C96.0034 11.5259 95.6158 11.3793 95.295 11.0859C94.9876 10.7926 94.8339 10.4059 94.8339 9.92593C94.8339 9.44593 94.9876 9.05926 95.295 8.76593C95.6158 8.47259 96.0034 8.32593 96.4578 8.32593C96.9255 8.32593 97.3131 8.47259 97.6205 8.76593C97.9279 9.05926 98.0816 9.44593 98.0816 9.92593C98.0816 10.4059 97.9279 10.7926 97.6205 11.0859C97.3131 11.3793 96.9255 11.5259 96.4578 11.5259Z" fill="white"/>
<path d="M101.161 22.6059V14.7659H98.6354V12.6859H101.161V10.8459C101.161 10.1659 101.362 9.62593 101.763 9.22593C102.177 8.81259 102.712 8.60593 103.366 8.60593H105.973V10.6859H104.249C103.874 10.6859 103.687 10.8859 103.687 11.2859V12.6859H106.293V14.7659H103.687V22.6059H101.161Z" fill="white"/>
<path d="M110.86 22.6059C110.205 22.6059 109.67 22.4059 109.256 22.0059C108.855 21.5926 108.655 21.0459 108.655 20.3659V14.7659H106.169V12.6859H108.655V9.60593H111.18V12.6859H113.907V14.7659H111.18V19.9259C111.18 20.3259 111.368 20.5259 111.742 20.5259H113.666V22.6059H110.86Z" fill="white"/>
</svg>
