<svg width="146" height="43" viewBox="0 0 146 43" fill="none" xmlns="http://www.w3.org/2000/svg">
<path fill-rule="evenodd" clip-rule="evenodd" d="M18.0336 3.51677C17.5954 3.42589 17.1434 3.42589 16.7052 3.51677C16.1987 3.62183 15.7459 3.87756 15.386 4.08087L15.2879 4.13614L3.08898 10.9706C3.05526 10.9895 3.02051 11.0088 2.9849 11.0286C2.60388 11.2402 2.1248 11.5063 1.75689 11.9089C1.43881 12.257 1.1981 12.6696 1.05085 13.119C0.880527 13.6389 0.882519 14.1904 0.884104 14.6291C0.884252 14.6701 0.884397 14.7101 0.884397 14.749V28.2432C0.884397 28.2821 0.884252 28.3221 0.884104 28.3631C0.882519 28.8018 0.880527 29.3534 1.05085 29.8732C1.1981 30.3226 1.43881 30.7352 1.75689 31.0833C2.1248 31.4859 2.60388 31.752 2.9849 31.9636C3.02051 31.9834 3.05526 32.0027 3.08899 32.0216L15.2879 38.8561L15.386 38.9114C15.746 39.1147 16.1987 39.3704 16.7052 39.4754C17.1434 39.5663 17.5954 39.5663 18.0336 39.4754C18.5401 39.3704 18.9929 39.1147 19.3528 38.9114L19.4509 38.8561L31.6499 32.0216C31.6648 32.0133 31.6799 32.0048 31.6952 31.9963C31.7145 31.9856 31.7341 31.9747 31.7539 31.9636C32.135 31.752 32.614 31.4859 32.9819 31.0833C33.3 30.7352 33.5407 30.3226 33.688 29.8732C33.8583 29.3533 33.8563 28.8018 33.8547 28.3631C33.8546 28.3221 33.8544 28.2821 33.8544 28.2432V14.749C33.8544 14.7101 33.8546 14.6701 33.8547 14.6291C33.8563 14.1904 33.8583 13.6389 33.688 13.119C33.5407 12.6696 33.3 12.257 32.9819 11.9089C32.614 11.5063 32.135 11.2402 31.7539 11.0286L31.7526 11.0278C31.7175 11.0083 31.6832 10.9893 31.6499 10.9706L19.4509 4.13614L19.3528 4.08086C18.9929 3.87756 18.5401 3.62183 18.0336 3.51677ZM16.8891 7.0426C17.1389 6.90264 17.2664 6.83192 17.3615 6.78565L17.3694 6.78185L17.3773 6.78565C17.4724 6.83192 17.6 6.90264 17.8498 7.0426L28.8114 13.1839L17.3694 19.5943L5.92739 13.1839L16.8891 7.0426ZM4.1814 16.0092L15.7209 22.4742L15.7209 35.2951L4.69015 29.1151C4.42647 28.9674 4.29185 28.8912 4.19739 28.8305L4.18942 28.8254L4.18882 28.8158C4.18209 28.7031 4.1814 28.5474 4.1814 28.2432V16.0092Z" fill="white"/>
<path d="M48.8576 27.0521H54.1052V30.1706H44.8516V13.5858H48.8576V27.0521Z" fill="white"/>
<path d="M57.7964 15.6176C57.0936 15.6176 56.5157 15.4128 56.0628 15.0033C55.6255 14.5781 55.4069 14.0583 55.4069 13.4441C55.4069 12.8141 55.6255 12.2943 56.0628 11.8848C56.5157 11.4596 57.0936 11.2469 57.7964 11.2469C58.4836 11.2469 59.0459 11.4596 59.4832 11.8848C59.9361 12.2943 60.1625 12.8141 60.1625 13.4441C60.1625 14.0583 59.9361 14.5781 59.4832 15.0033C59.0459 15.4128 58.4836 15.6176 57.7964 15.6176ZM59.7877 16.9878V30.1706H55.7817V16.9878H59.7877Z" fill="white"/>
<path d="M67.4231 16.7988C68.3445 16.7988 69.1488 16.9878 69.836 17.3658C70.5388 17.7438 71.0777 18.2399 71.4525 18.8542V16.9878H75.4585V30.1469C75.4585 31.3597 75.2164 32.4543 74.7323 33.4308C74.2637 34.4231 73.5375 35.2106 72.5536 35.7933C71.5852 36.3761 70.3749 36.6674 68.9224 36.6674C66.9858 36.6674 65.4162 36.2028 64.2136 35.2736C63.011 34.3601 62.3238 33.1158 62.152 31.5408H66.1112C66.2361 32.0448 66.5328 32.4386 67.0014 32.7221C67.4699 33.0213 68.0478 33.1709 68.735 33.1709C69.5627 33.1709 70.2187 32.9268 70.7028 32.4386C71.2026 31.9661 71.4525 31.2022 71.4525 30.1469V28.2806C71.062 28.8948 70.5232 29.3988 69.836 29.7926C69.1488 30.1706 68.3445 30.3596 67.4231 30.3596C66.3454 30.3596 65.3693 30.0839 64.4947 29.5327C63.6201 28.9657 62.9251 28.1703 62.4097 27.1466C61.9099 26.1071 61.66 24.9101 61.66 23.5556C61.66 22.2011 61.9099 21.0119 62.4097 19.9882C62.9251 18.9644 63.6201 18.1769 64.4947 17.6257C65.3693 17.0744 66.3454 16.7988 67.4231 16.7988ZM71.4525 23.5792C71.4525 22.5712 71.1714 21.7758 70.6091 21.1931C70.0625 20.6103 69.3909 20.3189 68.5944 20.3189C67.7979 20.3189 67.1185 20.6103 66.5563 21.1931C66.0096 21.7601 65.7363 22.5476 65.7363 23.5556C65.7363 24.5636 66.0096 25.3668 66.5563 25.9653C67.1185 26.5481 67.7979 26.8394 68.5944 26.8394C69.3909 26.8394 70.0625 26.5481 70.6091 25.9653C71.1714 25.3826 71.4525 24.5872 71.4525 23.5792Z" fill="white"/>
<path d="M86.1578 16.8461C87.6572 16.8461 88.8598 17.3501 89.7656 18.3581C90.6714 19.3503 91.1244 20.7206 91.1244 22.4688V30.1706H87.1418V23.0122C87.1418 22.1302 86.9153 21.4451 86.4624 20.9568C86.0095 20.4686 85.4004 20.2244 84.6351 20.2244C83.8698 20.2244 83.2607 20.4686 82.8078 20.9568C82.3549 21.4451 82.1284 22.1302 82.1284 23.0122V30.1706H78.1224V12.6881H82.1284V18.7597C82.5345 18.1769 83.0889 17.7123 83.7917 17.3658C84.4945 17.0193 85.2832 16.8461 86.1578 16.8461Z" fill="white"/>
<path d="M100.96 26.7449V30.1706H98.9215C97.469 30.1706 96.3367 29.8162 95.5246 29.1074C94.7125 28.3829 94.3064 27.2096 94.3064 25.5873V20.3426H92.7134V16.9878H94.3064V13.7748H98.3124V16.9878H100.936V20.3426H98.3124V25.6346C98.3124 26.0283 98.4061 26.3118 98.5935 26.4851C98.7809 26.6583 99.0933 26.7449 99.5306 26.7449H100.96Z" fill="white"/>
<path d="M106.963 18.8542C107.338 18.2399 107.876 17.7438 108.579 17.3658C109.282 16.9878 110.086 16.7988 110.992 16.7988C112.07 16.7988 113.046 17.0744 113.921 17.6257C114.795 18.1769 115.482 18.9644 115.982 19.9882C116.498 21.0119 116.755 22.2011 116.755 23.5556C116.755 24.9101 116.498 26.1071 115.982 27.1466C115.482 28.1703 114.795 28.9657 113.921 29.5327C113.046 30.0839 112.07 30.3596 110.992 30.3596C110.071 30.3596 109.266 30.1784 108.579 29.8162C107.892 29.4382 107.353 28.9421 106.963 28.3278V30.1706H102.957V12.6881H106.963V18.8542ZM112.679 23.5556C112.679 22.5476 112.398 21.7601 111.836 21.1931C111.289 20.6103 110.61 20.3189 109.797 20.3189C109.001 20.3189 108.322 20.6103 107.759 21.1931C107.213 21.7758 106.939 22.5712 106.939 23.5792C106.939 24.5872 107.213 25.3826 107.759 25.9653C108.322 26.5481 109.001 26.8394 109.797 26.8394C110.594 26.8394 111.273 26.5481 111.836 25.9653C112.398 25.3668 112.679 24.5636 112.679 23.5556Z" fill="white"/>
<path d="M124.573 30.3596C123.292 30.3596 122.137 30.0839 121.106 29.5327C120.091 28.9814 119.286 28.1939 118.693 27.1702C118.115 26.1464 117.826 24.9494 117.826 23.5792C117.826 22.2247 118.123 21.0356 118.716 20.0118C119.31 18.9723 120.122 18.1769 121.153 17.6257C122.184 17.0744 123.339 16.7988 124.62 16.7988C125.901 16.7988 127.056 17.0744 128.087 17.6257C129.118 18.1769 129.93 18.9723 130.524 20.0118C131.117 21.0356 131.414 22.2247 131.414 23.5792C131.414 24.9337 131.109 26.1307 130.5 27.1702C129.907 28.1939 129.087 28.9814 128.04 29.5327C127.009 30.0839 125.854 30.3596 124.573 30.3596ZM124.573 26.8631C125.338 26.8631 125.987 26.5796 126.518 26.0126C127.064 25.4456 127.337 24.6344 127.337 23.5792C127.337 22.5239 127.072 21.7128 126.541 21.1458C126.026 20.5788 125.385 20.2953 124.62 20.2953C123.839 20.2953 123.191 20.5788 122.676 21.1458C122.16 21.6971 121.902 22.5082 121.902 23.5792C121.902 24.6344 122.152 25.4456 122.652 26.0126C123.167 26.5796 123.808 26.8631 124.573 26.8631Z" fill="white"/>
<path d="M141.036 30.1706L138.529 26.5087L136.421 30.1706H132.087L136.397 23.4374L131.969 16.9878H136.467L138.974 20.6261L141.083 16.9878H145.416L141.036 23.6264L145.534 30.1706H141.036Z" fill="white"/>
</svg>
