<svg width="114" height="124" viewBox="0 0 114 124" fill="none" xmlns="http://www.w3.org/2000/svg">
<circle opacity="0.1" cx="57" cy="57" r="36.25" fill="url(#paint0_linear_768_16605)"/>
<circle opacity="0.4" cx="56.9998" cy="57" r="45.25" stroke="#4B4B4B" stroke-width="23" stroke-dasharray="2 5"/>
<g filter="url(#filter0_bdi_768_16605)">
<ellipse cx="57" cy="57" rx="23.9516" ry="23.5081" fill="#F8F8F8" fill-opacity="0.05" shape-rendering="crispEdges"/>
</g>
<path d="M57.1893 60.3834C59.0579 60.3834 60.5727 58.8686 60.5727 57C60.5727 55.1314 59.0579 53.6166 57.1893 53.6166C55.3207 53.6166 53.8059 55.1314 53.8059 57C53.8059 58.8686 55.3207 60.3834 57.1893 60.3834Z" stroke="#98EF7E" stroke-width="2" stroke-miterlimit="10" stroke-linecap="round" stroke-linejoin="round"/>
<path d="M45.9114 57.9925V56.0075C45.9114 54.8346 46.87 53.8647 48.0542 53.8647C50.0955 53.8647 50.9301 52.4212 49.9038 50.6505C49.3173 49.6355 49.6669 48.316 50.6932 47.7295L52.6443 46.613C53.5353 46.0829 54.6856 46.3987 55.2157 47.2897L55.3398 47.504C56.3548 49.2746 58.0239 49.2746 59.0502 47.504L59.1743 47.2897C59.7043 46.3987 60.8547 46.0829 61.7456 46.613L63.6967 47.7295C64.723 48.316 65.0726 49.6355 64.4862 50.6505C63.4599 52.4212 64.2945 53.8647 66.3358 53.8647C67.5087 53.8647 68.4786 54.8234 68.4786 56.0075V57.9925C68.4786 59.1654 67.52 60.1353 66.3358 60.1353C64.2945 60.1353 63.4599 61.5789 64.4862 63.3495C65.0726 64.3758 64.723 65.684 63.6967 66.2705L61.7456 67.387C60.8547 67.9171 59.7043 67.6013 59.1743 66.7103L59.0502 66.4961C58.0352 64.7254 56.3661 64.7254 55.3398 66.4961L55.2157 66.7103C54.6856 67.6013 53.5353 67.9171 52.6443 67.387L50.6932 66.2705C49.6669 65.684 49.3173 64.3645 49.9038 63.3495C50.9301 61.5789 50.0955 60.1353 48.0542 60.1353C46.87 60.1353 45.9114 59.1654 45.9114 57.9925Z" stroke="#98EF7E" stroke-width="2" stroke-miterlimit="10" stroke-linecap="round" stroke-linejoin="round"/>
<ellipse opacity="0.5" cx="0.140194" cy="0.14038" rx="0.140194" ry="0.14038" transform="matrix(0.596747 -0.80243 0.805018 0.59325 18.5608 57.8421)" fill="url(#paint1_linear_768_16605)"/>
<ellipse opacity="0.5" cx="0.140193" cy="0.14038" rx="0.140193" ry="0.14038" transform="matrix(0.596752 -0.802425 0.805023 0.593244 26.4346 61.4812)" fill="url(#paint2_linear_768_16605)"/>
<ellipse opacity="0.5" cx="0.140194" cy="0.14038" rx="0.140194" ry="0.14038" transform="matrix(0.596748 -0.802429 0.805019 0.593249 4.50024 53.923)" fill="url(#paint3_linear_768_16605)"/>
<ellipse opacity="0.5" cx="0.140194" cy="0.14038" rx="0.140194" ry="0.14038" transform="matrix(0.596748 -0.802429 0.805019 0.593249 15.186 63.1608)" fill="url(#paint4_linear_768_16605)"/>
<ellipse opacity="0.5" cx="0.140194" cy="0.14038" rx="0.140194" ry="0.14038" transform="matrix(0.596747 -0.80243 0.805018 0.59325 28.6846 57.2822)" fill="url(#paint5_linear_768_16605)"/>
<ellipse opacity="0.5" cx="6.66199" cy="54.0898" rx="0.8398" ry="0.843636" transform="rotate(-90 6.66199 54.0898)" fill="url(#paint6_linear_768_16605)"/>
<ellipse opacity="0.5" cx="23.7633" cy="58.1488" rx="0.699835" ry="0.703031" transform="rotate(-90 23.7633 58.1488)" fill="url(#paint7_linear_768_16605)"/>
<ellipse cx="6.46847" cy="65.0072" rx="0.279934" ry="0.281212" transform="rotate(-90 6.46847 65.0072)" fill="url(#paint8_linear_768_16605)"/>
<ellipse opacity="0.5" cx="0.280673" cy="0.280474" rx="0.280673" ry="0.280474" transform="matrix(-0.761479 -0.64819 0.651611 -0.758554 9.7085 58.8486)" fill="url(#paint9_linear_768_16605)"/>
<ellipse opacity="0.5" cx="0.280388" cy="0.28076" rx="0.280388" ry="0.28076" transform="matrix(0.596748 -0.802429 0.805019 0.593249 20.8105 61.0351)" fill="url(#paint10_linear_768_16605)"/>
<ellipse opacity="0.5" cx="10.687" cy="64.4473" rx="0.279934" ry="0.281212" transform="rotate(-90 10.687 64.4473)" fill="url(#paint11_linear_768_16605)"/>
<ellipse opacity="0.5" cx="14.0612" cy="55.2096" rx="0.279934" ry="0.281212" transform="rotate(-90 14.0612 55.2096)" fill="url(#paint12_linear_768_16605)"/>
<ellipse cx="16.8735" cy="60.5283" rx="0.559866" ry="0.562424" transform="rotate(-90 16.8735 60.5283)" fill="url(#paint13_linear_768_16605)"/>
<ellipse opacity="0.5" cx="0.140194" cy="0.140381" rx="0.140194" ry="0.140381" transform="matrix(-0.59675 -0.802427 -0.805021 0.593246 95.2603 57.8421)" fill="url(#paint14_linear_768_16605)"/>
<ellipse opacity="0.5" cx="0.140192" cy="0.140379" rx="0.140192" ry="0.140379" transform="matrix(-0.596747 -0.80243 -0.805018 0.59325 87.3865 61.4812)" fill="url(#paint15_linear_768_16605)"/>
<ellipse opacity="0.5" cx="0.140194" cy="0.140381" rx="0.140194" ry="0.140381" transform="matrix(-0.59675 -0.802427 -0.805021 0.593246 109.321 53.923)" fill="url(#paint16_linear_768_16605)"/>
<ellipse opacity="0.5" cx="0.140194" cy="0.140381" rx="0.140194" ry="0.140381" transform="matrix(-0.59675 -0.802427 -0.805021 0.593246 98.635 63.1608)" fill="url(#paint17_linear_768_16605)"/>
<ellipse opacity="0.5" cx="0.140194" cy="0.140381" rx="0.140194" ry="0.140381" transform="matrix(-0.59675 -0.802427 -0.805021 0.593246 85.1365 57.2822)" fill="url(#paint18_linear_768_16605)"/>
<ellipse opacity="0.5" cx="0.8398" cy="0.843636" rx="0.8398" ry="0.843636" transform="matrix(-1.19793e-08 -1 -1 1.18707e-08 108.003 54.9296)" fill="url(#paint19_linear_768_16605)"/>
<ellipse opacity="0.5" cx="0.699835" cy="0.70303" rx="0.699835" ry="0.70303" transform="matrix(-1.19793e-08 -1 -1 1.18707e-08 90.7607 58.8486)" fill="url(#paint20_linear_768_16605)"/>
<ellipse cx="0.279934" cy="0.281212" rx="0.279934" ry="0.281212" transform="matrix(-1.19793e-08 -1 -1 1.18707e-08 107.633 65.2871)" fill="url(#paint21_linear_768_16605)"/>
<ellipse opacity="0.5" cx="0.280673" cy="0.280475" rx="0.280673" ry="0.280475" transform="matrix(0.76148 -0.648188 -0.651612 -0.758552 104.113 58.8486)" fill="url(#paint22_linear_768_16605)"/>
<ellipse opacity="0.5" cx="0.280387" cy="0.28076" rx="0.280387" ry="0.28076" transform="matrix(-0.596747 -0.80243 -0.805018 0.59325 93.0105 61.0351)" fill="url(#paint23_linear_768_16605)"/>
<ellipse opacity="0.5" cx="0.279934" cy="0.281212" rx="0.279934" ry="0.281212" transform="matrix(-1.19793e-08 -1 -1 1.18707e-08 103.415 64.7272)" fill="url(#paint24_linear_768_16605)"/>
<ellipse opacity="0.5" cx="0.279934" cy="0.281212" rx="0.279934" ry="0.281212" transform="matrix(-1.19793e-08 -1 -1 1.18707e-08 100.041 55.4895)" fill="url(#paint25_linear_768_16605)"/>
<ellipse cx="0.559866" cy="0.562424" rx="0.559866" ry="0.562424" transform="matrix(-1.19794e-08 -1 -1 1.18706e-08 97.51 61.0882)" fill="url(#paint26_linear_768_16605)"/>
<defs>
<filter id="filter0_bdi_768_16605" x="20.057" y="20.5006" width="73.8859" height="103.312" filterUnits="userSpaceOnUse" color-interpolation-filters="sRGB">
<feFlood flood-opacity="0" result="BackgroundImageFix"/>
<feGaussianBlur in="BackgroundImageFix" stdDeviation="6.49565"/>
<feComposite in2="SourceAlpha" operator="in" result="effect1_backgroundBlur_768_16605"/>
<feColorMatrix in="SourceAlpha" type="matrix" values="0 0 0 0 0 0 0 0 0 0 0 0 0 0 0 0 0 0 127 0" result="hardAlpha"/>
<feMorphology radius="17.3217" operator="erode" in="SourceAlpha" result="effect2_dropShadow_768_16605"/>
<feOffset dy="34.6434"/>
<feGaussianBlur stdDeviation="12.9913"/>
<feComposite in2="hardAlpha" operator="out"/>
<feColorMatrix type="matrix" values="0 0 0 0 0 0 0 0 0 0 0 0 0 0 0 0 0 0 0.4 0"/>
<feBlend mode="multiply" in2="effect1_backgroundBlur_768_16605" result="effect2_dropShadow_768_16605"/>
<feBlend mode="normal" in="SourceGraphic" in2="effect2_dropShadow_768_16605" result="shape"/>
<feColorMatrix in="SourceAlpha" type="matrix" values="0 0 0 0 0 0 0 0 0 0 0 0 0 0 0 0 0 0 127 0" result="hardAlpha"/>
<feOffset/>
<feGaussianBlur stdDeviation="4.33043"/>
<feComposite in2="hardAlpha" operator="arithmetic" k2="-1" k3="1"/>
<feColorMatrix type="matrix" values="0 0 0 0 0.972549 0 0 0 0 0.972549 0 0 0 0 0.972549 0 0 0 0.25 0"/>
<feBlend mode="normal" in2="shape" result="effect3_innerShadow_768_16605"/>
</filter>
<linearGradient id="paint0_linear_768_16605" x1="57" y1="20.75" x2="57" y2="93.25" gradientUnits="userSpaceOnUse">
<stop stop-color="#A2A2A2"/>
<stop offset="1" stop-color="#3C3C3C"/>
</linearGradient>
<linearGradient id="paint1_linear_768_16605" x1="0.233656" y1="-0.0935867" x2="0.0697397" y2="0.257196" gradientUnits="userSpaceOnUse">
<stop offset="0.173306" stop-color="white" stop-opacity="0"/>
<stop offset="1" stop-color="white" stop-opacity="0.3"/>
</linearGradient>
<linearGradient id="paint2_linear_768_16605" x1="0.233655" y1="-0.0935866" x2="0.0697383" y2="0.257196" gradientUnits="userSpaceOnUse">
<stop offset="0.173306" stop-color="white" stop-opacity="0"/>
<stop offset="1" stop-color="white" stop-opacity="0.3"/>
</linearGradient>
<linearGradient id="paint3_linear_768_16605" x1="0.233656" y1="-0.0935868" x2="0.0697396" y2="0.257197" gradientUnits="userSpaceOnUse">
<stop offset="0.173306" stop-color="white" stop-opacity="0"/>
<stop offset="1" stop-color="white" stop-opacity="0.3"/>
</linearGradient>
<linearGradient id="paint4_linear_768_16605" x1="0.233656" y1="-0.0935868" x2="0.0697396" y2="0.257197" gradientUnits="userSpaceOnUse">
<stop offset="0.173306" stop-color="white" stop-opacity="0"/>
<stop offset="1" stop-color="white" stop-opacity="0.3"/>
</linearGradient>
<linearGradient id="paint5_linear_768_16605" x1="0.233656" y1="-0.0935867" x2="0.0697397" y2="0.257196" gradientUnits="userSpaceOnUse">
<stop offset="0.173306" stop-color="white" stop-opacity="0"/>
<stop offset="1" stop-color="white" stop-opacity="0.3"/>
</linearGradient>
<linearGradient id="paint6_linear_768_16605" x1="7.22186" y1="53.2462" x2="5.81374" y2="55.2086" gradientUnits="userSpaceOnUse">
<stop stop-color="white" stop-opacity="0.3"/>
<stop offset="0.826694" stop-color="white" stop-opacity="0"/>
</linearGradient>
<linearGradient id="paint7_linear_768_16605" x1="24.2299" y1="56.9771" x2="23.4073" y2="58.7318" gradientUnits="userSpaceOnUse">
<stop stop-color="white" stop-opacity="0.3"/>
<stop offset="0.826694" stop-color="white" stop-opacity="0"/>
</linearGradient>
<linearGradient id="paint8_linear_768_16605" x1="6.65509" y1="64.5385" x2="6.32605" y2="65.2404" gradientUnits="userSpaceOnUse">
<stop offset="0.173306" stop-color="white" stop-opacity="0"/>
<stop offset="1" stop-color="white" stop-opacity="0.3"/>
</linearGradient>
<linearGradient id="paint9_linear_768_16605" x1="0.467788" y1="-0.186983" x2="0.140717" y2="0.51438" gradientUnits="userSpaceOnUse">
<stop offset="0.173306" stop-color="white" stop-opacity="0"/>
<stop offset="1" stop-color="white" stop-opacity="0.3"/>
</linearGradient>
<linearGradient id="paint10_linear_768_16605" x1="0.467313" y1="-0.187174" x2="0.139479" y2="0.514394" gradientUnits="userSpaceOnUse">
<stop offset="0.173306" stop-color="white" stop-opacity="0"/>
<stop offset="1" stop-color="white" stop-opacity="0.3"/>
</linearGradient>
<linearGradient id="paint11_linear_768_16605" x1="10.8736" y1="63.9786" x2="10.5446" y2="64.6805" gradientUnits="userSpaceOnUse">
<stop offset="0.173306" stop-color="white" stop-opacity="0"/>
<stop offset="1" stop-color="white" stop-opacity="0.3"/>
</linearGradient>
<linearGradient id="paint12_linear_768_16605" x1="14.2479" y1="54.7409" x2="13.9188" y2="55.4428" gradientUnits="userSpaceOnUse">
<stop offset="0.173306" stop-color="white" stop-opacity="0"/>
<stop offset="1" stop-color="white" stop-opacity="0.3"/>
</linearGradient>
<linearGradient id="paint13_linear_768_16605" x1="17.2467" y1="59.5909" x2="16.5886" y2="60.9947" gradientUnits="userSpaceOnUse">
<stop stop-color="white" stop-opacity="0.3"/>
<stop offset="0.826694" stop-color="white" stop-opacity="0"/>
</linearGradient>
<linearGradient id="paint14_linear_768_16605" x1="0.233657" y1="-0.0935873" x2="0.0697393" y2="0.257198" gradientUnits="userSpaceOnUse">
<stop offset="0.173306" stop-color="white" stop-opacity="0"/>
<stop offset="1" stop-color="white" stop-opacity="0.3"/>
</linearGradient>
<linearGradient id="paint15_linear_768_16605" x1="0.233654" y1="-0.0935858" x2="0.0697391" y2="0.257194" gradientUnits="userSpaceOnUse">
<stop offset="0.173306" stop-color="white" stop-opacity="0"/>
<stop offset="1" stop-color="white" stop-opacity="0.3"/>
</linearGradient>
<linearGradient id="paint16_linear_768_16605" x1="0.233657" y1="-0.0935873" x2="0.0697393" y2="0.257198" gradientUnits="userSpaceOnUse">
<stop offset="0.173306" stop-color="white" stop-opacity="0"/>
<stop offset="1" stop-color="white" stop-opacity="0.3"/>
</linearGradient>
<linearGradient id="paint17_linear_768_16605" x1="0.233657" y1="-0.0935873" x2="0.0697393" y2="0.257198" gradientUnits="userSpaceOnUse">
<stop offset="0.173306" stop-color="white" stop-opacity="0"/>
<stop offset="1" stop-color="white" stop-opacity="0.3"/>
</linearGradient>
<linearGradient id="paint18_linear_768_16605" x1="0.233657" y1="-0.0935873" x2="0.0697393" y2="0.257198" gradientUnits="userSpaceOnUse">
<stop offset="0.173306" stop-color="white" stop-opacity="0"/>
<stop offset="1" stop-color="white" stop-opacity="0.3"/>
</linearGradient>
<linearGradient id="paint19_linear_768_16605" x1="1.39967" y1="4.0507e-08" x2="-0.00845935" y2="1.96241" gradientUnits="userSpaceOnUse">
<stop stop-color="white" stop-opacity="0.3"/>
<stop offset="0.826694" stop-color="white" stop-opacity="0"/>
</linearGradient>
<linearGradient id="paint20_linear_768_16605" x1="1.16639" y1="-0.468686" x2="0.343792" y2="1.28602" gradientUnits="userSpaceOnUse">
<stop stop-color="white" stop-opacity="0.3"/>
<stop offset="0.826694" stop-color="white" stop-opacity="0"/>
</linearGradient>
<linearGradient id="paint21_linear_768_16605" x1="0.466557" y1="-0.187475" x2="0.137517" y2="0.514406" gradientUnits="userSpaceOnUse">
<stop offset="0.173306" stop-color="white" stop-opacity="0"/>
<stop offset="1" stop-color="white" stop-opacity="0.3"/>
</linearGradient>
<linearGradient id="paint22_linear_768_16605" x1="0.467789" y1="-0.186983" x2="0.140717" y2="0.514381" gradientUnits="userSpaceOnUse">
<stop offset="0.173306" stop-color="white" stop-opacity="0"/>
<stop offset="1" stop-color="white" stop-opacity="0.3"/>
</linearGradient>
<linearGradient id="paint23_linear_768_16605" x1="0.467312" y1="-0.187173" x2="0.139479" y2="0.514393" gradientUnits="userSpaceOnUse">
<stop offset="0.173306" stop-color="white" stop-opacity="0"/>
<stop offset="1" stop-color="white" stop-opacity="0.3"/>
</linearGradient>
<linearGradient id="paint24_linear_768_16605" x1="0.466557" y1="-0.187475" x2="0.137517" y2="0.514406" gradientUnits="userSpaceOnUse">
<stop offset="0.173306" stop-color="white" stop-opacity="0"/>
<stop offset="1" stop-color="white" stop-opacity="0.3"/>
</linearGradient>
<linearGradient id="paint25_linear_768_16605" x1="0.466557" y1="-0.187475" x2="0.137517" y2="0.514406" gradientUnits="userSpaceOnUse">
<stop offset="0.173306" stop-color="white" stop-opacity="0"/>
<stop offset="1" stop-color="white" stop-opacity="0.3"/>
</linearGradient>
<linearGradient id="paint26_linear_768_16605" x1="0.93311" y1="-0.374949" x2="0.275029" y2="1.02881" gradientUnits="userSpaceOnUse">
<stop stop-color="white" stop-opacity="0.3"/>
<stop offset="0.826694" stop-color="white" stop-opacity="0"/>
</linearGradient>
</defs>
</svg>
