<svg width="48" height="48" viewBox="0 0 48 48" fill="none" xmlns="http://www.w3.org/2000/svg">
<g filter="url(#filter0_d_276_17659)">
<rect x="2" y="1" width="44" height="44" rx="22" fill="#98EF7E" fill-opacity="0.04"/>
<rect x="2.5" y="1.5" width="43" height="43" rx="21.5" stroke="#98EF7E" stroke-opacity="0.24"/>
<g clip-path="url(#clip0_276_17659)">
<path d="M22.3325 23.8332C22.6904 24.3117 23.147 24.7075 23.6713 24.994C24.1956 25.2805 24.7754 25.4508 25.3714 25.4935C25.9674 25.5362 26.5655 25.4502 27.1253 25.2414C27.6851 25.0326 28.1935 24.7058 28.6159 24.2832L31.1159 21.7832C31.8748 20.9974 32.2948 19.9449 32.2853 18.8524C32.2758 17.7599 31.8376 16.7148 31.0651 15.9423C30.2926 15.1698 29.2475 14.7316 28.155 14.7221C27.0625 14.7126 26.01 15.1326 25.2242 15.8916L23.7909 17.3166" fill="#98EF7E"/>
<path d="M25.6659 22.1666C25.308 21.6881 24.8514 21.2922 24.3271 21.0058C23.8027 20.7193 23.2229 20.549 22.627 20.5063C22.031 20.4636 21.4329 20.5496 20.8731 20.7584C20.3133 20.9672 19.8049 21.294 19.3825 21.7166L16.8825 24.2166C16.1235 25.0024 15.7036 26.0549 15.713 27.1474C15.7225 28.2399 16.1607 29.2849 16.9333 30.0575C17.7058 30.83 18.7509 31.2682 19.8434 31.2777C20.9358 31.2872 21.9883 30.8672 22.7742 30.1082L24.1992 28.6832" fill="#98EF7E"/>
<path d="M22.3325 23.8332C22.6904 24.3117 23.147 24.7075 23.6713 24.994C24.1956 25.2805 24.7754 25.4508 25.3714 25.4935C25.9674 25.5362 26.5655 25.4502 27.1253 25.2414C27.6851 25.0326 28.1935 24.7058 28.6159 24.2832L31.1159 21.7832C31.8748 20.9974 32.2948 19.9449 32.2853 18.8524C32.2758 17.7599 31.8376 16.7148 31.0651 15.9423C30.2926 15.1698 29.2475 14.7316 28.155 14.7221C27.0625 14.7126 26.01 15.1326 25.2242 15.8916L23.7909 17.3166M25.6659 22.1666C25.308 21.6881 24.8514 21.2922 24.3271 21.0058C23.8027 20.7193 23.2229 20.549 22.627 20.5063C22.031 20.4636 21.4329 20.5496 20.8731 20.7584C20.3133 20.9672 19.8049 21.294 19.3825 21.7166L16.8825 24.2166C16.1235 25.0024 15.7036 26.0549 15.713 27.1474C15.7225 28.2399 16.1607 29.2849 16.9333 30.0575C17.7058 30.83 18.7509 31.2682 19.8434 31.2777C20.9358 31.2872 21.9883 30.8672 22.7742 30.1082L24.1992 28.6832" stroke="#029844" stroke-width="1.67" stroke-linecap="round" stroke-linejoin="round"/>
</g>
</g>
<defs>
<filter id="filter0_d_276_17659" x="0" y="0" width="48" height="48" filterUnits="userSpaceOnUse" color-interpolation-filters="sRGB">
<feFlood flood-opacity="0" result="BackgroundImageFix"/>
<feColorMatrix in="SourceAlpha" type="matrix" values="0 0 0 0 0 0 0 0 0 0 0 0 0 0 0 0 0 0 127 0" result="hardAlpha"/>
<feOffset dy="1"/>
<feGaussianBlur stdDeviation="1"/>
<feColorMatrix type="matrix" values="0 0 0 0 0.0627451 0 0 0 0 0.0941176 0 0 0 0 0.156863 0 0 0 0.05 0"/>
<feBlend mode="normal" in2="BackgroundImageFix" result="effect1_dropShadow_276_17659"/>
<feBlend mode="normal" in="SourceGraphic" in2="effect1_dropShadow_276_17659" result="shape"/>
</filter>
<clipPath id="clip0_276_17659">
<rect width="20" height="20" fill="white" transform="translate(14 13)"/>
</clipPath>
</defs>
</svg>
