<svg width="25" height="24" viewBox="0 0 25 24" fill="none" xmlns="http://www.w3.org/2000/svg">
<g clip-path="url(#clip0_70_3794)">
<path d="M8.05016 21.75C17.1045 21.75 22.0583 14.2468 22.0583 7.74192C22.0583 7.53098 22.0536 7.31536 22.0442 7.10442C23.0079 6.40752 23.8395 5.54432 24.5 4.55536C23.6025 4.95466 22.6496 5.21544 21.6739 5.3288C22.7013 4.71297 23.4705 3.74553 23.8391 2.60583C22.8726 3.17862 21.8156 3.58267 20.7134 3.80067C19.9708 3.01162 18.989 2.48918 17.9197 2.31411C16.8504 2.13905 15.7532 2.32111 14.7977 2.83216C13.8423 3.3432 13.0818 4.15477 12.6338 5.14137C12.1859 6.12798 12.0754 7.23468 12.3195 8.29036C10.3625 8.19215 8.44794 7.68377 6.69998 6.79816C4.95203 5.91255 3.40969 4.6695 2.17297 3.14958C1.5444 4.2333 1.35206 5.51571 1.63503 6.73615C1.918 7.9566 2.65506 9.02351 3.69641 9.72005C2.91463 9.69523 2.14998 9.48474 1.46563 9.10598V9.16692C1.46492 10.3042 1.8581 11.4066 2.57831 12.2868C3.29852 13.167 4.30132 13.7706 5.41625 13.995C4.69206 14.1932 3.93198 14.2221 3.19484 14.0794C3.50945 15.0575 4.12157 15.913 4.94577 16.5264C5.76997 17.1398 6.76512 17.4807 7.79234 17.5013C6.04842 18.8712 3.89417 19.6142 1.67656 19.6107C1.28329 19.6101 0.890399 19.586 0.5 19.5385C2.75286 20.9838 5.37353 21.7514 8.05016 21.75Z" fill="white"/>
</g>
<defs>
<clipPath id="clip0_70_3794">
<rect width="24" height="24" fill="white" transform="translate(0.5)"/>
</clipPath>
</defs>
</svg>
