<svg width="48" height="48" viewBox="0 0 48 48" fill="none" xmlns="http://www.w3.org/2000/svg">
<g filter="url(#filter0_d_276_17660)">
<rect x="2" y="1" width="44" height="44" rx="22" fill="#98EF7E" fill-opacity="0.04"/>
<rect x="2.5" y="1.5" width="43" height="43" rx="21.5" stroke="#98EF7E" stroke-opacity="0.24"/>
<mask id="path-4-inside-1_276_17660" fill="white">
<path d="M20.2918 31.1251C27.8371 31.1251 31.9652 24.8724 31.9652 19.4517C31.9652 19.2759 31.9613 19.0962 31.9535 18.9204C32.7566 18.3397 33.4496 17.6203 34 16.7962C33.2521 17.129 32.458 17.3463 31.6449 17.4407C32.5011 16.9275 33.1421 16.1213 33.4492 15.1716C32.6438 15.6489 31.763 15.9856 30.8445 16.1673C30.2257 15.5098 29.4075 15.0744 28.5164 14.9285C27.6253 14.7826 26.711 14.9343 25.9148 15.3602C25.1186 15.7861 24.4848 16.4624 24.1115 17.2845C23.7382 18.1067 23.6462 19.029 23.8496 19.9087C22.2187 19.8269 20.6233 19.4032 19.1667 18.6652C17.71 17.9272 16.4247 16.8913 15.3941 15.6247C14.8703 16.5278 14.71 17.5965 14.9459 18.6135C15.1817 19.6306 15.7959 20.5197 16.6637 21.1001C16.0122 21.0794 15.375 20.904 14.8047 20.5884V20.6392C14.8041 21.5869 15.1317 22.5056 15.7319 23.2391C16.3321 23.9726 17.1678 24.4756 18.0969 24.6626C17.4934 24.8277 16.86 24.8518 16.2457 24.7329C16.5079 25.548 17.018 26.2609 17.7048 26.7721C18.3916 27.2833 19.2209 27.5673 20.077 27.5845C18.6237 28.726 16.8285 29.3452 14.9805 29.3423C14.6527 29.3418 14.3253 29.3217 14 29.2821C15.8774 30.4866 18.0613 31.1263 20.2918 31.1251Z"/>
</mask>
<path d="M20.2918 31.1251C27.8371 31.1251 31.9652 24.8724 31.9652 19.4517C31.9652 19.2759 31.9613 19.0962 31.9535 18.9204C32.7566 18.3397 33.4496 17.6203 34 16.7962C33.2521 17.129 32.458 17.3463 31.6449 17.4407C32.5011 16.9275 33.1421 16.1213 33.4492 15.1716C32.6438 15.6489 31.763 15.9856 30.8445 16.1673C30.2257 15.5098 29.4075 15.0744 28.5164 14.9285C27.6253 14.7826 26.711 14.9343 25.9148 15.3602C25.1186 15.7861 24.4848 16.4624 24.1115 17.2845C23.7382 18.1067 23.6462 19.029 23.8496 19.9087C22.2187 19.8269 20.6233 19.4032 19.1667 18.6652C17.71 17.9272 16.4247 16.8913 15.3941 15.6247C14.8703 16.5278 14.71 17.5965 14.9459 18.6135C15.1817 19.6306 15.7959 20.5197 16.6637 21.1001C16.0122 21.0794 15.375 20.904 14.8047 20.5884V20.6392C14.8041 21.5869 15.1317 22.5056 15.7319 23.2391C16.3321 23.9726 17.1678 24.4756 18.0969 24.6626C17.4934 24.8277 16.86 24.8518 16.2457 24.7329C16.5079 25.548 17.018 26.2609 17.7048 26.7721C18.3916 27.2833 19.2209 27.5673 20.077 27.5845C18.6237 28.726 16.8285 29.3452 14.9805 29.3423C14.6527 29.3418 14.3253 29.3217 14 29.2821C15.8774 30.4866 18.0613 31.1263 20.2918 31.1251Z" fill="#98EF7E"/>
<path d="M20.2918 31.1251V30.6251H20.2915L20.2918 31.1251ZM31.9535 18.9204L31.6605 18.5153L31.442 18.6733L31.454 18.9426L31.9535 18.9204ZM34 16.7962L34.4158 17.0739L35.3755 15.637L33.7968 16.3394L34 16.7962ZM31.6449 17.4407L31.3879 17.0119L31.7026 17.9374L31.6449 17.4407ZM33.4492 15.1716L33.925 15.3254L34.3318 14.0673L33.1943 14.7415L33.4492 15.1716ZM30.8445 16.1673L30.4804 16.51L30.6701 16.7115L30.9415 16.6578L30.8445 16.1673ZM23.8496 19.9087L23.8245 20.4081L24.4859 20.4413L24.3368 19.7961L23.8496 19.9087ZM15.3941 15.6247L15.782 15.3091L15.3249 14.7475L14.9616 15.3739L15.3941 15.6247ZM16.6637 21.1001L16.6478 21.5999L18.393 21.6553L16.9417 20.6845L16.6637 21.1001ZM14.8047 20.5884L15.0468 20.1509L14.3047 19.7402V20.5884H14.8047ZM14.8047 20.6392L15.3047 20.6395V20.6392H14.8047ZM18.0969 24.6626L18.2288 25.1449L18.1955 24.1724L18.0969 24.6626ZM16.2457 24.7329L16.3407 24.242L15.5109 24.0815L15.7697 24.886L16.2457 24.7329ZM20.077 27.5845L20.3858 27.9777L21.487 27.1127L20.087 27.0846L20.077 27.5845ZM14.9805 29.3423L14.9813 28.8423H14.9812L14.9805 29.3423ZM14 29.2821L14.0604 28.7858L13.73 29.703L14 29.2821ZM20.2918 31.6251C28.1707 31.6251 32.4652 25.0874 32.4652 19.4517H31.4652C31.4652 24.6574 27.5036 30.6251 20.2918 30.6251V31.6251ZM32.4652 19.4517C32.4652 19.2686 32.4612 19.0816 32.453 18.8982L31.454 18.9426C31.4615 19.1109 31.4652 19.2831 31.4652 19.4517H32.4652ZM32.2465 19.3256C33.0977 18.71 33.8323 17.9475 34.4158 17.0739L33.5842 16.5185C33.0668 17.2932 32.4154 17.9694 31.6605 18.5153L32.2465 19.3256ZM33.7968 16.3394C33.0951 16.6516 32.3501 16.8555 31.5872 16.9441L31.7026 17.9374C32.566 17.8371 33.4091 17.6063 34.2032 17.253L33.7968 16.3394ZM31.902 17.8696C32.8619 17.2942 33.5806 16.3903 33.925 15.3254L32.9735 15.0178C32.7036 15.8524 32.1402 16.5609 31.3879 17.0119L31.902 17.8696ZM33.1943 14.7415C32.4377 15.1898 31.6103 15.5061 30.7475 15.6768L30.9415 16.6578C31.9157 16.4651 32.8499 16.108 33.7041 15.6017L33.1943 14.7415ZM31.2086 15.8246C30.5145 15.0871 29.5967 14.5987 28.5972 14.4351L28.4356 15.4219C29.2183 15.5501 29.9369 15.9325 30.4804 16.51L31.2086 15.8246ZM28.5972 14.4351C27.5977 14.2714 26.5721 14.4416 25.679 14.9193L26.1506 15.8011C26.8499 15.4271 27.653 15.2938 28.4356 15.4219L28.5972 14.4351ZM25.679 14.9193C24.7859 15.397 24.075 16.1556 23.6563 17.0778L24.5668 17.4913C24.8947 16.7691 25.4513 16.1751 26.1506 15.8011L25.679 14.9193ZM23.6563 17.0778C23.2375 18.0001 23.1343 19.0345 23.3625 20.0213L24.3368 19.7961C24.1581 19.0234 24.2389 18.2134 24.5668 17.4913L23.6563 17.0778ZM23.8747 19.4093C22.3138 19.331 20.7868 18.9255 19.3926 18.2192L18.9407 19.1112C20.4598 19.8809 22.1237 20.3227 23.8245 20.4081L23.8747 19.4093ZM19.3926 18.2192C17.9985 17.5128 16.7684 16.5214 15.782 15.3091L15.0063 15.9403C16.0811 17.2612 17.4215 18.3416 18.9407 19.1112L19.3926 18.2192ZM14.9616 15.3739C14.3741 16.3869 14.1943 17.5856 14.4588 18.7265L15.4329 18.5006C15.2258 17.6074 15.3666 16.6688 15.8267 15.8756L14.9616 15.3739ZM14.4588 18.7265C14.7233 19.8673 15.4123 20.8646 16.3857 21.5157L16.9417 20.6845C16.1795 20.1747 15.64 19.3938 15.4329 18.5006L14.4588 18.7265ZM16.6795 20.6004C16.1073 20.5822 15.5477 20.4281 15.0468 20.1509L14.5626 21.0259C15.2023 21.3799 15.917 21.5767 16.6478 21.5999L16.6795 20.6004ZM14.3047 20.5884V20.6392H15.3047V20.5884H14.3047ZM14.3047 20.6389C14.304 21.7021 14.6716 22.7328 15.345 23.5557L16.1189 22.9225C15.5919 22.2784 15.3042 21.4717 15.3047 20.6395L14.3047 20.6389ZM15.345 23.5557C16.0183 24.3786 16.9558 24.943 17.9982 25.1528L18.1955 24.1724C17.3797 24.0082 16.6459 23.5665 16.1189 22.9225L15.345 23.5557ZM17.9649 24.1803C17.4354 24.3252 16.8797 24.3463 16.3407 24.242L16.1507 25.2238C16.8403 25.3573 17.5513 25.3302 18.2288 25.1449L17.9649 24.1803ZM15.7697 24.886C16.0638 25.8002 16.6359 26.5998 17.4063 27.1732L18.0033 26.371C17.4 25.9219 16.952 25.2958 16.7217 24.5798L15.7697 24.886ZM17.4063 27.1732C18.1766 27.7465 19.1068 28.0651 20.0669 28.0844L20.087 27.0846C19.3351 27.0695 18.6066 26.82 18.0033 26.371L17.4063 27.1732ZM19.7681 27.1913C18.4031 28.2635 16.717 28.845 14.9813 28.8423L14.9797 29.8423C16.94 29.8454 18.8443 29.1886 20.3858 27.9777L19.7681 27.1913ZM14.9812 28.8423C14.6734 28.8418 14.3659 28.823 14.0604 28.7858L13.9396 29.7785C14.2847 29.8205 14.6321 29.8418 14.9797 29.8423L14.9812 28.8423ZM13.73 29.703C15.688 30.9592 17.9657 31.6263 20.2921 31.6251L20.2915 30.6251C18.1568 30.6262 16.0667 30.014 14.27 28.8613L13.73 29.703Z" fill="#029844" mask="url(#path-4-inside-1_276_17660)"/>
</g>
<defs>
<filter id="filter0_d_276_17660" x="0" y="0" width="48" height="48" filterUnits="userSpaceOnUse" color-interpolation-filters="sRGB">
<feFlood flood-opacity="0" result="BackgroundImageFix"/>
<feColorMatrix in="SourceAlpha" type="matrix" values="0 0 0 0 0 0 0 0 0 0 0 0 0 0 0 0 0 0 127 0" result="hardAlpha"/>
<feOffset dy="1"/>
<feGaussianBlur stdDeviation="1"/>
<feColorMatrix type="matrix" values="0 0 0 0 0.0627451 0 0 0 0 0.0941176 0 0 0 0 0.156863 0 0 0 0.05 0"/>
<feBlend mode="normal" in2="BackgroundImageFix" result="effect1_dropShadow_276_17660"/>
<feBlend mode="normal" in="SourceGraphic" in2="effect1_dropShadow_276_17660" result="shape"/>
</filter>
</defs>
</svg>
