<svg width="48" height="48" viewBox="0 0 48 48" fill="none" xmlns="http://www.w3.org/2000/svg">
<circle cx="24" cy="24" r="23.5" stroke="#98EF7E" stroke-opacity="0.24"/>
<path fill-rule="evenodd" clip-rule="evenodd" d="M23.9374 15.4375C21.3818 15.4375 19.3291 17.4902 19.3291 20.0458C19.3291 22.602 21.3816 24.6549 23.9374 24.6549C26.4931 24.6549 28.5456 22.602 28.5456 20.0458C28.5456 17.4902 26.4929 15.4375 23.9374 15.4375ZM23.9374 16.9375C25.6645 16.9375 27.0456 18.3186 27.0456 20.0457C27.0456 21.7737 25.6646 23.1549 23.9374 23.1549C22.2101 23.1549 20.8291 21.7737 20.8291 20.0457C20.8291 18.3186 22.2102 16.9375 23.9374 16.9375ZM18.2899 16.3794C18.7041 16.3794 19.0399 16.7152 19.0399 17.1294C19.0399 17.5436 18.7041 17.8794 18.2899 17.8794C17.1016 17.8794 16.1378 18.8428 16.1378 20.0306C16.1378 21.2185 17.1016 22.1819 18.2899 22.1819C18.7041 22.1819 19.0399 22.5177 19.0399 22.9319C19.0399 23.3461 18.7041 23.6819 18.2899 23.6819C16.2733 23.6819 14.6378 22.0471 14.6378 20.0306C14.6378 18.0142 16.2733 16.3794 18.2899 16.3794ZM33.247 20.0306C33.247 18.0142 31.6115 16.3794 29.5948 16.3794C29.1806 16.3794 28.8448 16.7152 28.8448 17.1294C28.8448 17.5436 29.1806 17.8794 29.5948 17.8794C30.7832 17.8794 31.747 18.8428 31.747 20.0306C31.747 21.2185 30.7832 22.1819 29.5948 22.1819C29.1806 22.1819 28.8448 22.5177 28.8448 22.9319C28.8448 23.3461 29.1806 23.6819 29.5948 23.6819C31.6115 23.6819 33.247 22.0471 33.247 20.0306ZM32.4955 25.555C32.0153 25.4466 31.5021 25.3725 30.9803 25.3365C30.5671 25.308 30.209 25.6199 30.1805 26.0331C30.152 26.4464 30.4639 26.8045 30.8771 26.833C31.3237 26.8638 31.7613 26.9269 32.1867 27.0227C32.8484 27.1525 33.2798 27.3678 33.3869 27.5921C33.4674 27.7615 33.4674 27.9606 33.3861 28.132C33.2805 28.3541 32.8527 28.5682 32.2003 28.7024C31.7946 28.7858 31.5333 29.1823 31.6168 29.5881C31.7002 29.9938 32.0967 30.2551 32.5025 30.1716C33.5807 29.9499 34.3705 29.5546 34.741 28.7756C35.0157 28.1964 35.0157 27.5247 34.7411 26.947C34.3679 26.1651 33.5645 25.7643 32.4955 25.555ZM17.7039 26.0331C17.6754 25.6199 17.3174 25.308 16.9041 25.3365C16.3823 25.3725 15.8692 25.4466 15.3684 25.5593L15.1619 25.603C14.2143 25.8195 13.4914 26.2174 13.1444 26.9469C12.8685 27.5241 12.8685 28.197 13.1446 28.7762C13.5136 29.5544 14.3033 29.9498 15.382 30.1716C15.7877 30.2551 16.1843 29.9938 16.2677 29.5881C16.3511 29.1823 16.0898 28.7858 15.6841 28.7024C15.032 28.5683 14.6047 28.3543 14.4993 28.1321C14.4173 27.96 14.4173 27.7621 14.4983 27.5925C14.6053 27.3676 15.0363 27.1525 15.6771 27.027L16.0104 26.9588C16.3426 26.8974 16.6724 26.8561 17.0073 26.833C17.4206 26.8045 17.7324 26.4464 17.7039 26.0331ZM17.167 29.1845C17.167 26.7986 19.635 25.9595 23.9377 25.9595L24.2425 25.961C28.3655 25.9997 30.7084 26.8407 30.7084 29.1671C30.7084 31.4388 28.4688 32.3087 24.5397 32.3863L23.9377 32.3921C19.6251 32.3921 17.167 31.5678 17.167 29.1845ZM29.2084 29.1671C29.2084 28.0566 27.4278 27.4595 23.9377 27.4595C20.451 27.4595 18.667 28.0661 18.667 29.1845C18.667 30.2952 20.447 30.8921 23.9377 30.8921C27.4234 30.8921 29.2084 30.2851 29.2084 29.1671Z" fill="#98EF7E"/>
</svg>
