<svg width="49" height="48" viewBox="0 0 49 48" fill="none" xmlns="http://www.w3.org/2000/svg">
<circle cx="24.75" cy="24" r="23.5" stroke="#98EF7E" stroke-opacity="0.24"/>
<g clip-path="url(#clip0_369_14803)">
<g clip-path="url(#clip1_369_14803)">
<path fill-rule="evenodd" clip-rule="evenodd" d="M18.421 32.7C18.685 33.193 19.2 33.501 19.76 33.5C19.996 33.501 20.23 33.446 20.44 33.34L24.992 30.96C25.004 30.953 25.018 30.949 25.032 30.95L29.553 33.31C29.772 33.428 30.017 33.489 30.265 33.488C30.344 33.488 30.424 33.481 30.502 33.47C31.316 33.337 31.872 32.575 31.752 31.76L30.872 26.75C30.8671 26.7429 30.8656 26.7424 30.8652 26.7416C30.865 26.7412 30.865 26.7409 30.865 26.74C30.865 26.737 30.872 26.73 30.872 26.73L34.542 23.18C35.084 22.657 35.153 21.814 34.702 21.21C34.457 20.894 34.098 20.686 33.702 20.63L28.64 19.9C28.631 19.9 28.621 19.89 28.611 19.88L26.35 15.34C26.095 14.827 25.573 14.503 25 14.5C24.834 14.5 24.668 14.526 24.51 14.58C24.131 14.709 23.818 14.981 23.64 15.34L21.382 19.867C21.382 19.888 21.361 19.897 21.341 19.897L16.291 20.627C15.982 20.679 15.694 20.817 15.461 21.027C15.166 21.316 15 21.713 15 22.127C15.001 22.52 15.159 22.896 15.44 23.17L19.14 26.73C19.148 26.738 19.151 26.749 19.151 26.76L18.26 31.75C18.207 32.076 18.264 32.41 18.421 32.7ZM24.971 15.967L24.981 15.96H25L25.009 15.969C25.018 15.969 25.026 15.971 25.033 15.977C25.039 15.983 25.042 15.991 25.041 16L27.301 20.519C27.518 20.964 27.94 21.274 28.43 21.349L33.492 22.085C33.501 22.085 33.51 22.087 33.518 22.091C33.523 22.092 33.527 22.092 33.532 22.091L33.542 22.1L33.532 22.122L29.862 25.681C29.497 26.023 29.334 26.529 29.431 27.02L30.312 32.001L30.292 32.02H30.271C30.267 32.022 30.263 32.022 30.259 32.02C30.249 32.019 30.239 32.015 30.23 32.01H30.221L25.721 29.66C25.505 29.548 25.265 29.488 25.021 29.489C24.77 29.489 24.522 29.552 24.3 29.67L19.771 32.045C19.766 32.046 19.76 32.046 19.755 32.045C19.734 32.045 19.716 32.031 19.711 32.011V31.991L20.591 27.011C20.673 26.524 20.513 26.027 20.161 25.681L16.461 22.131C16.46 22.116 16.462 22.103 16.47 22.09L16.531 22.07L21.561 21.349C22.051 21.273 22.472 20.964 22.69 20.519L24.951 15.989C24.956 15.98 24.962 15.972 24.971 15.967Z" fill="#98EF7E"/>
</g>
</g>
<defs>
<clipPath id="clip0_369_14803">
<rect width="24" height="24" fill="white" transform="translate(12.75 12)"/>
</clipPath>
<clipPath id="clip1_369_14803">
<rect width="24" height="24" fill="white" transform="translate(12.75 12)"/>
</clipPath>
</defs>
</svg>
