<svg width="908" height="1249" viewBox="0 0 908 1249" fill="none" xmlns="http://www.w3.org/2000/svg">
<path d="M585.254 340.089C585.07 340.089 584.908 339.982 584.793 339.822C584.632 339.556 584.655 339.182 584.839 338.969L654.022 256.282C654.207 256.069 654.483 256.015 654.714 256.149C654.945 256.282 655.06 256.602 654.991 256.896L645.766 303.12C645.72 303.307 645.628 303.467 645.467 303.574L585.508 340.036C585.508 340.036 585.323 340.116 585.231 340.116L585.254 340.089ZM653.4 258.923L588.16 336.888L644.706 302.507L653.4 258.923Z" fill="#F1F1F1" fill-opacity="0.33"/>
<path d="M645.213 303.627C645.213 303.627 645.052 303.627 644.983 303.574C644.729 303.441 644.591 303.12 644.66 302.827L653.884 256.602C653.884 256.602 653.976 256.362 654.046 256.256L715.549 191.36C715.78 191.12 716.103 191.12 716.334 191.36C716.564 191.6 716.587 191.973 716.403 192.24L645.675 303.387C645.559 303.574 645.398 303.654 645.213 303.654V303.627ZM654.968 257.083L646.412 299.973L712.021 196.881L654.968 257.083Z" fill="#F1F1F1" fill-opacity="0.33"/>
<path d="M737.457 207.604C737.457 207.604 737.249 207.577 737.157 207.497L715.641 192.373C715.48 192.267 715.387 192.08 715.364 191.866C715.364 191.653 715.41 191.44 715.549 191.306L786.277 114.834C786.485 114.594 786.807 114.594 787.038 114.808C787.269 115.021 787.315 115.395 787.153 115.688L737.964 207.257C737.849 207.47 737.664 207.577 737.48 207.577L737.457 207.604ZM716.886 191.706L737.272 206.03L783.879 119.289L716.886 191.706Z" fill="#F1F1F1" fill-opacity="0.33"/>
<path d="M786.646 116.035C786.439 116.035 786.254 115.902 786.139 115.688C786.001 115.421 786.047 115.075 786.254 114.861L848.519 50.8458C848.727 50.6324 849.05 50.6324 849.257 50.8458C849.465 51.0592 849.534 51.406 849.396 51.6994L824.028 102.378C823.959 102.512 823.844 102.618 823.706 102.672L786.808 116.008C786.808 116.008 786.693 116.035 786.646 116.035ZM846.628 54.6067L789.045 113.821L823.175 101.498L846.628 54.6334V54.6067Z" fill="#F1F1F1" fill-opacity="0.33"/>
<path d="M848.911 52.0193C848.727 52.0193 848.543 51.9126 848.45 51.7526C848.266 51.4592 848.312 51.0857 848.543 50.8457L900.038 0.166707C900.176 0.0333414 900.338 -0.0200049 900.499 0.00666829C900.66 0.0333414 900.822 0.140034 900.891 0.326746L907.048 11.8762C907.141 12.0363 907.164 12.223 907.118 12.383C907.071 12.5697 906.979 12.7031 906.841 12.8098L849.188 51.9393C849.188 51.9393 849.004 52.0193 848.888 52.0193H848.911ZM900.291 1.68708L854.331 46.9247L905.78 12.0096L900.291 1.68708Z" fill="#F1F1F1" fill-opacity="0.33"/>
<path d="M572.179 394.316C572.179 394.316 571.994 394.289 571.902 394.236C571.672 394.076 571.556 393.782 571.625 393.462L584.701 339.236C584.747 339.049 584.839 338.915 584.978 338.835L644.936 302.373C645.19 302.24 645.49 302.293 645.651 302.56C645.813 302.827 645.813 303.173 645.605 303.414L572.571 394.102C572.456 394.236 572.294 394.316 572.156 394.316H572.179ZM585.739 339.876L573.378 391.195L642.492 305.387L585.762 339.876H585.739Z" fill="#F1F1F1" fill-opacity="0.33"/>
<path d="M572.18 436.992C572.041 436.992 571.926 436.939 571.811 436.832L551.056 417.281C550.917 417.174 550.848 416.988 550.848 416.801C550.848 416.614 550.917 416.427 551.033 416.294L571.788 393.168C571.949 392.982 572.203 392.928 572.41 393.035C572.618 393.142 572.756 393.382 572.756 393.649V436.326C572.756 436.592 572.618 436.806 572.433 436.939C572.364 436.992 572.272 436.992 572.18 436.992ZM552.301 416.721L571.603 434.912V395.196L552.301 416.694V416.721Z" fill="#F1F1F1" fill-opacity="0.33"/>
<path d="M572.178 447.662C572.178 447.662 572.04 447.662 571.994 447.635C571.763 447.529 571.602 447.289 571.602 446.995V436.326C571.602 436.112 571.694 435.926 571.832 435.792L591.042 419.335C591.273 419.122 591.595 419.175 591.803 419.415C592.011 419.655 592.011 420.029 591.826 420.295L572.616 447.422C572.501 447.582 572.34 447.662 572.178 447.662ZM572.755 436.673V445.128L587.998 423.603L572.755 436.646V436.673Z" fill="#F1F1F1" fill-opacity="0.33"/>
<path d="M591.411 420.562C591.25 420.562 591.088 420.482 590.996 420.322L571.786 394.102C571.671 393.942 571.625 393.729 571.671 393.516C571.717 393.302 571.832 393.142 571.994 393.062L647.703 352.172C647.957 352.039 648.257 352.119 648.418 352.386C648.58 352.652 648.556 352.999 648.349 353.239L591.849 420.375C591.849 420.375 591.596 420.589 591.434 420.589L591.411 420.562ZM573.124 393.889L591.434 418.908L645.305 354.92L573.124 393.916V393.889Z" fill="#F1F1F1" fill-opacity="0.33"/>
<path d="M572.178 436.993C572.178 436.993 571.994 436.993 571.924 436.913C571.74 436.806 571.602 436.566 571.602 436.326V393.649C571.602 393.382 571.763 393.116 571.971 393.036C572.201 392.929 572.455 393.036 572.616 393.222L591.826 419.442C591.918 419.575 591.988 419.762 591.964 419.949C591.964 420.135 591.872 420.295 591.734 420.402L572.524 436.859C572.524 436.859 572.293 436.993 572.178 436.993ZM572.755 395.463V434.992L590.558 419.762L572.755 395.463Z" fill="#F1F1F1" fill-opacity="0.33"/>
<path d="M647.911 353.426C647.911 353.426 647.773 353.426 647.727 353.399C647.496 353.319 647.358 353.079 647.335 352.812L644.637 303.013C644.637 302.693 644.798 302.4 645.075 302.32L699.268 285.862C699.522 285.809 699.776 285.916 699.914 286.156C700.052 286.396 700.029 286.716 699.845 286.956L648.35 353.185C648.234 353.319 648.073 353.399 647.911 353.399V353.426ZM645.813 303.467L648.396 351.132L697.7 287.73L645.836 303.467H645.813Z" fill="#F1F1F1" fill-opacity="0.33"/>
<path d="M572.178 394.316C571.994 394.316 571.832 394.209 571.717 394.049C571.555 393.782 571.578 393.436 571.763 393.196L644.797 302.507C644.959 302.32 645.189 302.24 645.42 302.32C645.627 302.4 645.789 302.64 645.789 302.907L648.487 352.706C648.487 352.972 648.372 353.239 648.164 353.346L572.455 394.236C572.455 394.236 572.293 394.289 572.201 394.289L572.178 394.316ZM644.728 304.561L574.646 391.595L647.311 352.332L644.728 304.534V304.561Z" fill="#F1F1F1" fill-opacity="0.33"/>
<path d="M699.407 287.197C699.292 287.197 699.176 287.143 699.061 287.063C698.83 286.876 698.761 286.503 698.9 286.21L736.95 206.644C737.066 206.404 737.319 206.244 737.55 206.297C737.781 206.35 737.988 206.564 738.011 206.83L741.862 233.05C741.885 233.263 741.862 233.45 741.724 233.61L699.822 286.956C699.707 287.09 699.545 287.17 699.407 287.17V287.197ZM737.158 208.938L702.29 281.835L740.663 232.97L737.135 208.938H737.158Z" fill="#F1F1F1" fill-opacity="0.33"/>
<path d="M645.213 303.627C645.005 303.627 644.798 303.494 644.705 303.28C644.59 303.014 644.636 302.667 644.821 302.48L737.065 206.457C737.272 206.243 737.595 206.217 737.803 206.457C738.033 206.67 738.08 207.017 737.941 207.31L699.891 286.876C699.821 287.036 699.683 287.143 699.522 287.196L645.328 303.654C645.328 303.654 645.236 303.654 645.19 303.654L645.213 303.627ZM735.289 210.111L647.357 301.627L699.014 285.943L735.289 210.084V210.111Z" fill="#F1F1F1" fill-opacity="0.33"/>
<path d="M645.214 303.627C645.075 303.627 644.937 303.574 644.821 303.467C644.614 303.227 644.568 302.853 644.752 302.587L715.481 191.44C715.665 191.173 715.988 191.093 716.242 191.253L737.758 206.377C737.919 206.483 738.011 206.67 738.034 206.883C738.034 207.097 737.988 207.31 737.85 207.444L645.606 303.467C645.606 303.467 645.352 303.627 645.214 303.627ZM716.08 192.72L649.019 298.106L736.489 207.044L716.08 192.72Z" fill="#F1F1F1" fill-opacity="0.33"/>
<path d="M741.309 233.85C741.309 233.85 741.194 233.85 741.148 233.85C740.94 233.77 740.779 233.583 740.733 233.316L736.881 207.097C736.835 206.83 736.928 206.59 737.112 206.43L798.616 157.538C798.846 157.351 799.192 157.405 799.377 157.645C799.561 157.885 799.561 158.285 799.377 158.525L741.724 233.663C741.609 233.797 741.447 233.877 741.286 233.877L741.309 233.85ZM738.081 207.257L741.655 231.689L795.364 161.699L738.081 207.257Z" fill="#F1F1F1" fill-opacity="0.33"/>
<path d="M737.457 207.604C737.319 207.604 737.181 207.551 737.065 207.417C736.881 207.204 736.835 206.857 736.973 206.59L786.162 115.021C786.278 114.808 786.508 114.675 786.716 114.701C786.946 114.728 787.131 114.915 787.2 115.155L799.492 157.832C799.584 158.125 799.491 158.419 799.261 158.605L737.757 207.497C737.757 207.497 737.55 207.604 737.434 207.604H737.457ZM786.485 116.915L739.394 204.59L798.269 157.779L786.485 116.915Z" fill="#F1F1F1" fill-opacity="0.33"/>
<path d="M798.961 158.712C798.961 158.712 798.73 158.685 798.638 158.605C798.407 158.418 798.315 158.045 798.453 157.752L823.059 101.738C823.128 101.605 823.221 101.471 823.359 101.418L850.64 88.9615C850.894 88.8548 851.171 88.9615 851.332 89.2016C851.494 89.4416 851.47 89.7884 851.286 90.0285L799.399 158.498C799.283 158.658 799.122 158.738 798.961 158.738V158.712ZM823.959 102.565L801.543 153.617L848.842 91.2287L823.959 102.565Z" fill="#F1F1F1" fill-opacity="0.33"/>
<path d="M798.962 158.712C798.962 158.712 798.939 158.712 798.915 158.712C798.685 158.712 798.477 158.525 798.408 158.259L786.117 115.582C786.071 115.422 786.07 115.235 786.14 115.075C786.209 114.915 786.324 114.808 786.486 114.755L823.383 101.418C823.614 101.338 823.844 101.418 823.983 101.632C824.144 101.845 824.167 102.138 824.052 102.352L799.446 158.365C799.354 158.579 799.146 158.739 798.939 158.739L798.962 158.712ZM787.385 115.795L799.054 156.311L822.415 103.125L787.385 115.795Z" fill="#F1F1F1" fill-opacity="0.33"/>
<path d="M850.848 90.2418C850.848 90.2418 850.733 90.2418 850.664 90.2152C850.433 90.1351 850.295 89.8951 850.272 89.6283L848.357 51.4057C848.357 51.1657 848.45 50.9256 848.634 50.7923L906.287 11.6628C906.54 11.5027 906.84 11.5561 907.025 11.7961C907.209 12.0362 907.209 12.4096 907.025 12.6497L851.286 90.0018C851.171 90.1618 851.009 90.2418 850.848 90.2418ZM849.51 51.7258L851.332 87.8679L904.004 14.7569L849.51 51.7258Z" fill="#F1F1F1" fill-opacity="0.33"/>
<path d="M823.545 102.699C823.383 102.699 823.222 102.619 823.107 102.458C822.945 102.245 822.922 101.925 823.037 101.685L848.405 51.006C848.543 50.7393 848.797 50.6326 849.027 50.6859C849.281 50.766 849.465 51.006 849.465 51.2994L851.379 89.522C851.379 89.8154 851.241 90.0822 851.01 90.1889L823.729 102.645C823.729 102.645 823.591 102.699 823.522 102.699H823.545ZM848.451 53.62L824.882 100.725L850.249 89.1486L848.451 53.62Z" fill="#F1F1F1" fill-opacity="0.33"/>
<path d="M542.983 573.026C542.752 573.026 542.522 572.866 542.452 572.599L529.008 531.709C528.916 531.442 529.008 531.149 529.169 530.962L542.614 517.172C542.775 517.012 543.029 516.959 543.237 517.065C543.444 517.172 543.582 517.412 543.582 517.679V572.359C543.582 572.679 543.375 572.946 543.098 573.026C543.075 573.026 543.029 573.026 543.006 573.026H542.983ZM530.207 531.656L542.406 568.731V519.173L530.207 531.656Z" fill="#F1F1F1" fill-opacity="0.33"/>
<path d="M565.652 545.686C565.491 545.686 565.352 545.606 565.237 545.472L542.568 518.132C542.407 517.946 542.361 517.652 542.453 517.412C542.545 517.172 542.753 517.012 542.983 517.012H561.824C562.101 517.012 562.354 517.252 562.401 517.572L566.252 544.912C566.298 545.205 566.16 545.472 565.929 545.606C565.837 545.659 565.767 545.686 565.675 545.686H565.652ZM544.321 518.346L564.776 543.018L561.317 518.346H544.321Z" fill="#F1F1F1" fill-opacity="0.33"/>
<path d="M600.244 599.699H600.198L572.133 596.578C571.856 596.551 571.649 596.311 571.625 596.018L565.099 545.126C565.053 544.832 565.215 544.539 565.445 544.405C565.699 544.299 565.976 544.405 566.137 544.619L600.729 598.632C600.867 598.845 600.89 599.139 600.775 599.352C600.682 599.565 600.475 599.699 600.267 599.699H600.244ZM572.686 595.324L598.999 598.232L566.552 547.553L572.686 595.298V595.324Z" fill="#F1F1F1" fill-opacity="0.33"/>
<path d="M551.424 615.276C551.424 615.276 551.286 615.276 551.24 615.249C551.055 615.169 550.917 614.983 550.871 614.769L542.407 572.546C542.361 572.279 542.453 571.985 542.638 571.852C542.822 571.692 543.099 571.692 543.284 571.852L572.502 595.404C572.663 595.538 572.756 595.725 572.756 595.938C572.756 596.151 572.686 596.365 572.525 596.471L551.77 615.143C551.77 615.143 551.539 615.276 551.424 615.276ZM543.883 573.906L551.793 613.435L571.211 595.965L543.883 573.906Z" fill="#F1F1F1" fill-opacity="0.33"/>
<path d="M572.179 596.605C572.179 596.605 571.949 596.578 571.856 596.498L542.638 572.946C542.477 572.812 542.384 572.626 542.384 572.385V517.706C542.384 517.385 542.569 517.119 542.845 517.039C543.122 516.985 543.376 517.145 543.491 517.439L572.71 595.671C572.802 595.938 572.756 596.258 572.548 596.445C572.433 596.551 572.318 596.605 572.179 596.605ZM543.56 572.012L570.865 594.044L543.56 520.906V572.012Z" fill="#F1F1F1" fill-opacity="0.33"/>
<path d="M572.179 596.605C571.948 596.605 571.741 596.445 571.648 596.205L542.43 517.972C542.315 517.679 542.43 517.332 542.638 517.145C542.868 516.959 543.191 517.012 543.375 517.252L566.044 544.592C566.044 544.592 566.183 544.832 566.206 544.965L572.732 595.858C572.778 596.178 572.594 596.498 572.317 596.605C572.271 596.605 572.202 596.605 572.156 596.605H572.179ZM544.782 520.826L570.98 591.003L565.122 545.339L544.782 520.826Z" fill="#F1F1F1" fill-opacity="0.33"/>
<path d="M618.116 685.72C617.909 685.72 617.724 685.613 617.632 685.4L571.118 595.591C571.002 595.378 571.002 595.111 571.118 594.898C571.233 594.684 571.441 594.578 571.648 594.578L599.713 597.698C599.967 597.725 600.152 597.938 600.221 598.205L618.67 684.893C618.739 685.213 618.6 685.533 618.324 685.666C618.255 685.693 618.185 685.72 618.116 685.72ZM572.686 596.045L616.64 680.919L599.206 599.005L572.686 596.071V596.045Z" fill="#F1F1F1" fill-opacity="0.33"/>
<path d="M577.944 721.515C577.69 721.515 577.46 721.328 577.39 721.035L550.87 614.796C550.801 614.529 550.87 614.262 551.078 614.076L571.833 595.405C571.994 595.244 572.225 595.218 572.432 595.325C572.617 595.431 572.755 595.645 572.778 595.885L578.543 720.795C578.543 721.142 578.359 721.435 578.059 721.488C578.036 721.488 577.99 721.488 577.967 721.488L577.944 721.515ZM552.092 614.849L577.114 715.06L571.671 597.245L552.092 614.849Z" fill="#F1F1F1" fill-opacity="0.33"/>
<path d="M640.209 795.32C640.001 795.32 639.794 795.186 639.701 794.946L594.917 689.587C594.825 689.401 594.848 689.161 594.917 688.974C595.009 688.787 595.17 688.654 595.355 688.627L618.6 685.08C618.9 685.053 619.177 685.266 619.246 685.586L640.762 794.493C640.831 794.813 640.67 795.16 640.393 795.266C640.324 795.266 640.255 795.293 640.209 795.293V795.32ZM596.3 689.827L638.548 789.212L618.255 686.467L596.323 689.827H596.3Z" fill="#F1F1F1" fill-opacity="0.33"/>
<path d="M640.209 795.32C640.047 795.32 639.909 795.24 639.794 795.106L577.529 721.302C577.344 721.088 577.321 720.741 577.46 720.475L594.94 688.92C595.055 688.707 595.286 688.6 595.447 688.6C595.655 688.6 595.839 688.76 595.931 688.974L640.716 794.333C640.831 794.626 640.762 794.973 640.532 795.159C640.439 795.239 640.324 795.293 640.209 795.293V795.32ZM578.682 720.768L638.11 791.185L595.378 690.628L578.682 720.741V720.768Z" fill="#F1F1F1" fill-opacity="0.33"/>
<path d="M594.847 689.294C594.594 689.294 594.363 689.107 594.294 688.814L571.048 595.458C570.956 595.138 571.117 594.791 571.371 594.658C571.648 594.524 571.948 594.658 572.086 594.925L618.6 684.733C618.692 684.92 618.715 685.16 618.623 685.373C618.531 685.587 618.369 685.72 618.185 685.747L594.939 689.294C594.939 689.294 594.893 689.294 594.87 689.294H594.847ZM573.377 599.992L595.262 687.88L617.147 684.546L573.354 600.019L573.377 599.992Z" fill="#F1F1F1" fill-opacity="0.33"/>
<path d="M577.943 721.515C577.943 721.515 577.851 721.515 577.805 721.515C577.551 721.435 577.39 721.195 577.367 720.902L571.602 595.991C571.602 595.645 571.786 595.351 572.086 595.298C572.386 595.218 572.662 595.431 572.732 595.778L595.977 689.134C596.023 689.321 595.977 689.507 595.908 689.667L578.428 721.222C578.312 721.408 578.128 721.542 577.943 721.542V721.515ZM573.031 601.726L578.428 718.741L594.801 689.187L573.008 601.726H573.031Z" fill="#F1F1F1" fill-opacity="0.33"/>
<path d="M611.383 858.428C611.383 858.428 611.336 858.428 611.313 858.428C611.083 858.402 610.875 858.215 610.829 857.948L577.391 721.035C577.321 720.742 577.437 720.422 577.667 720.262C577.898 720.101 578.175 720.155 578.359 720.368L640.624 794.173C640.808 794.386 640.831 794.706 640.716 794.946L611.89 858.082C611.798 858.295 611.59 858.428 611.383 858.428ZM579.12 723.196L611.544 856.001L639.494 794.786L579.097 723.222L579.12 723.196Z" fill="#F1F1F1" fill-opacity="0.33"/>
<path d="M660.595 911.348C660.595 911.348 660.387 911.321 660.295 911.241L633.383 892.57C633.198 892.437 633.083 892.197 633.106 891.956L639.632 794.6C639.632 794.279 639.886 794.013 640.163 793.986H640.209C640.485 793.986 640.716 794.199 640.785 794.519L661.148 910.548C661.194 910.814 661.102 911.081 660.918 911.214C660.825 911.294 660.71 911.348 660.595 911.348ZM634.282 891.636L659.765 909.321L640.486 799.454L634.305 891.636H634.282Z" fill="#F1F1F1" fill-opacity="0.33"/>
<path d="M633.682 892.676C633.498 892.676 633.336 892.57 633.221 892.41L610.921 858.188C610.782 857.975 610.759 857.708 610.875 857.468L639.701 794.332C639.839 794.066 640.116 793.906 640.37 794.012C640.623 794.092 640.808 794.386 640.785 794.706L634.259 892.063C634.259 892.33 634.074 892.57 633.843 892.65C633.797 892.65 633.728 892.65 633.682 892.65V892.676ZM612.074 857.708L633.221 890.196L639.424 797.8L612.074 857.708Z" fill="#F1F1F1" fill-opacity="0.33"/>
<path d="M628.679 930.446C628.425 930.446 628.195 930.259 628.126 929.965L610.83 857.948C610.761 857.628 610.876 857.308 611.13 857.174C611.383 857.041 611.683 857.121 611.845 857.361L634.145 891.583C634.237 891.716 634.283 891.903 634.26 892.09L629.256 929.885C629.209 930.206 629.002 930.419 628.725 930.446H628.702H628.679ZM612.767 860.989L628.518 926.631L633.084 892.196L612.767 860.989Z" fill="#F1F1F1" fill-opacity="0.33"/>
<path d="M674.8 1002.04C674.593 1002.04 674.408 1001.93 674.316 1001.72L652.408 959.92C652.339 959.786 652.316 959.626 652.339 959.466L660.018 910.574C660.064 910.254 660.295 910.014 660.595 910.014C660.871 910.014 661.102 910.254 661.171 910.574L675.4 1001.26C675.446 1001.58 675.308 1001.9 675.031 1002.01C674.962 1002.04 674.892 1002.06 674.823 1002.06L674.8 1002.04ZM653.515 959.439L673.693 997.929L660.595 914.415L653.515 959.439Z" fill="#F1F1F1" fill-opacity="0.33"/>
<path d="M652.893 960.24C652.639 960.24 652.431 960.053 652.339 959.786L633.129 892.223C633.06 891.956 633.129 891.663 633.314 891.503C633.498 891.343 633.752 891.316 633.983 891.45L660.895 910.121C661.102 910.254 661.218 910.548 661.172 910.814L653.492 959.706C653.446 960 653.215 960.24 652.962 960.24C652.962 960.24 652.939 960.24 652.916 960.24H652.893ZM634.721 893.504L652.754 956.879L659.972 911.001L634.744 893.477L634.721 893.504Z" fill="#F1F1F1" fill-opacity="0.33"/>
<path d="M652.893 960.24C652.731 960.24 652.593 960.16 652.478 960.026L628.264 930.232C628.148 930.072 628.079 929.886 628.125 929.672L633.13 891.876C633.176 891.583 633.383 891.343 633.66 891.316C633.914 891.29 634.167 891.476 634.26 891.77L653.469 959.333C653.562 959.626 653.469 959.946 653.216 960.106C653.123 960.16 653.031 960.213 652.916 960.213L652.893 960.24ZM629.301 929.566L651.532 956.932L633.891 894.864L629.301 929.566Z" fill="#F1F1F1" fill-opacity="0.33"/>
<path d="M657.136 1040.26C656.882 1040.26 656.651 1040.07 656.582 1039.78L628.148 929.966C628.079 929.672 628.171 929.352 628.402 929.192C628.632 929.032 628.932 929.085 629.116 929.325L653.331 959.119C653.331 959.119 653.469 959.386 653.492 959.546L657.712 1039.57C657.712 1039.91 657.528 1040.21 657.228 1040.26C657.205 1040.26 657.159 1040.26 657.136 1040.26ZM629.947 932.313L656.259 1033.88L652.339 959.866L629.947 932.313Z" fill="#F1F1F1" fill-opacity="0.33"/>
<path d="M686.331 1074.93C686.17 1074.93 686.032 1074.85 685.916 1074.72L656.698 1040.05C656.513 1039.83 656.49 1039.51 656.606 1039.27L674.293 1001.05C674.409 1000.81 674.639 1000.68 674.893 1000.7C675.124 1000.76 675.331 1000.97 675.377 1001.24L686.908 1074.13C686.954 1074.43 686.839 1074.72 686.608 1074.85C686.516 1074.91 686.424 1074.93 686.354 1074.93H686.331ZM657.828 1039.49L685.432 1072.24L674.547 1003.37L657.851 1039.49H657.828Z" fill="#F1F1F1" fill-opacity="0.33"/>
<path d="M657.136 1040.26C657.136 1040.26 657.044 1040.26 657.021 1040.26C656.767 1040.21 656.583 1039.94 656.56 1039.65L652.339 959.626C652.339 959.306 652.501 959.039 652.754 958.959C653.008 958.852 653.285 958.959 653.423 959.253L675.331 1001.05C675.447 1001.26 675.447 1001.5 675.331 1001.72L657.643 1039.94C657.551 1040.15 657.344 1040.29 657.136 1040.29V1040.26ZM653.608 962.24L657.574 1037.22L674.132 1001.4L653.608 962.24Z" fill="#F1F1F1" fill-opacity="0.33"/>
<path d="M674.801 1110.94C674.547 1110.94 674.34 1110.73 674.27 1110.46L656.583 1039.78C656.513 1039.49 656.629 1039.17 656.836 1039.01C657.067 1038.84 657.367 1038.9 657.528 1039.11L686.746 1073.79C686.908 1073.97 686.954 1074.24 686.885 1074.48L675.354 1110.49C675.262 1110.76 675.055 1110.92 674.824 1110.92L674.801 1110.94ZM658.312 1041.97L674.87 1108.14L685.663 1074.43L658.312 1041.97Z" fill="#F1F1F1" fill-opacity="0.33"/>
<path d="M696.709 1144.28H684.025C683.772 1144.28 683.541 1144.1 683.472 1143.83L674.247 1110.49C674.155 1110.17 674.27 1109.85 674.524 1109.69C674.778 1109.53 675.078 1109.61 675.239 1109.88L697.147 1143.22C697.285 1143.43 697.308 1143.7 697.193 1143.91C697.101 1144.12 696.893 1144.28 696.686 1144.28H696.709ZM684.463 1142.95H695.556L676.392 1113.77L684.463 1142.95Z" fill="#F1F1F1" fill-opacity="0.33"/>
<path d="M696.708 1144.28C696.524 1144.28 696.362 1144.18 696.247 1144.02L674.339 1110.68C674.224 1110.49 674.201 1110.25 674.247 1110.04L685.777 1074.03C685.87 1073.73 686.123 1073.55 686.377 1073.6C686.631 1073.63 686.861 1073.84 686.884 1074.16L697.262 1143.51C697.308 1143.8 697.17 1144.12 696.916 1144.23C696.847 1144.26 696.754 1144.28 696.685 1144.28H696.708ZM675.469 1110.17L695.763 1141.03L686.146 1076.8L675.469 1110.14V1110.17Z" fill="#F1F1F1" fill-opacity="0.33"/>
<path d="M488.007 475.242C488.007 475.242 487.891 475.242 487.822 475.216L462.063 465.88C461.832 465.8 461.671 465.533 461.671 465.24V441.687C461.671 441.421 461.809 441.154 462.04 441.074C462.27 440.967 462.524 441.047 462.686 441.261L488.445 474.149C488.629 474.362 488.652 474.709 488.514 474.949C488.399 475.136 488.214 475.269 488.03 475.269L488.007 475.242ZM462.847 464.733L486.162 473.188L462.847 443.394V464.733Z" fill="#F1F1F1" fill-opacity="0.33"/>
<path d="M488.006 475.242C487.845 475.242 487.683 475.162 487.568 475.029L461.809 442.141C461.67 441.954 461.624 441.687 461.693 441.474C461.763 441.234 461.947 441.074 462.155 441.047L495.201 435.713C495.386 435.713 495.57 435.766 495.708 435.926C495.847 436.086 495.893 436.299 495.847 436.513L488.536 474.735C488.49 474.975 488.329 475.162 488.121 475.242C488.075 475.242 488.029 475.242 487.983 475.242H488.006ZM463.423 442.167L487.683 473.162L494.578 437.126L463.423 442.167Z" fill="#F1F1F1" fill-opacity="0.33"/>
<path d="M462.27 442.327C462.062 442.327 461.855 442.194 461.763 441.981L453.299 423.309C453.184 423.069 453.207 422.776 453.368 422.589C453.507 422.376 453.76 422.296 453.968 422.376L495.478 435.712C495.731 435.792 495.916 436.086 495.893 436.406C495.893 436.726 495.662 436.966 495.409 437.019L462.362 442.354C462.362 442.354 462.316 442.354 462.293 442.354L462.27 442.327ZM454.936 424.056L462.593 440.94L492.503 436.113L454.96 424.056H454.936Z" fill="#F1F1F1" fill-opacity="0.33"/>
<path d="M406.923 478.336C406.692 478.336 406.462 478.176 406.392 477.909C406.3 477.589 406.392 477.269 406.646 477.109L461.993 441.1C462.177 440.994 462.385 440.994 462.569 441.1C462.754 441.207 462.846 441.447 462.846 441.687V465.239C462.846 465.56 462.638 465.826 462.385 465.906L407.038 478.363C407.038 478.363 406.969 478.363 406.923 478.363V478.336ZM461.693 442.807L410.313 476.229L461.693 464.679V442.807Z" fill="#F1F1F1" fill-opacity="0.33"/>
<path d="M406.923 478.336C406.923 478.336 406.808 478.336 406.739 478.31L307.184 439.18C306.908 439.073 306.746 438.753 306.815 438.407C306.884 438.087 307.115 437.82 307.438 437.873L393.917 446.329C394.124 446.329 394.286 446.489 394.378 446.702L407.454 477.376C407.546 477.616 407.523 477.91 407.361 478.123C407.246 478.256 407.085 478.363 406.923 478.363V478.336ZM312.027 439.687L405.793 476.523L393.479 447.636L312.027 439.687Z" fill="#F1F1F1" fill-opacity="0.33"/>
<path d="M406.924 478.336C406.924 478.336 406.808 478.336 406.762 478.309C406.601 478.256 406.485 478.123 406.416 477.963L393.341 447.288C393.248 447.102 393.271 446.862 393.341 446.648C393.433 446.462 393.617 446.328 393.802 446.328L462.224 440.994C462.501 440.94 462.731 441.18 462.824 441.474C462.893 441.767 462.8 442.087 462.547 442.247L407.2 478.256C407.2 478.256 407.016 478.336 406.924 478.336ZM394.747 447.608L407.154 476.762L459.756 442.541L394.747 447.608Z" fill="#F1F1F1" fill-opacity="0.33"/>
<path d="M393.848 447.662C393.733 447.662 393.618 447.609 393.526 447.529C393.364 447.395 393.272 447.209 393.272 446.995V402.104C393.272 401.891 393.364 401.704 393.503 401.571C393.641 401.438 393.849 401.411 394.01 401.464L453.969 422.349C454.199 422.429 454.384 422.696 454.384 422.963C454.384 423.256 454.222 423.523 453.992 423.603L394.033 447.609C394.033 447.609 393.918 447.635 393.848 447.635V447.662ZM394.425 403.011V446.088L451.939 423.069L394.425 403.038V403.011Z" fill="#F1F1F1" fill-opacity="0.33"/>
<path d="M393.848 447.662C393.571 447.662 393.341 447.449 393.271 447.128C393.225 446.808 393.364 446.462 393.64 446.355L453.599 422.349C453.876 422.242 454.176 422.376 454.291 422.669L462.754 441.34C462.847 441.554 462.847 441.767 462.754 441.981C462.662 442.167 462.478 442.301 462.293 442.327L393.871 447.662C393.871 447.662 393.848 447.662 393.825 447.662H393.848ZM453.53 423.816L398.114 446.008L461.348 441.074L453.53 423.816Z" fill="#F1F1F1" fill-opacity="0.33"/>
<path d="M328.885 406.772C328.885 406.772 328.678 406.745 328.585 406.665L271.694 367.109C271.44 366.949 271.348 366.576 271.463 366.282C271.578 365.989 271.855 365.829 272.132 365.882L393.963 401.437C394.24 401.517 394.425 401.811 394.402 402.158C394.379 402.478 394.148 402.744 393.848 402.771L328.885 406.772ZM275.637 368.283L329.047 405.412L390.02 401.651L275.637 368.256V368.283Z" fill="#F1F1F1" fill-opacity="0.33"/>
<path d="M393.847 447.662C393.847 447.662 393.663 447.662 393.571 447.582L328.608 406.692C328.377 406.559 328.262 406.239 328.331 405.945C328.377 405.652 328.608 405.438 328.861 405.438L393.824 401.438C393.986 401.438 394.147 401.491 394.262 401.624C394.378 401.758 394.447 401.918 394.447 402.104V446.995C394.447 447.235 394.332 447.449 394.17 447.555C394.078 447.609 393.986 447.662 393.87 447.662H393.847ZM330.96 406.639L393.271 445.875V402.798L330.96 406.639Z" fill="#F1F1F1" fill-opacity="0.33"/>
<path d="M307.368 439.233C307.368 439.233 307.253 439.233 307.184 439.207L207.26 399.65C207.007 399.544 206.845 399.25 206.868 398.957C206.891 398.637 207.122 398.397 207.376 398.37L266.573 391.248C266.758 391.248 266.919 391.302 267.035 391.435L307.784 438.113C307.968 438.326 308.014 438.673 307.876 438.94C307.76 439.153 307.576 439.26 307.391 439.26L307.368 439.233ZM210.097 399.33L305.178 436.966L266.412 392.555L210.097 399.33Z" fill="#F1F1F1" fill-opacity="0.33"/>
<path d="M393.848 447.662C393.848 447.662 393.825 447.662 393.802 447.662L307.323 439.206C307.116 439.206 306.931 439.046 306.839 438.806C306.747 438.593 306.77 438.326 306.908 438.139L328.424 405.678C328.586 405.412 328.908 405.332 329.162 405.492L394.125 446.381C394.356 446.542 394.471 446.862 394.402 447.155C394.333 447.448 394.102 447.635 393.848 447.635V447.662ZM308.476 438.006L391.173 446.088L329.07 406.985L308.476 438.006Z" fill="#F1F1F1" fill-opacity="0.33"/>
<path d="M266.621 392.555C266.621 392.555 266.459 392.555 266.39 392.502L158.395 336.035C158.119 335.901 157.98 335.528 158.095 335.208C158.188 334.888 158.488 334.701 158.764 334.781L272.155 365.909C272.294 365.962 272.432 366.069 272.524 366.202C272.594 366.362 272.64 366.522 272.594 366.709L267.22 392.048C267.174 392.235 267.059 392.395 266.921 392.502C266.851 392.555 266.759 392.582 266.667 392.582L266.621 392.555ZM164.345 337.662L266.252 390.928L271.325 367.029L164.345 337.662Z" fill="#F1F1F1" fill-opacity="0.33"/>
<path d="M307.369 439.233C307.207 439.233 307.069 439.153 306.954 439.047L266.205 392.369C266.02 392.155 265.974 391.835 266.113 391.595C266.228 391.328 266.482 391.195 266.735 391.248L329 405.465C329.185 405.519 329.369 405.679 329.438 405.892C329.508 406.105 329.484 406.345 329.346 406.532L307.83 438.993C307.738 439.153 307.576 439.233 307.415 439.26C307.415 439.26 307.392 439.26 307.369 439.26V439.233ZM268.396 392.956L307.323 437.553L327.893 406.559L268.419 392.982L268.396 392.956Z" fill="#F1F1F1" fill-opacity="0.33"/>
<path d="M328.885 406.772C328.885 406.772 328.816 406.772 328.769 406.772L266.505 392.555C266.343 392.529 266.205 392.422 266.136 392.262C266.066 392.102 266.02 391.915 266.066 391.755L271.44 366.416C271.486 366.202 271.601 366.042 271.786 365.962C271.947 365.882 272.155 365.882 272.316 366.015L329.208 405.572C329.438 405.732 329.554 406.078 329.438 406.372C329.346 406.639 329.138 406.799 328.908 406.799L328.885 406.772ZM267.335 391.355L325.771 404.691L272.385 367.562L267.335 391.355Z" fill="#F1F1F1" fill-opacity="0.33"/>
<path d="M207.445 399.65C207.445 399.65 207.307 399.65 207.237 399.597L111.142 358.707C110.911 358.6 110.773 358.36 110.773 358.093C110.773 357.827 110.911 357.56 111.119 357.453L158.394 334.781C158.625 334.674 158.878 334.728 159.04 334.941L207.86 398.503C208.044 398.743 208.044 399.063 207.906 399.33C207.791 399.517 207.606 399.624 207.422 399.624L207.445 399.65ZM112.941 358.067L205.485 397.463L158.463 336.221L112.918 358.067H112.941Z" fill="#F1F1F1" fill-opacity="0.33"/>
<path d="M207.445 399.65C207.284 399.65 207.122 399.57 207.007 399.437L158.187 335.875C158.002 335.635 158.002 335.288 158.164 335.048C158.325 334.808 158.625 334.701 158.856 334.835L266.85 391.302C267.081 391.435 267.219 391.729 267.173 392.022C267.127 392.315 266.92 392.555 266.666 392.582L207.468 399.704C207.468 399.704 207.422 399.704 207.399 399.704L207.445 399.65ZM160.862 337.315L207.676 398.29L264.452 391.462L160.862 337.315Z" fill="#F1F1F1" fill-opacity="0.33"/>
<path d="M68.295 340.089C68.0643 340.089 67.8568 339.929 67.7645 339.689L56.234 309.015C56.1418 308.775 56.1879 308.508 56.3263 308.321C56.4646 308.135 56.6722 308.055 56.9028 308.081L158.763 334.754C159.04 334.834 159.248 335.128 159.202 335.475C159.179 335.795 158.948 336.061 158.648 336.088L68.318 340.089H68.295ZM57.7561 309.682L68.687 338.729L154.22 334.941L57.7561 309.682Z" fill="#F1F1F1" fill-opacity="0.33"/>
<path d="M111.35 358.76C111.35 358.76 111.212 358.76 111.143 358.707L68.0878 340.036C67.8341 339.929 67.6727 339.609 67.7188 339.316C67.7649 338.996 67.9955 338.756 68.2723 338.756L158.602 334.755C158.902 334.755 159.133 334.968 159.179 335.288C159.248 335.608 159.087 335.928 158.833 336.035L111.558 358.707C111.558 358.707 111.419 358.76 111.327 358.76H111.35ZM71.1779 339.956L111.327 357.373L155.42 336.222L71.1779 339.956Z" fill="#F1F1F1" fill-opacity="0.33"/>
<path d="M56.7646 309.415H56.7416L-7.43731 306.295C-7.64486 306.295 -7.85241 306.135 -7.94465 305.895C-8.0369 305.654 -8.01384 305.388 -7.87547 305.201L1.34895 291.864C1.48732 291.651 1.71793 291.571 1.94854 291.624L56.903 308.082C57.1797 308.162 57.3642 308.482 57.3181 308.829C57.272 309.149 57.0414 309.389 56.7416 309.389L56.7646 309.415ZM-6.2612 305.014L51.3453 307.815L2.01772 293.038L-6.2612 305.014Z" fill="#F1F1F1" fill-opacity="0.33"/>
<path d="M68.2946 340.089C68.2946 340.089 68.1562 340.089 68.087 340.036L-7.62239 306.268C-7.87606 306.161 -8.03749 305.841 -7.96831 305.521C-7.92219 305.201 -7.64545 305.014 -7.39178 304.987L56.7871 308.108C57.0177 308.108 57.2022 308.268 57.2945 308.508L68.825 339.182C68.9172 339.422 68.8711 339.716 68.7097 339.903C68.5944 340.036 68.456 340.116 68.2946 340.116V340.089ZM-3.93262 306.481L67.2338 338.249L56.3951 309.415L-3.93262 306.481Z" fill="#F1F1F1" fill-opacity="0.33"/>
<path d="M491.095 475.242C491.095 475.242 490.957 475.242 490.888 475.188C490.634 475.055 490.473 474.735 490.542 474.415L496.699 441.527C496.768 441.18 497.068 440.913 497.368 441.02L507.353 443.234C507.538 443.261 507.699 443.421 507.769 443.607C507.838 443.821 507.838 444.034 507.746 444.221L491.603 474.895C491.487 475.108 491.303 475.215 491.118 475.215L491.095 475.242ZM497.691 442.461L492.387 470.841L506.316 444.381L497.691 442.461Z" fill="#F1F1F1" fill-opacity="0.33"/>
<path d="M504.148 478.336C504.148 478.336 504.079 478.336 504.033 478.336L490.957 475.215C490.772 475.162 490.611 475.029 490.542 474.815C490.473 474.629 490.473 474.388 490.588 474.202L506.731 443.528C506.869 443.261 507.146 443.154 507.399 443.234C507.653 443.341 507.815 443.634 507.792 443.928L504.724 477.723C504.724 477.909 504.632 478.069 504.494 478.203C504.402 478.283 504.286 478.336 504.148 478.336ZM492.018 474.095L503.664 476.869L506.408 446.782L492.018 474.122V474.095Z" fill="#F1F1F1" fill-opacity="0.33"/>
<path d="M540.678 435.659C540.47 435.659 540.286 435.552 540.193 435.339C540.055 435.099 540.078 434.779 540.24 434.565L549.072 422.562C549.233 422.349 549.51 422.269 549.741 422.376L562.032 428.377C562.263 428.484 562.401 428.751 562.378 429.044C562.378 429.337 562.171 429.577 561.94 429.631L540.793 435.632C540.793 435.632 540.701 435.632 540.655 435.632L540.678 435.659ZM549.671 423.789L542.269 433.845L559.98 428.831L549.671 423.789Z" fill="#F1F1F1" fill-opacity="0.33"/>
<path d="M557.582 460.332C557.582 460.332 557.397 460.332 557.305 460.252C557.097 460.118 556.959 459.825 557.005 459.558L561.225 428.884C561.271 428.591 561.456 428.377 561.709 428.324C561.963 428.271 562.194 428.431 562.309 428.697L569.619 446.702C569.735 446.969 569.665 447.262 569.504 447.475L557.974 460.145C557.974 460.145 557.72 460.332 557.582 460.332ZM562.078 431.258L558.412 457.851L568.397 446.862L562.055 431.258H562.078Z" fill="#F1F1F1" fill-opacity="0.33"/>
<path d="M557.581 460.332C557.396 460.332 557.235 460.252 557.119 460.092L540.216 435.419C540.1 435.232 540.054 434.992 540.123 434.779C540.193 434.565 540.331 434.405 540.538 434.352L561.685 428.351C561.87 428.297 562.077 428.351 562.216 428.511C562.354 428.671 562.423 428.884 562.4 429.097L558.18 459.772C558.134 460.038 557.973 460.252 557.765 460.305C557.719 460.305 557.673 460.305 557.627 460.305L557.581 460.332ZM541.668 435.392L557.212 458.064L561.086 429.871L541.668 435.392Z" fill="#F1F1F1" fill-opacity="0.33"/>
<path d="M557.581 512.584C557.581 512.584 557.42 512.584 557.351 512.531L524.673 495.193C524.465 495.087 524.327 494.82 524.35 494.553C524.35 494.286 524.535 494.046 524.765 493.966L551.285 484.631C551.447 484.577 551.608 484.604 551.724 484.684C551.862 484.764 551.954 484.924 552 485.084L558.158 511.757C558.227 511.997 558.158 512.264 557.973 512.451C557.858 512.558 557.743 512.611 557.604 512.611L557.581 512.584ZM526.541 494.713L556.728 510.717L551.055 486.071L526.564 494.687L526.541 494.713Z" fill="#F1F1F1" fill-opacity="0.33"/>
<path d="M529.516 521.467C529.516 521.467 529.354 521.467 529.285 521.413C529.124 521.333 529.008 521.147 528.962 520.933L524.35 494.714C524.304 494.447 524.419 494.153 524.627 494.02C524.834 493.887 525.111 493.913 525.295 494.073L543.352 511.411C543.491 511.544 543.583 511.758 543.56 511.971C543.56 512.184 543.444 512.398 543.283 512.505L529.838 521.387C529.838 521.387 529.654 521.467 529.562 521.467H529.516ZM525.803 496.287L529.931 519.76L541.969 511.811L525.803 496.287Z" fill="#F1F1F1" fill-opacity="0.33"/>
<path d="M524.903 449.449C524.903 449.449 524.811 449.449 524.765 449.449L507.077 444.568C506.846 444.515 506.662 444.275 506.639 444.008C506.616 443.741 506.731 443.474 506.938 443.341L521.536 434.459C521.697 434.379 521.882 434.352 522.043 434.459C522.205 434.539 522.32 434.699 522.366 434.912L525.433 448.702C525.48 448.916 525.433 449.156 525.295 449.342C525.18 449.476 525.041 449.556 524.88 449.556L524.903 449.449ZM508.852 443.661L524.119 447.875L521.467 435.979L508.876 443.661H508.852Z" fill="#F1F1F1" fill-opacity="0.33"/>
<path d="M524.903 449.449C524.903 449.449 524.765 449.449 524.719 449.422C524.534 449.342 524.396 449.182 524.35 448.969L521.283 435.179C521.237 434.966 521.283 434.779 521.375 434.592C521.49 434.432 521.652 434.325 521.836 434.325H540.677C540.931 434.325 541.138 434.512 541.231 434.779C541.3 435.046 541.231 435.339 541.023 435.526L525.272 449.316C525.272 449.316 525.042 449.449 524.926 449.449H524.903ZM522.574 435.659L525.249 447.635L538.948 435.659H522.574Z" fill="#F1F1F1" fill-opacity="0.33"/>
<path d="M551.424 485.911C551.24 485.911 551.078 485.805 550.963 485.645L533.483 458.518C533.344 458.305 533.321 458.038 533.437 457.798C533.529 457.558 533.759 457.424 533.967 457.451L557.605 458.998C557.789 458.998 557.927 459.105 558.043 459.265C558.135 459.425 558.181 459.638 558.135 459.825L551.978 485.378C551.909 485.618 551.747 485.805 551.516 485.858C551.47 485.858 551.447 485.858 551.401 485.858L551.424 485.911ZM535.143 458.865L551.194 483.751L556.844 460.305L535.143 458.865Z" fill="#F1F1F1" fill-opacity="0.33"/>
<path d="M524.903 495.247C524.903 495.247 524.81 495.247 524.741 495.247L512.058 491.246C511.896 491.192 511.758 491.059 511.689 490.872C511.619 490.686 511.619 490.472 511.689 490.286L524.372 462.279C524.487 462.012 524.764 461.879 525.018 461.932C525.272 462.012 525.456 462.279 525.456 462.572V494.58C525.456 494.793 525.364 494.98 525.225 495.113C525.133 495.193 524.995 495.247 524.88 495.247H524.903ZM513.072 490.152L524.326 493.7V465.266L513.072 490.152Z" fill="#F1F1F1" fill-opacity="0.33"/>
<path d="M512.22 491.246C512.036 491.246 511.851 491.139 511.759 490.979L503.688 478.096C503.595 477.936 503.549 477.749 503.595 477.589C503.618 477.403 503.711 477.242 503.849 477.162L524.604 462.039C524.834 461.879 525.111 461.905 525.296 462.119C525.48 462.332 525.526 462.652 525.411 462.919L512.727 490.926C512.635 491.139 512.451 491.273 512.266 491.273C512.266 491.273 512.243 491.273 512.22 491.273V491.246ZM504.979 477.856L512.151 489.299L523.405 464.439L504.979 477.856Z" fill="#F1F1F1" fill-opacity="0.33"/>
<path d="M524.903 463.239C524.903 463.239 524.673 463.212 524.58 463.132C524.419 462.999 524.327 462.812 524.327 462.572V448.782C524.327 448.515 524.465 448.275 524.673 448.169C524.88 448.062 525.134 448.115 525.295 448.275L534.335 457.611C534.474 457.771 534.543 457.984 534.52 458.224C534.497 458.438 534.358 458.651 534.174 458.731L525.134 463.186C525.134 463.186 524.995 463.239 524.903 463.239ZM525.48 450.276V461.558L532.882 457.904L525.48 450.249V450.276Z" fill="#F1F1F1" fill-opacity="0.33"/>
<path d="M500.69 504.129C500.69 504.129 500.575 504.129 500.528 504.129C500.321 504.076 500.183 503.889 500.136 503.649L494.763 478.763C494.694 478.496 494.786 478.229 494.971 478.069C495.155 477.909 495.409 477.909 495.616 478.043L512.52 490.046C512.682 490.152 512.774 490.339 512.797 490.552C512.797 490.766 512.751 490.952 512.636 491.112L501.105 503.996C501.105 503.996 500.851 504.182 500.713 504.182L500.69 504.129ZM496.216 479.99L501.013 502.182L511.298 490.686L496.216 479.99Z" fill="#F1F1F1" fill-opacity="0.33"/>
<path d="M557.581 504.129C557.581 504.129 557.512 504.129 557.466 504.129C557.189 504.049 556.982 503.782 557.005 503.436L558.919 460.759C558.919 460.438 559.149 460.172 559.426 460.118C559.726 460.065 559.957 460.278 560.049 460.598L565.237 481.484C565.261 481.617 565.261 481.777 565.237 481.91L558.135 503.702C558.042 503.969 557.835 504.129 557.604 504.129H557.581ZM559.887 464.786L558.342 499.221L564.084 481.644L559.887 464.786Z" fill="#F1F1F1" fill-opacity="0.33"/>
<path d="M524.903 521.466C524.903 521.466 524.696 521.44 524.604 521.36L500.39 504.022C500.228 503.916 500.136 503.729 500.113 503.515C500.113 503.302 500.159 503.115 500.297 502.955L511.828 490.072C511.966 489.912 512.151 489.859 512.335 489.885C512.52 489.912 512.681 490.045 512.75 490.259L525.434 520.48C525.549 520.746 525.503 521.066 525.295 521.253C525.18 521.36 525.042 521.413 524.903 521.413V521.466ZM501.635 503.355L523.52 519.039L512.058 491.699L501.635 503.355Z" fill="#F1F1F1" fill-opacity="0.33"/>
<path d="M496.655 545.019C496.655 545.019 496.562 545.019 496.493 545.019C496.24 544.939 496.078 544.672 496.078 544.379V507.037C496.078 506.717 496.286 506.423 496.562 506.37C496.839 506.316 497.116 506.503 497.208 506.823L504.126 530.509C504.173 530.696 504.149 530.882 504.08 531.069L497.162 544.726C497.047 544.939 496.862 545.046 496.655 545.046V545.019ZM497.231 511.064V541.898L502.95 530.616L497.231 511.064Z" fill="#F1F1F1" fill-opacity="0.33"/>
<path d="M526.241 531.362H503.572C503.318 531.362 503.111 531.176 503.018 530.909L496.1 507.223C496.031 506.956 496.1 506.663 496.308 506.476C496.492 506.29 496.769 506.29 496.976 506.476L526.564 530.162C526.771 530.322 526.864 530.642 526.794 530.909C526.725 531.176 526.495 531.389 526.241 531.389V531.362ZM503.987 530.029H524.396L497.761 508.717L503.987 530.029Z" fill="#F1F1F1" fill-opacity="0.33"/>
<path d="M503.572 556.808C503.388 556.808 503.203 556.702 503.088 556.515L496.17 544.725C496.054 544.512 496.031 544.245 496.17 544.005L503.088 530.349C503.226 530.082 503.48 529.975 503.734 530.029C503.987 530.109 504.149 530.375 504.149 530.669V556.115C504.149 556.408 503.987 556.675 503.734 556.755C503.687 556.755 503.618 556.782 503.572 556.782V556.808ZM497.346 544.325L502.996 553.954V533.123L497.346 544.299V544.325Z" fill="#F1F1F1" fill-opacity="0.33"/>
<path d="M503.571 572.039C503.433 572.039 503.317 571.986 503.225 571.906C503.087 571.772 502.995 571.586 502.995 571.372V530.696C502.995 530.402 503.179 530.136 503.433 530.056C503.686 529.976 503.963 530.109 504.079 530.376L521.766 566.064C521.859 566.251 521.859 566.464 521.789 566.651C521.72 566.838 521.582 566.998 521.397 567.025L503.71 572.039C503.71 572.039 503.617 572.039 503.571 572.039ZM504.148 533.203V570.519L520.383 565.931L504.148 533.203Z" fill="#F1F1F1" fill-opacity="0.33"/>
<path d="M521.26 567.024C521.099 567.024 520.96 566.944 520.845 566.811C520.73 566.651 520.661 566.437 520.684 566.251L525.688 530.562C525.734 530.242 525.965 530.002 526.241 530.002C526.541 530.002 526.772 530.215 526.818 530.509L533.921 564.41C533.967 564.597 533.921 564.784 533.828 564.944C533.736 565.104 533.598 565.211 533.436 565.237L521.329 567.024C521.329 567.024 521.283 567.024 521.26 567.024ZM526.357 534.056L521.952 565.584L532.652 564.01L526.357 534.056Z" fill="#F1F1F1" fill-opacity="0.33"/>
<path d="M506.64 660.834C506.64 660.834 506.617 660.834 506.594 660.834C506.294 660.834 506.063 660.513 506.063 660.167V576.146C506.063 575.853 506.225 575.613 506.432 575.506L517.778 570.732C517.963 570.652 518.171 570.705 518.332 570.838C518.493 570.998 518.563 571.212 518.54 571.452L507.193 660.247C507.147 660.567 506.917 660.807 506.617 660.807L506.64 660.834ZM507.217 576.6V651.071L517.271 572.359L507.217 576.6Z" fill="#F1F1F1" fill-opacity="0.33"/>
<path d="M505.117 740.186C505.117 740.186 505.024 740.186 504.978 740.186C504.701 740.106 504.517 739.84 504.54 739.519L506.085 660.167C506.085 659.847 506.316 659.553 506.592 659.527C506.869 659.5 507.146 659.687 507.215 660.007L518.561 707.565C518.607 707.725 518.584 707.885 518.538 708.018L505.67 739.813C505.578 740.053 505.37 740.186 505.14 740.186H505.117ZM507.146 664.728L505.762 736.372L517.385 707.672L507.146 664.728Z" fill="#F1F1F1" fill-opacity="0.33"/>
<path d="M506.639 660.833C506.639 660.833 506.547 660.833 506.501 660.833C506.224 660.753 506.039 660.433 506.062 660.087L517.409 571.292C517.455 570.998 517.662 570.758 517.916 570.732L535.604 568.838C535.788 568.811 535.996 568.918 536.111 569.105C536.226 569.291 536.272 569.531 536.203 569.745L507.192 660.433C507.1 660.7 506.893 660.86 506.662 660.86L506.639 660.833ZM518.492 571.985L508.023 653.952L534.797 570.251L518.469 571.985H518.492Z" fill="#F1F1F1" fill-opacity="0.33"/>
<path d="M506.64 660.834C506.64 660.834 506.432 660.807 506.34 660.727C506.109 660.567 506.017 660.22 506.109 659.927L535.12 569.238C535.212 568.971 535.443 568.811 535.696 568.811C535.95 568.811 536.158 569.025 536.227 569.318L545.728 614.663C545.774 614.876 545.728 615.116 545.59 615.276L507.055 660.62C507.055 660.62 506.801 660.834 506.64 660.834ZM535.558 571.745L508.138 657.473L544.552 614.609L535.558 571.745Z" fill="#F1F1F1" fill-opacity="0.33"/>
<path d="M553.73 715.967C553.592 715.967 553.453 715.914 553.361 715.807L535.304 697.589C535.12 697.402 535.05 697.082 535.166 696.789L553.223 652.778C553.338 652.485 553.615 652.351 553.868 652.405C554.122 652.485 554.329 652.752 554.329 653.045V715.273C554.329 715.54 554.191 715.78 553.984 715.887C553.914 715.914 553.822 715.94 553.753 715.94L553.73 715.967ZM536.388 696.896L553.176 713.833V656.032L536.388 696.922V696.896Z" fill="#F1F1F1" fill-opacity="0.33"/>
<path d="M517.986 708.392C517.847 708.392 517.709 708.339 517.617 708.232C517.432 708.045 517.363 707.778 517.455 707.512L544.644 614.609C544.736 614.289 545.036 614.076 545.313 614.182C545.613 614.262 545.797 614.583 545.751 614.929L536.25 697.163C536.227 697.376 536.112 697.563 535.95 697.669L518.262 708.339C518.262 708.339 518.078 708.419 517.986 708.419V708.392ZM543.814 621.544L518.977 706.365L535.12 696.629L543.814 621.544Z" fill="#F1F1F1" fill-opacity="0.33"/>
<path d="M505.118 816.418C505.118 816.418 505.094 816.418 505.071 816.418C504.772 816.418 504.541 816.098 504.541 815.751V739.519C504.541 739.519 504.541 739.333 504.587 739.226L517.455 707.432C517.571 707.138 517.847 706.978 518.147 707.085C518.424 707.165 518.585 707.485 518.562 707.805L505.694 815.831C505.648 816.151 505.417 816.418 505.118 816.418ZM505.694 739.653V806.016L516.902 711.966L505.694 739.626V739.653Z" fill="#F1F1F1" fill-opacity="0.33"/>
<path d="M557.005 807.083C556.728 807.083 556.498 806.869 556.451 806.549L535.12 697.189C535.074 696.896 535.166 696.629 535.397 696.469C535.604 696.309 535.881 696.336 536.065 696.549L554.122 714.767C554.238 714.9 554.307 715.06 554.33 715.247L557.604 806.389C557.604 806.736 557.397 807.029 557.097 807.083C557.074 807.083 557.051 807.083 557.028 807.083H557.005ZM536.619 698.896L556.152 799.081L553.154 715.594L536.596 698.896H536.619Z" fill="#F1F1F1" fill-opacity="0.33"/>
<path d="M533.366 785.744C533.089 785.744 532.859 785.531 532.813 785.237L517.431 707.885C517.362 707.592 517.5 707.298 517.731 707.138L535.419 696.469C535.603 696.362 535.811 696.362 535.995 696.469C536.18 696.602 536.272 696.816 536.272 697.056L533.966 785.077C533.966 785.397 533.735 785.691 533.435 785.717H533.389L533.366 785.744ZM518.653 708.072L532.928 779.876L535.073 698.176L518.653 708.072Z" fill="#F1F1F1" fill-opacity="0.33"/>
<path d="M505.117 816.418C505.117 816.418 504.933 816.418 504.84 816.338C504.633 816.204 504.495 815.938 504.541 815.644L517.409 707.618C517.455 707.298 517.685 707.058 517.962 707.031C518.193 707.058 518.493 707.245 518.539 707.538L533.92 784.89C533.967 785.13 533.92 785.37 533.759 785.53L505.509 816.204C505.509 816.204 505.256 816.391 505.117 816.391V816.418ZM518.124 711.432L505.901 813.991L532.721 784.864L518.124 711.432Z" fill="#F1F1F1" fill-opacity="0.33"/>
<path d="M502.419 912.895C502.419 912.895 502.35 912.895 502.327 912.895C502.05 912.842 501.82 912.548 501.843 912.228L504.541 815.751C504.541 815.565 504.61 815.405 504.726 815.298L532.975 784.624C533.16 784.41 533.46 784.384 533.667 784.544C533.898 784.704 533.99 784.997 533.921 785.291L502.973 912.441C502.904 912.735 502.673 912.922 502.419 912.922V912.895ZM505.694 816.045L503.157 906.76L532.26 787.211L505.694 816.045Z" fill="#F1F1F1" fill-opacity="0.33"/>
<path d="M560.464 897.771C560.21 897.771 559.98 897.585 559.91 897.291L532.814 785.264C532.745 784.997 532.837 784.704 533.044 784.517C533.252 784.357 533.529 784.357 533.713 784.544L557.351 805.882C557.489 806.016 557.558 806.176 557.581 806.389L561.04 897.078C561.04 897.425 560.833 897.718 560.556 897.771C560.533 897.771 560.487 897.771 560.464 897.771ZM534.382 786.864L559.657 891.343L556.428 806.763L534.382 786.864Z" fill="#F1F1F1" fill-opacity="0.33"/>
<path d="M523.174 1009.8C523.013 1009.8 522.828 1009.72 522.736 1009.56L501.981 979.764C501.981 979.764 501.843 979.498 501.843 979.338V912.201C501.843 911.855 502.05 911.588 502.35 911.534C502.627 911.508 502.904 911.721 502.973 912.041L523.728 1008.94C523.797 1009.24 523.659 1009.56 523.428 1009.69C523.336 1009.75 523.266 1009.77 523.174 1009.77V1009.8ZM502.996 979.124L521.998 1006.38L502.996 917.696V979.124Z" fill="#F1F1F1" fill-opacity="0.33"/>
<path d="M564.108 1020.04C563.854 1020.04 563.624 1019.85 563.555 1019.56L537.219 907.08C537.15 906.76 537.288 906.413 537.565 906.28L560.234 896.491C560.418 896.411 560.603 896.438 560.764 896.571C560.926 896.678 561.018 896.891 561.018 897.104L564.661 1019.35C564.661 1019.69 564.454 1019.99 564.177 1020.04C564.154 1020.04 564.108 1020.04 564.085 1020.04H564.108ZM538.487 907.294L563.37 1013.61L559.911 898.065L538.487 907.32V907.294Z" fill="#F1F1F1" fill-opacity="0.33"/>
<path d="M537.772 907.56C537.772 907.56 537.542 907.533 537.449 907.453C537.288 907.347 537.196 907.133 537.196 906.92L532.768 785.104C532.768 784.757 532.976 784.464 533.252 784.41C533.529 784.357 533.829 784.57 533.898 784.89L560.995 896.918C561.064 897.238 560.926 897.611 560.649 897.718L537.98 907.507C537.98 907.507 537.841 907.56 537.772 907.56ZM534.152 790.812L538.326 905.96L559.773 896.704L534.152 790.812Z" fill="#F1F1F1" fill-opacity="0.33"/>
<path d="M523.175 1009.8C522.921 1009.8 522.69 1009.59 522.621 1009.29L501.866 912.388C501.82 912.202 501.866 912.015 501.958 911.855C502.051 911.695 502.189 911.588 502.351 911.561L537.703 906.227C537.888 906.227 538.072 906.28 538.187 906.414C538.303 906.574 538.372 906.787 538.349 906.974L523.751 1009.21C523.705 1009.53 523.474 1009.75 523.198 1009.77L523.175 1009.8ZM503.135 912.788L523.059 1005.82L537.08 907.667L503.135 912.788Z" fill="#F1F1F1" fill-opacity="0.33"/>
<path d="M500.504 1124.49C500.504 1124.49 500.458 1124.49 500.435 1124.49C500.135 1124.44 499.928 1124.17 499.928 1123.83L501.842 979.338C501.842 979.044 502.003 978.804 502.234 978.724C502.464 978.644 502.718 978.724 502.88 978.938L523.634 1008.73C523.75 1008.89 523.796 1009.11 523.75 1009.29L501.081 1123.99C501.012 1124.31 500.781 1124.49 500.527 1124.49H500.504ZM502.972 981.205L501.15 1117.5L522.551 1009.32L502.972 981.232V981.205Z" fill="#F1F1F1" fill-opacity="0.33"/>
<path d="M564.107 1020.04C564.107 1020.04 564.015 1020.04 563.992 1020.04L523.058 1009.82C522.759 1009.74 522.551 1009.42 522.62 1009.05L537.218 906.813C537.264 906.493 537.495 906.28 537.748 906.253C538.002 906.253 538.256 906.44 538.325 906.733L564.661 1019.21C564.707 1019.43 564.661 1019.67 564.522 1019.85C564.407 1019.99 564.269 1020.07 564.107 1020.07V1020.04ZM523.843 1008.62L563.323 1018.49L537.933 910.04L523.843 1008.62Z" fill="#F1F1F1" fill-opacity="0.33"/>
<path d="M568.904 1156.07C568.674 1156.07 568.443 1155.91 568.351 1155.62L522.621 1009.37C522.551 1009.16 522.598 1008.89 522.736 1008.7C522.874 1008.52 523.082 1008.44 523.289 1008.49L564.223 1018.71C564.476 1018.76 564.661 1019.03 564.684 1019.32L569.481 1155.35C569.481 1155.67 569.296 1155.97 569.02 1156.02C568.973 1156.02 568.95 1156.02 568.904 1156.02V1156.07ZM524.074 1010.04L568.189 1151.09L563.554 1019.88L524.074 1010.01V1010.04Z" fill="#F1F1F1" fill-opacity="0.33"/>
<path d="M500.504 1233.85C500.504 1233.85 500.389 1233.85 500.32 1233.83C500.089 1233.75 499.928 1233.48 499.928 1233.19V1123.83C499.928 1123.51 500.112 1123.24 500.366 1123.19C500.62 1123.11 500.896 1123.27 501.012 1123.53L528.293 1187.55C528.385 1187.76 528.362 1188.03 528.247 1188.21L500.965 1233.56C500.85 1233.75 500.689 1233.85 500.481 1233.85H500.504ZM501.081 1126.68V1231.05L527.117 1187.79L501.081 1126.68Z" fill="#F1F1F1" fill-opacity="0.33"/>
<path d="M527.786 1188.51C527.786 1188.51 527.602 1188.51 527.533 1188.43C527.348 1188.32 527.233 1188.11 527.21 1187.87L522.598 1009.16C522.598 1008.84 522.782 1008.54 523.059 1008.49C523.336 1008.41 523.612 1008.6 523.705 1008.92L569.435 1155.17C569.527 1155.46 569.435 1155.78 569.227 1155.94L528.109 1188.4C528.109 1188.4 527.902 1188.51 527.786 1188.51ZM523.866 1013.29L528.34 1186.61L568.235 1155.14L523.866 1013.29Z" fill="#F1F1F1" fill-opacity="0.33"/>
<path d="M527.786 1188.51C527.579 1188.51 527.371 1188.38 527.279 1188.14L499.998 1124.12C499.929 1123.99 499.929 1123.83 499.952 1123.67L522.621 1008.97C522.69 1008.65 522.921 1008.41 523.243 1008.46C523.52 1008.49 523.751 1008.79 523.774 1009.11L528.386 1187.82C528.386 1188.14 528.202 1188.4 527.948 1188.48C527.902 1188.48 527.856 1188.48 527.81 1188.48L527.786 1188.51ZM501.105 1123.75L527.141 1184.8L522.736 1014.36L501.105 1123.75Z" fill="#F1F1F1" fill-opacity="0.33"/>
<path d="M571.211 1248.98C571.049 1248.98 570.888 1248.9 570.772 1248.74L527.348 1188.27C527.256 1188.13 527.187 1187.95 527.21 1187.73C527.21 1187.55 527.325 1187.39 527.464 1187.28L568.582 1154.82C568.766 1154.69 568.974 1154.66 569.158 1154.77C569.343 1154.87 569.458 1155.09 569.481 1155.35L571.787 1248.26C571.787 1248.55 571.649 1248.79 571.418 1248.9C571.349 1248.92 571.28 1248.95 571.211 1248.95V1248.98ZM528.64 1187.97L570.588 1246.39L568.351 1156.63L528.617 1187.97H528.64Z" fill="#F1F1F1" fill-opacity="0.33"/>
</svg>
